<svg xmlns="http://www.w3.org/2000/svg">
	<symbol id="blastoise" viewBox="0 0 254 236.3" style="enable-background:new 0 0 254 236.3;">
			<title>Blastoise</title>
			<path d="M212.8,88c-1.4,1.4-3.4,1.6-5.1,2.2c-1.2,0.4-2.5,0.5-3.7,0.8c-0.3,0.1-0.6,0.1-0.6,0.4c-0.1,0.3,0.2,0.4,0.5,0.5
	c4.1,2.2,7.1,5.6,10.3,8.8c1.1,1.1,1.6,2.4,2.5,3.6c0.2,0.3,0.3,0.6,0.7,0.8c5.7,2.9,9,7.5,11,13.1c0.4,1,0.9,1.9,1.6,2.8
	c2,2.5,3.6,5.3,4.9,8.3c0.7,1.5,0.1,2.1-1.7,1.7c-0.9-0.2-1.7-0.5-2.6-0.8c-0.9-0.3-1.2,0-1,0.8c0.4,1.8,0.3,3.6,0,5.4
	c-0.2,1.3-0.7,1.6-2,0.9c-1.6-0.8-2.6-2.2-4.1-3.1c-2.2-1.3-4.1-0.6-4.6,1.7c-0.2,0.9-0.1,2.1-1.2,2.5c-1.3,0.4-2.5-0.3-3.1-1.1
	c-1.1-1.5-2.3-1.2-3.8-1c-2.4,0.2-4.9,0.1-7-1.1c-1.4-0.8-2.9-0.9-4.5-0.9c-3.5,0.2-6.9-0.5-10.3-1.2c-0.7-0.1-1.3-0.4-1.3,0.6
	c-0.2,5.1-2.1,9.8-3.9,14.5c-1.3,3.6-3.4,6.8-5.6,9.9c-0.3,0.4-0.4,0.7,0.1,1.1c3.2,2.5,6,5.4,8.3,8.6c5.6,8,7.4,16.7,4.9,26.1
	c-1.1,4.1-2.8,7.9-5,11.6c-1.1,1.8-2.4,3.4-3.8,5.1c-0.8,0.9-0.4,1.4,0.5,1.7c2.5,1,4.7,2.4,6.8,4c2.2,1.7,4.3,3.5,6.1,5.5
	c0.6,0.7,0.3,1.5-0.6,1.7c-0.6,0.1-1.3,0.1-1.9,0.1c-1.1-0.1-2.1-0.2-2.8,1c-0.4,0.6-1.4,0.7-2.2,0.8c-4.2,0.2-8.4-0.4-12.4-1.6
	c-0.3-0.1-0.7-0.3-0.9-0.1c-1.3,1.5-3.2,1.1-4.8,1.3c-5.2,0.6-10.4,1.1-15.5,1.6c-1.3,0.1-2.6,0.8-3.9,0.7c-3.2-0.2-6.1,1.1-9.2,1.4
	c-3.1,0.3-6.2,0.7-9.3,0c-2-0.4-3.3-0.9-2.3-3.5c0.8-2.3,2.2-4.2,4.5-5.4c0.7-0.4,0.8-0.8,0.6-1.5c-0.8-3.2-2-6.3-3.4-9.3
	c-0.6-1.2-1.5-2.3-1.8-3.6c-0.3-1.3-1.5-1.3-2.4-1.8c-0.2-0.1-0.3,0.1-0.5,0.2c-2.6,1.8-5.8,2.5-8.8,3.5c-4.1,1.4-8.5,1.7-12.7,2.8
	c-6.2,1.6-12.6,2-19,1.7c-1.9-0.1-2.9,0.5-4,1.9c-3.4,4.1-7.8,7.1-12.9,9.4c-3.9,1.8-8,3.1-12.2,4.1c-6,1.4-12.2,1.7-18.4,1
	c-2.5-0.3-5-0.4-7.4-0.8c-0.7-0.1-1.3-0.3-1.9-0.6c-0.7-0.4-1.1-1.1-0.8-1.8c0.6-1.3,1-2.6,1.8-3.8c1.8-2.6,3.4-5.3,5.1-8
	c0.5-0.8,0.5-1.3-0.7-1.2c-1.2,0.1-2.4,0-3.5-0.1c-1.9-0.1-2.6-1-2-2.7c0.7-2.1,1.7-4.2,3-6.1c0.9-1.3,1.2-2.4,0.5-3.7
	c-0.8-1.6-0.6-3.4-1.1-5c-1.3-3.9-1.2-7.9-1.4-11.9c-0.1-4.3-0.2-8.7,0.6-13c0.8-3.9,2-7.8,3.6-11.6c1.5-3.5,3.4-6.7,5.9-9.6
	c2-2.3,2.1-5.1,2.4-7.8c0.7-5.6,1.9-11.1,3.8-16.4c0.5-1.6,1-3.2,1.5-4.8c0.2-0.6,0-1-0.3-1.4c-0.4-0.5-0.9-0.2-1.3-0.1
	c-1,0.3-1.8,0.8-2.6,1.3c-0.8,0.4-1.5,0.5-1.6-0.7c-0.1-1.7-0.2-3.5,0.7-5.1c0.7-1.2,0.2-2.2-0.6-3.1c-1.3-1.3-1.3-1.7,0.1-2.7
	c1.4-1.1,1.5-2.7,2.3-4.1c1.4-2.3,2.9-4.6,5-6.4c0.4-0.3,0.7-0.7,0.7-1.2c0.4-2.8,1.9-5.2,3.2-7.6c1.3-2.4,2.9-4.8,4.6-7
	c0.5-0.7,0.3-1.2-0.4-1.3c-2.1-0.5-3-2.2-4.1-3.6c-2.2-2.8-4.2-5.8-6-8.8c-2.1-3.5-1.9-5.9,0.7-9.1c1.7-2.1,3.3-4,6.2-4.5
	c1.6-0.3,3.3-0.5,5-0.5c2.2,0,3.9,1.1,5.2,2.6c2.3,2.8,4.6,5.6,6.4,8.6c1.4,2.3,1.8,2.4,4,0.8c1.8-1.3,3.9-2,5.8-3
	c0.8-0.5,1.8-0.3,2.6,0.1c1.2,0.5,2.5,1,3.6,1.8c1.3,0.9,2.3,0.7,3.4-0.1c2.2-1.7,4.6-3.1,7.2-4.2c2.7-1.2,5.4-2.3,8-3.4
	c3.9-1.7,8.1-2.4,12.2-3.3c2.9-0.6,5.5-2.2,8.4-2.8c1.7-0.3,2.3-1.4,3.2-2.5c2-2.6,2.2-5.7,2.8-8.6c0.3-1.7-0.4-3.3-1.2-4.9
	c-1.6-3.4-3.1-6.9-4.1-10.5c-0.1-0.5-0.2-0.9-0.3-1.4c-0.3-2,0-2.6,2.1-3.1c4.9-1.3,9.9-2.5,15.1-2.2c1.6,0.1,3.1-0.5,4.5-1.4
	c1.5-0.9,3-1.6,4.9-1.4c1.2,0.1,2.2-0.4,3.2-0.9c1.1-0.4,2.3-0.8,3.5-1.1c1.2-0.2,2.3-0.1,3.2,0.7c1.1,1,2.4,1,3.8,0.5
	c0.5-0.1,0.9-0.3,1.4-0.5c2.6-1.1,5.2-0.9,7.6,0.5c1.5,0.9,3,1.7,4.2,2.9c1.2,1.2,1.8,2.3,1.4,4c-0.4,1.8,0.4,2.4,2.4,1.9
	c2.3-0.7,4.7-1.1,7.2-1.4s4.2,0.5,5.9,2.2c3.5,3.5,5.1,10.1,2.7,14.1c-1.2,2-1.6,3.9-2,6c-0.6,3.4-1.6,6.7-3.8,9.5
	c-2.9,3.6-6.2,6.9-10.5,9.2c-2.4,1.3-4.9,2.2-7.3,3.3c-1.4,0.6-1.4,0.9-0.4,1.9c0.8,0.8,1.3,1.8,1.8,2.8c0.4,0.8,0.9,1.3,1.7,0.3
	c1.1-1.3,2.7-1.7,4.4-2c6.1-1.3,12.1-2.7,18.3-3.9c1.7-0.3,3.4-0.8,5.2-0.3c2.5,0.7,3.8,2.7,4.7,4.6c1.3,2.8,2.7,5.6,2.8,8.7
	c0.1,3.1,0.6,6.3-1,9.3C213.6,87.2,213.3,87.7,212.8,88c2.1-3.5,2.1-7.4,1.5-11.2c-0.5-3.3-1.6-6.6-3.6-9.5c-1.3-1.9-3.2-3-5.6-2.8
	c-2.3,0.2-4.5,0.8-6.8,1.3c-3.8,0.8-7.7,1.6-11.5,2.5c-2.3,0.5-4.6,0.9-6.5,2.3c-1.5,1.1-2.5,2.5-2.7,4.3c-0.2,1.5,0.3,2.9-0.3,4.4
	c-0.6-0.5-0.3-1.7-1.5-1.3c-2.9,0.9-5.1-0.2-7-2.2c-1-1.1-2.2-1.6-3.8-1.2c-0.6,0.1-1.1,0.2-1.7,0.3c-1.7,0.2-2.5,1-2.8,2.7
	c-1,4.9-1.7,9.8-3.3,14.6c-0.4,1.2-0.7,2.5-1,3.8c-0.3,1.3,0.3,2.1,1.5,1.9c2-0.4,4.1-0.6,5.9-1.4c1.2-0.5,2.4-0.8,3.6-0.9
	c2-0.2,3.6-1.1,4.9-2.5c0.3-0.3,0.4-0.8,0.9-0.9c-1.7,3.6-5.2,4.6-8.9,5c-1.4,0.2-1.7,0.7-2.1,1.7c-0.8,2.4-0.8,4.9-0.6,7.4
	c0.1,1.9,0.2,3.7,0.7,5.5c0.9,3.2,1.8,6.4,3.8,9.3c0.1,0.1,0.1,0.3,0.2,0.4c-0.6,0.1-0.6-0.5-1.2-0.5c-0.7,2.2-1.8,4.3-3.3,6.2
	c-0.7,0.9-1.8,1.4-2.4,2.4c-2.1,3.8-4.3,7.6-7,11.1c-2.8,3.7-6.2,7-9.9,10c-3.2,2.7-6.7,5.1-9.8,7.9c-1.6,1.4-2.9,3-4.8,4.1
	c1.3-2,3.3-3.3,5-4.9c3.1-3,6.8-5.6,10.1-8.4c3.8-3.2,7.2-6.6,10.1-10.5c1.8-2.4,3.1-5.2,4.9-7.6c1.6-2.2,1-3.9-0.1-5.8
	c-2.3-4.2-6.3-6.9-10-9.9c-3.2-2.7-7.2-4.4-10.9-6.5c-2.6-1.5-5.5-2.6-8.4-3.6c-2.4-0.8-2.9-0.8-4.5,0.8c-1.4,1.5-2.9,3-4.3,4.5
	c-2.1,2.3-4.7,4.2-7,6.4c-3.5,3.4-7.2,6.6-10.8,9.8c-1.9,1.7-3.3,3.7-5.2,5.3c-3.1,2.7-6.2,5.5-9.3,8.3c-1,0.9-1.5,2-1.2,3.3
	c1.2,4.9,2.4,9.8,3.8,14.6c1.7,6.1,3.4,12.1,4.9,18.3c0.4,1.7,1,3.4,1.5,5.1c0.5,1.4,1,1.6,2.5,1.1c2.6-0.9,5.1-1.9,7.7-2.8
	c3.7-1.3,6.8-3.2,9.4-5.8c2-1.9,3.7-4,5.6-6c1.5-1.6,3.1-3.1,4.7-4.6c0.5-0.4,0.6-1.2,1.4-1.3c-0.3,0.9-1,1.5-1.6,2.1
	c-3.1,2.9-5.8,6.1-8.8,9.1c-1.3,1.4-2.6,3-4.3,4c-4.2,2.4-8.7,4.1-13.2,5.8c-3.7,1.4-7.6,2.5-11.6,3.2c-1.5,0.2-2.9-0.1-4-0.8
	c-2.2-1.4-4.3-2.9-6.6-4.1c-2.3-1.3-4.7-2.5-7.3-3c-6.2-1.1-12.1,0-17.7,2.6c-1.7,0.8-2,0.8-3.1-0.7c-1.9-2.4-3.3-5.1-4-8
	c-0.1-0.6-0.5-1.1-0.8-1.6c-0.4,0.1-0.3,0.4-0.4,0.6c-1.2,7,0,13.8,3,20.3c0.4,0.9,1.2,1.6,1.9,2.3c0.4,0.3,0.8,0.5,1.2,0.1
	c1.7-1.7,3.9-2.8,6.1-3.9c2.4-1.2,4.8-1.8,7.4-1.6c3,0.2,5.9,0.7,8.6,2c1.9,0.9,4,1.4,5.8,2.5c-2-0.7-4.1-1.4-6.1-2.1
	c-2.5-0.8-4.8-1.9-7.5-2c-3.3-0.1-6.2,0.7-9.1,2.1c-2.8,1.3-5,3.2-6.9,5.4c-3.8,4.7-7.5,9.4-10.8,14.4c-2.9,4.2-5.8,8.4-8,13
	c-0.8,1.6-0.6,1.9,1.3,2.3c5.3,1.1,10.7,1.3,16.1,1.1c6.9-0.3,13.6-1.5,20-4.3c5.1-2.2,9.6-5.1,13.4-8.9c0.8-0.9,1.8-1.6,2.5-2.6
	c1.5-2.1,2.6-4.4,3.6-6.7c0.9-2,1.2-4.2-0.4-5.9c-1.5-1.6-3-3.4-5.2-4.3c-1-0.4-2.2-0.7-2.9-1.5c3.2,1,6.1,2.4,8.2,5.1
	c1.9,2.5,5.2,3,8.2,2.1c3.1-0.9,6.1-1.9,9.2-2.7c4.8-1.2,9.7-2.1,14.7-1.4c2,0.3,4.1,0.1,6.1-0.4c5.4-1.5,9.1-5,12.3-9.1
	c2.2-2.9,4-6.2,6.6-9c-0.1,0.5-0.4,0.9-0.7,1.3c-1,1.3-2.1,2.6-2.9,4c-2.7,4.8-6.3,8.9-11.3,11.9c-0.8,0.5-1.2,1.2-1.1,2
	c0.3,1.5,0.6,3.1,1.4,4.5c1.4,2.6,2.9,5.2,4,7.9c1.1,2.6,1.8,5.3,2.6,8c0.2,0.8,0.7,1.2,1.6,0.8c2.4-0.9,4.8-1.5,7.4-0.8
	s5.3,1.4,7.6,3c1.9,1.3,2.4,2.6,1.8,4.2c-0.3,0.7-1.1,0.9-1.4,1.5c0.4,0.2,0.7,0.1,1,0c5.6-1.3,11.4-1.4,17.1-1.9
	c3.2-0.3,5.2-1.9,6.8-4.2c2-2.9,2.1-6.4,3.1-9.6c0.5-1.8,0.7-3.6,0.6-5.5c-0.1-2.7,0-5.4-0.1-8.1c-0.1-3.6-0.2-7.2-0.9-10.7
	c-1.1-5.1-2.6-10.1-4.9-14.8c-1.8-3.8-3.8-7.5-6.9-10.6c-2.1-2.1-3.4-2.3-5.9-0.8c-0.5,0.3-1.1,0.7-1.5,1.1
	c-4.2,3.4-8.4,6.8-12.1,10.7c-1.7,1.8-3.2,3.7-4.9,5.6c0-0.5,0.3-1,0.6-1.4c2.9-3.4,5.8-6.8,9.3-9.7c3-2.5,5.7-5.4,9.2-7.2
	c2.9-1.5,4.5-3.8,4.5-6.7c0.1-3.7,1.6-6.9,2.8-10.2c0.4,0.9,1,0.4,1.4,0c1.3-1.3,2.8-2.5,4.3-3.7c0.6-0.4,1.1-0.9,1.3-1.6
	c0.7-2.1,1.3-4.3,1.4-6.6c0.6-7.8-0.6-15.6,0.7-23.4c0.8-4.5,1.8-8.8,4.1-12.7c0.5-0.8,0.6-1.2-0.3-1.8c-1.1-0.7-2.2-1.6-2.6-2.8
	c-0.3-1.1-1.1-1.1-2.1-1c-1.9,0.2-3.2,1.3-4.5,2.4c0.8-1.6,2.1-2.7,4.1-2.9c0.7-0.1,1.2-0.3,0.8-1.1c-0.8-1.6-0.9-3.3-1.6-4.9
	c-0.2-0.4-0.3-0.9,0.2-1.4c0.2,1.6,0.7,3.1,1.2,4.5c0.6,1.4,1.4,2.7,2.2,4c2,3.4,4.8,4.8,9.2,4c3.3-0.6,6.6-1.3,10-1.8
	C204.5,90.4,208.8,89.5,212.8,88L212.8,88z M46.9,128.6c0,0.5,0,0.8,0.1,1.1c0.3,3.2,0.6,6.5,1.8,9.6c0.4,1,1,1.4,2.2,1.2
	c5-0.9,10-1.6,15.2-1.6c5.8,0.1,11.6,0.5,17.2,1.9c1.4,0.3,2.6,0.1,3.6-0.9c1.4-1.5,3.1-2.6,4.5-4.1c2.3-2.4,5.1-4.4,7.5-6.8
	c4.8-4.7,9.6-9.4,14.7-13.8c3.2-2.9,6.1-6.1,9.3-9c0.3-0.2,0.5-0.5,0.7-0.8c0.6-0.8,0.8-1.5,0.2-2.5c-0.7-1.1-1.6-2-2.3-3.2
	c-1.7-3.1-3.3-6.2-5.1-9.2c-0.5-0.9-0.6-1.7-0.5-2.7c0.9-5.5,2.6-10.8,4.7-16.1c0.2-0.7,0.2-1.1-0.4-1.4c-2.2-1.2-4.4-2.7-6.9-3.2
	c-3.9-0.8-7.8-1.4-11.9-1.2c-5.3,0.3-10.4,1.3-15.2,3.5c-2.5,1.2-4.9,2.5-7,4.3c-3.5,3-6.7,6.3-9.8,9.6c-2.9,3.1-5.6,6.2-7.8,9.7
	c-2.3,3.7-4.5,7.4-6.6,11.2c-1.5,2.8-2.9,5.6-3.9,8.5c-1.2,3.7-2.5,7.3-3.6,11C47.1,125.5,46.6,127,46.9,128.6L46.9,128.6z
	 M126.1,67.9c0-0.1-0.1-0.3-0.1-0.4c9.7-2.8,19.3-6,29.4-8.3c-3.7-2.6-7.4-4.3-11.5-5.5c-4.5-1.3-9-1.7-13.7-1.5
	c-2.3,0.1-4.7-0.1-6.9,0.4c-5.4,1.1-10.8,1.8-16,3.9c-3.3,1.3-6.6,2.5-9.8,4.1c-2.8,1.5-5.2,3.3-7.9,4.9c-1.5,0.9-2.8,2-4.2,3.1
	c2.8-0.6,5.5-1.2,8.2-1.9c4.2-1.1,8.4-1.4,12.8-1.2c1.8,0.1,3.3,0.8,5.1,0.9c3.4,0.2,6.4,1.5,9.2,3c0.3,0.2,0.6,0.4,1,0.1
	c0.3-0.2,0.6-0.8,0.9-0.4c0.4,0.4-0.2,0.7-0.4,1.1c-0.1,0.2-0.2,0.4-0.3,0.6c-1.7,5-3.8,9.9-4.7,15.1c-0.4,2.1-0.3,3.9,0.8,5.7
	c2.3,3.8,4.6,7.7,6.8,11.5c0.3,0.5,0.8,0.8,1.4,0.9c5.3,1.7,10.6,3.5,15.3,6.4c2.2,1.4,4.6,2.5,6.6,4.2c4.6,3.8,9.4,7.5,12.2,13.1
	c1.1-1.6,2.1-2.9,3-4.4c0.8-1.3,0.8-2.8,0.1-4.2c-0.9-1.8-1.4-3.8-2.1-5.8c-1.8-4.9-3.5-9.9-5.6-14.8c-0.4-1-0.5-2-0.2-3.1
	c1.6-5.4,2.7-10.8,4-16.3c0.8-3.3,1.4-6.5,2.1-9.8c0.1-0.5,0.2-1.1,0.8-1.2c0.6-0.1,0.9,0.4,1.1,0.8c0.7,0.9,1.2,1.9,2,2.7
	c0.8,0.8,1.2,2.1,2.5,2.4c1.1,0.3,2,0.9,2.6,1.7c0.8,1.1,2,1.3,3.1,1.6c1.2,0.3,1.7-0.3,1.5-1.4c-0.2-0.8-0.6-1.4-1.1-2
	c-1.1-1.4-2.2-2.9-3.4-4.3c-2.8-3.4-5.8-6.7-9.5-9.3c-1.4-1-3.1-1.3-4.9-0.8c-4.2,1.2-8.5,2-12.6,3.4c-4,1.3-8.2,2.3-12.2,3.6
	C129.7,67.1,127.9,67.5,126.1,67.9L126.1,67.9z M65.9,139.7c-4.8-0.1-9.5,1-14.3,1.6c-1.3,0.2-2.3,0.9-2.9,2.1
	c-1.6,3.1-2.8,6.3-3.6,9.7c-1.3,5.6-1.8,11.2,0.2,16.7c0.7,1.9,1.4,3.9,1.9,5.9c0.5,1.8,1.6,3.3,2.8,4.7c0.6,0.7,1.3,1,2.3,0.5
	c1.1-0.6,2.3-1.1,3.6-1.5c4.3-1.3,8.6-2,13.1-1.2c3.1,0.5,5.9,2,8.7,3.3c2.4,1.1,4.7,2.5,6.7,4.2c0.5,0.4,1.1,0.6,1.7,0.6
	c3,0.3,5.7-0.8,8.4-1.6c1.1-0.3,1.1-1.2,0.9-2c-0.3-1.2-0.7-2.4-1-3.7c-1.4-5.1-2.3-10.3-4-15.4c-0.6-1.9-1.3-3.8-1.7-5.7
	c-1.1-4.9-2.5-9.8-3.8-14.7c-0.2-0.7-0.6-1.1-1.4-1.4c-1.9-0.6-3.8-0.9-5.7-1.2C73.9,140.1,69.9,139.8,65.9,139.7L65.9,139.7z
	 M156,38.4c0.1,0.8-0.3,1.3-0.4,2c-0.4,1.5,0,2.7,1.1,3.2c2,0.8,4.1,1.5,6.3,1.6c6.5,0.4,12.6-0.9,18.1-4.3c3.4-2.1,6.9-3.9,10.9-5
	c2.4-0.7,4.2,0.3,6.3,0.7c0.1,0,0.3,0.2,0.4,0.3c0.3,1.2,0.8,0.6,1.2,0.1c1-1.6,1.4-3.3,1-5.2c-0.1-0.5-0.3-0.5-0.8-0.5
	c-1.9,0.1-3.8,0-5.9,0c1.8-0.6,3.4-0.6,5.1-0.5c0.7,0,1.5-0.2,1.2-0.9c-0.7-1.5-0.8-3.2-1.9-4.6c-0.8-1-1.9-1.7-2.8-2.6
	c-0.9-1-2.1-1.2-3.3-1.1c-1.3,0.1-2.7,0.1-3.9,0.5c-3.2,0.9-6.7,1-9.9,2.3c0.7-1,0.4-2.1,0.6-3.3c0.4,0.5,0.2,0.9,0.4,1.3
	c0.1,0.3,0.2,0.5,0.6,0.3c1.6-0.7,2-4,0.7-5.1c-1.5-1.2-2.9-2.4-4.8-3.3c-3.6-1.7-7.5-1.4-10.7,1c0.8,0.3,1.6,0.7,2.6,1.1
	c-2.4-0.1-4.6-0.4-6.8-0.8c-2.3-0.4-4.7-0.5-7-0.6c-1.4-0.1-2.6,0.2-3.8,1c-2,1.4-4.4,2.1-6.9,2c-4.9-0.2-9.6,1-14.3,2.2
	c-1,0.3-1.3,0.8-1.2,1.8c0.5,3.7,2,7.1,3.5,10.5c0.9,2,1.9,4.1,1.9,6.1c0,3.2-0.6,6.5-2.4,9.4c-0.2,0.3-0.6,0.6-0.3,1
	c0.2,0.3,0.7,0,1,0c3.6-0.4,7.2-0.6,10.9-0.1c1.4,0.2,2.7,0.7,4.1,0.8c0.9,0.1,1.4-0.1,1.6-1c0.1-1.2,0.5-2.3,0.7-3.5
	c0.3-2,1.3-3.2,3.6-3.3c1.6-0.1,2.8-0.7,2.9-2.3C155.4,39.1,155.5,38.7,156,38.4L156,38.4z M200.4,105.4c-0.1-0.3-0.2-0.4-0.2-0.4
	c0.1-0.4,0.1-0.8,0.2-1.1c0.5-3.6,1-7.2,0.3-10.8c-0.2-1-0.6-1.3-1.6-1.1c-3.3,0.6-6.7,1.2-10,1.7c-1.2,0.2-2.4,0.4-3.6,0
	c-0.6-0.2-0.9,0-1.2,0.5c-2.2,3.9-3.6,8.1-4.1,12.5c-0.7,5.3-0.9,10.7-0.6,16c0.2,2.8,0.7,3.2,3.4,1.9c0.6-0.3,1.2-0.6,1.7-1
	c0.6-0.5,1.2-1,2-1.3c5.2-2.6,8.7-6.7,11.2-11.5c0.2-0.4,0.3-1,0.8-1.3c0.3,0.5,0,0.8-0.2,1.2c-0.9,2.3-2.2,4.5-3.9,6.2
	c-4,4-8.3,7.7-14.1,9.3c-1.2,0.3-1.5,1.6-0.6,2.4c0.9,0.7,1.8,1.4,2.9,1.9c7.8,3.4,15.8,4.9,24.2,2.1c2.5-0.8,4.5-2.4,6.2-4.4
	c1.6-1.8,2.7-3.9,3.6-6.2c1.8-4.4,2-8.8,0.6-13.3c-1.1-3.5-3.1-6.5-5.6-9.3c-2.7-2.9-5.7-5.4-9.2-7.4c-0.4-0.2-0.9-0.6-1.4-0.3
	c-0.4,0.3-0.3,0.8-0.2,1.2c0.5,2,0.4,4,0.3,6.1C201.4,101,201.2,103.1,200.4,105.4L200.4,105.4z M198.2,39.6
	c0.1-1.9-0.4-2.7-1.8-3.1c-2.4-0.6-5-0.5-7.2,0.5c-2.6,1.2-5.4,2.2-7.7,4c-1.1,0.8-2.3,1.5-3.5,2.1c-6.2,2.8-12.7,3.3-19.3,1.9
	c-1.5-0.3-3.3-0.7-3.7-2.5c-0.1-0.2-0.3-0.4-0.6-0.4c-1.9-0.3-4.2,0.9-4.9,2.5c-0.6,1.3-0.7,2.8-1,4.2c-0.2,0.8,0.1,1.2,1,1.5
	c1.9,0.5,3.7,1,5.5,1.7c3.4,1.4,6.5,3.3,9.5,5.3c2.3,1.6,4.8,2.8,6.6,4.9c0.6,0.8,1.4,1.4,2.1,2.1c0.8,0.8,1.8,1.1,2.8,0.6
	c1-0.5,2.1-0.8,3.1-1.2c4.3-1.7,8-4.2,11.1-7.3c1.4-1.5,3.1-2.8,4.2-4.6c1.2-2,1.7-4.2,2.6-6.3C197.8,43.6,198.1,41.6,198.2,39.6
	L198.2,39.6z M42.2,147.9c-0.1,0-0.2-0.1-0.3-0.1c-1.4,1.3-2.2,3-3.4,4.5c-1.2,1.6-2.1,3.3-2.8,5.2c-0.9,2.4-2.1,4.6-2.7,7.1
	c-0.4,1.7-1,3.4-1.2,5.2c-0.7,5.2-0.7,10.3-0.5,15.5c0.1,4.9,1.2,9.5,2.4,14.2c0.1,0.5,0.2,1.4,1,0.5c0.8-1,1.8-1.2,3-1.2
	c1.3-0.1,2.6-0.1,3.9-0.2c1-0.1,1.9,0.2,2.5,1c0.5,0.8,0.9,0.6,1.4,0c1-1.2,1.9-2.3,2.9-3.5c0.3-0.3,0.4-0.6,0.1-1
	c-2-2.7-2.8-5.7-3.9-8.7c-1.6-4.6-1.8-9.3-1-14.1c0.2-1.4,0.9-2.8,0.3-4.2c-1.7-4.5-1.4-9.1-1.7-13.8
	C42.1,152.1,42.2,149.9,42.2,147.9L42.2,147.9z M181.4,210.1c1.8-1.6,3.2-3.3,4.1-5.1c3.2-5.9,5.8-11.9,6-18.7
	c0.2-6.3-2.1-11.8-5.2-17.1c-1.1-1.9-2.5-3.8-4.1-5.5c-3.4-3.6-7.4-6.4-12.2-8.3c-1.7-0.7-2.4-0.4-3.4,1.1c-0.1,0.1-0.1,0.3-0.2,0.3
	c-1.4,0.9-0.5,1.5,0.3,2c1.7,1.1,2.9,2.5,4,4.1c1.9,3,3.8,5.9,5.2,9.1c1.7,3.7,3.1,7.4,4,11.3c1.6,7,1.8,14.1,1.9,21.3
	C181.8,206.4,181.5,208.1,181.4,210.1L181.4,210.1z M87.7,200.3c0.8,3.4-0.5,6.1-2.1,8.7c-0.3,0.5-1,1-0.6,1.7
	c0.4,0.6,1.2,0.4,1.9,0.4c4.6,0,9.1-0.1,13.7-0.9c7.1-1.3,14.2-2.4,21-4.5c2-0.6,3.8-1.5,5.5-2.6c0.6-0.4,0.9-0.8,0.5-1.6
	c-0.6-1.2-0.9-2.5-1.2-3.8c-0.3-1.6-0.4-1.8-2.1-1.2c-2.2,0.8-4.6,0.9-6.8,0.6c-2.4-0.3-4.7-0.4-7.2,0c-5,0.9-9.9,1.9-14.7,3.5
	c-1.1,0.4-2.2,0.9-3.4,0.9C90.7,201.7,89.3,201.2,87.7,200.3L87.7,200.3z M47.3,63.8c0,1.2,0.4,2.1,1,3c2.1,3.2,4.3,6.4,6.7,9.5
	c1,1.2,1.9,2.7,3.7,3.2c0.6,0.2,0.8,0.3,1.3-0.3c1.4-1.5,2.5-3.2,3.9-4.7c2.4-2.5,5.1-4.6,7.9-6.7c0.7-0.5,0.9-0.9,0.4-1.6
	c-1.1-1.5-2.2-3-3.1-4.6c-1.3-2.1-3.2-3.9-4.7-5.9c-0.7-0.9-2-1.9-3.5-2c-1.2-0.1-2.5-0.1-3.7,0c-1.9,0.2-3.8,0.3-5.2,1.8
	c-1,1-1.9,2-2.8,3.1C47.8,60.3,47.5,62.1,47.3,63.8L47.3,63.8z M51.3,97.5c0.6,1.3,1.4,2.8,2.6,4.2c0.9,1,1.3,0.5,1.7-0.2
	c0.6-1,1.1-2.1,1.8-3.1c1.3-2,2.2-4.3,3.9-6.1c1.1-1.1,2-2.2,2.7-3.6c0.4-0.8,1.1-1.6,1.7-2.3c2.5-2.6,4.8-5.5,7.5-7.9
	c2.1-1.8,3.9-3.9,6.2-5.5c1.4-0.9,3.4-1.4,4-3.1c0.6-1.8,2.1-2.5,3.5-3.5c0.1-0.1,0.2-0.1,0.3-0.2c0.9-0.5,0.8-1-0.1-1.3
	c-1.1-0.4-2.2-0.9-3.2-1.3c-0.9-0.3-1.8-0.3-2.8,0.1c-4.2,1.6-8,3.5-11.2,6.5c-2,1.8-4.3,3.3-6,5.3c-2.8,3.4-5.5,6.8-7.8,10.5
	c-0.8,1.2-1.5,2.5-2.1,3.8c-0.4,1.1-0.1,1.6,1,1.9c1.1,0.4,2.3,0.6,3.5,0.6c0.5,0,1.1-0.2,1.4,0.3c0.3,0.5-0.3,0.9-0.6,1.3
	c-0.3,0.5-0.8,0.6-1.4,0.5c-0.3-0.1-0.6-0.2-0.9-0.4C54.6,92.7,51.4,94.4,51.3,97.5L51.3,97.5z M217.5,105.8
	c0.2,0.7,0.3,1.1,0.4,1.6c0.8,2.3,1.1,4.8,1.1,7.1c-0.2,5.6-1.8,10.8-6.3,15c-2,1.8-4.1,3.2-6.7,3.9c-0.9,0.2-1.7,0.5-2.7,0.8
	c0.7,0.7,1.4,0.9,2.2,1.1c2.8,0.8,5.5,0.4,8.2-0.1c5.4-1,10.1-3.1,13.3-7.6c1-1.4,1.5-2.9,1.4-4.4c-0.3-3.5-1.1-7-3.1-10.1
	c-0.9-1.4-2-2.7-3.2-3.9C220.8,107.8,219.4,106.7,217.5,105.8L217.5,105.8z M123.2,52c4.9-0.1,9.8-0.3,14.6,0.2
	c6.3,0.8,12.4,2.3,17.6,6c0.6,0.5,1.3,0.7,2.1,0.6c1.4-0.2,2.6,0.1,3.9,0.8c2.2,1.2,3.8,3,5.5,4.7c3,2.9,6,5.8,8,9.5
	c0.5,0.9,1.1,1.7,1.6,2.9c0.4-1.3,0.5-2.3,1-3.1c1.4-2.1,0-3.8-1.1-5.2c-2.2-2.7-4.8-5.1-7.5-7.4c-2.7-2.4-5.8-4.3-8.9-6.2
	c-3.5-2.1-7.4-3.6-11.5-4.5c-3.3-0.7-6.7-1.3-10-1.4c-3.2-0.1-6.4,0.3-9.5,1C126.9,50.4,125,51.2,123.2,52L123.2,52z M141.4,217.8
	c-1.4,0-2.9,0.5-4.3,1.1c-3.6,1.4-6,3.8-6.9,7.4c-0.2,0.8-0.1,1.5,0.9,1.8c1.7,0.4,3.4,0.7,5.1,0.6c5-0.1,9.9-1,14.6-2.7
	c1-0.4,2.1-0.8,2.2-2.1c0.1-1.6-0.4-2.4-1.8-3.1c-1.1-0.5-2.3-1-3.4-1.6C145.8,218.3,143.8,217.9,141.4,217.8L141.4,217.8z
	 M176.5,141.2c-0.5-0.2-0.6-0.2-0.7-0.3c-0.4-0.2-0.6-0.8-1.1-0.5c-0.6,0.4,0,0.8,0.3,1.2c2.1,2.9,3.9,6.1,4.9,9.5
	c0.3,0.9,0.5,1.6,1.4,0.3c0.3-0.5,0.7-0.9,0.9-1.5c1.3-2.9,2.4-5.8,3.3-8.8c0.7-2.5,1.2-5,1.3-7.6c0.1-0.8-0.2-1-0.9-1.2
	c-1.9-0.5-3.7-1.3-5.3-2.3c-0.9-0.6-1.1-0.2-1.2,0.5c-0.1,0.3-0.1,0.7-0.1,1c-0.4,2.6-0.6,5.2-2.6,7.2
	C175.8,139.5,175.3,140.1,176.5,141.2L176.5,141.2z M168,153c-0.2,1,0,1.2,0.8,1.5c2.1,0.8,4.4,1.1,6.2,2.6c2.1,1.7,2.2,1.6,3.5-0.7
	c0.3-0.6,0.7-1.2,1.1-1.8c0.3-0.4,0.4-0.8,0.3-1.3c-0.9-4.1-2.8-7.9-5.3-11.4c-0.2-0.3-0.5-0.7-1-0.4c-1.4,1-3,1.7-3.7,3.4
	C168.6,147.7,167.8,150.4,168,153L168,153z M39.2,199.4c-1.9-0.2-3.4,0.3-4.5,1.6c-2,2.4-3.5,5.1-4.7,7.9c-0.7,1.5-0.1,2.4,1.7,2.5
	c1.7,0.2,3.4-0.3,5.1-0.5c0.4,0,0.7-0.2,0.8-0.6c1.6-3,4.1-5.4,6-8.3c0.8-1.1,0.7-1.4-0.5-2.2C41.8,199,40.4,199.4,39.2,199.4
	L39.2,199.4z M43.8,109.3c0.1,3.3,1.3,5.6,3.8,7.6c0.9,0.7,1.3,0.6,1.6-0.5c0.4-1.3,0.8-2.6,1.3-3.9c0.5-1.2,0.4-2.3,0-3.6
	c-0.5-1.7-0.6-3.4-0.5-5.2c0.1-1.7,1-3.3,0.3-5.1c-0.1-0.3,0.1-0.7-0.3-0.8c-0.4-0.1-0.6,0.3-0.8,0.6c-1.8,2.2-3.3,4.4-4.4,6.9
	C44.4,106.7,43.7,108.1,43.8,109.3L43.8,109.3z M187.7,224.8c1,0.1,1.8-0.1,2.1-0.8c0.3-0.6,0.1-1.2-0.5-1.7
	c-2.5-2.3-5.4-4.1-8.4-5.9c-1.1-0.6-1.5-0.3-1.7,0.8c-0.4,1.9-1.4,3.5-2.5,5.1c-0.6,0.8-0.4,1.1,0.5,1.3
	C180.7,224.3,184.3,224.7,187.7,224.8L187.7,224.8z M43.3,157.6c0-0.1,0.1-0.2,0.1-0.4c0.8-4.7,1.9-9.4,4.2-13.6
	c0.8-1.4,0.8-3,0.1-4.5c-0.5-1.2-0.8-2.4-0.9-3.7c-0.2-1.5-0.5-3.1-0.7-4.6C43.3,139.6,43.1,148.6,43.3,157.6L43.3,157.6z
	 M192.5,223.1c0.3,0,0.5,0.1,0.6,0.1c0.7-0.1,1.4,0.1,1.8-0.6c0.3-0.6-0.3-1-0.7-1.4c-1.9-2-4-3.9-6.3-5.5c-1.8-1.4-3.8-2.6-6.2-3.1
	c-1.2-0.2-1.3,0.6-1.6,1.3c-0.4,0.7-0.2,1.1,0.5,1.5c1.6,0.8,3.1,1.7,4.5,2.8c1.6,1.2,3.4,2.1,4.6,3.7
	C190.6,222.8,191.4,223.4,192.5,223.1L192.5,223.1z M228.6,130.6c0-0.6,0-1.1,0-1.6c0-0.4-0.1-0.8-0.5-0.9c-0.4-0.1-0.6,0.3-0.8,0.5
	c-1.1,1.2-2.1,2.6-3.8,3.4c-1.4,0.7-1.4,1,0,2c1.4,1,3.1,1.7,4.4,2.9c0.6,0.6,0.7-0.1,0.7-0.5C228.8,134.3,228.7,132.4,228.6,130.6
	L228.6,130.6z M233.2,130.3c0.9,0.1,1.2-0.3,0.9-1.2c-0.4-1.1-0.9-2.2-1.5-3.2c-0.8-1.3-1.7-2.7-2.5-4c-0.1-0.2-0.4-0.5-0.8-0.4
	c-0.3,0.1-0.1,0.4-0.1,0.7c-0.1,1.3-0.1,2.6-0.2,3.9C228.7,128.3,230.6,130.3,233.2,130.3L233.2,130.3z M51.4,109.3
	c0.3-0.4,0.4-0.5,0.5-0.6c0.3-0.7,0.5-1.4,1-1.9c1.9-2.1,1.2-3.7-0.7-5.4c-0.7-0.6-1-0.5-1.2,0.2C50.4,104.1,50.5,106.5,51.4,109.3
	L51.4,109.3z M42.9,117c0.1,0.4-0.3,1.1,0.4,1.5c0.8,0.4,1.3-0.3,1.9-0.6c0.3-0.1,0.5-0.3,0.8-0.5c0.6-0.3,0.6-0.7,0.3-1.2
	c-0.6-0.8-1.2-1.5-1.8-2.2c-0.4-0.5-0.7-0.4-1,0.1C43,115,42.9,115.9,42.9,117z M218,135.4c0-0.5-0.2-0.6-0.7-0.4
	c-0.9,0.3-1.8,0.5-2.7,0.8c-0.6,0.1-0.5,0.4-0.2,0.7c0.7,0.7,1.4,1.6,2.6,1.4c1.1-0.2,0.6-1.2,0.9-1.9
	C217.9,135.8,217.9,135.6,218,135.4L218,135.4z M156.9,14.4c2.4,0.5,4.6-0.2,6.7,0.3c0.1,0,0.4,0,0.4-0.2c0-0.3-0.3-0.4-0.5-0.6
	C161.8,12.8,159.2,12.9,156.9,14.4L156.9,14.4z"/>
<path d="M149.3,96.6c-0.5-0.7-0.3-1.2-0.2-1.7c0.4-2.4,1-4.7,1.7-7c0.3-0.9,0.4-1.8,0.6-2.7c1.6-7.2,3.3-14.3,4.8-21.5
	c0.3-1.2,0.4-2.3,1.6-3.1c0.2-0.1,0.4-0.4,0.6-0.3c-2.6,6.4-3.7,13.1-5,19.8c-0.4,2.4-1,4.8-1.7,7.2c-0.8,2.9-1.6,5.8-2.1,8.8
	C149.6,96.2,149.5,96.3,149.3,96.6z"/>
<path d="M150,100c2.9,8.6,6.7,16.9,10,25.3C158.3,124,149.7,102.5,150,100z"/>
<path d="M135.3,35.2c1-1.4,0-2.6-0.5-3.8c-1.1-2.9-2.1-5.8-2.9-8.7c-0.2-0.7-0.4-1.2-1.3-1.4c1.8-0.4,3.6-0.1,5,0.8
	c1.5,1,3.1,1.7,4.6,2.6c1.8,1.1,1.9,1.3,0.8,3c-1.5,2.5-3.3,4.9-5.1,7.1C135.8,35,135.7,35.2,135.3,35.2L135.3,35.2z"/>
<path d="M155.2,28.9c0.1-1.7,0.5-3.3,0.7-5c0.1-0.7,0.6-0.6,0.9-0.6c2.8-0.4,5.7-0.5,8.5,0.2c1.7,0.4,3.5,0.6,5,1.5
	c0.2,0.1,0.5,0.3,0.5,0.5c0.1,0.4-0.4,0.4-0.7,0.5c-2.2,0.7-4.4,1.4-6.5,2.2c-2.3,0.9-4.6,1.8-6.9,2.8c-1.6,0.7-1.6,0.7-1.6-0.9
	C155.2,29.6,155.2,29.2,155.2,28.9L155.2,28.9z M156.3,25c3-1.1,4.6-0.3,5.2,2.5c0.2,0.7,0.4,0.8,1.1,0.5c1.8-0.6,3.6-1.1,5.4-1.7
	c0.4-0.1,1-0.2,0.9-0.8c0-0.4-0.4-0.6-0.8-0.8c-3.3-1.1-6.7-1.6-10.2-1.3C157,23.5,156.5,24,156.3,25z M159.3,29.1
	c1.4,0,1.6-0.9,1.6-1.9c0-0.9-1.2-2.1-2.2-2.3c-0.9-0.2-2.1,0.6-2.4,1.5c-0.3,1-0.6,2.1-0.5,3.2c0,0.3-0.3,1,0.5,0.9
	c0.5-0.1,1.2-0.2,1.2-1c-0.1-0.5-0.1-1-0.1-1.5c-0.1-0.8,0.7-1.2,1.2-1.3c0.5-0.1,0.5,0.6,0.7,1.1C159.3,28.2,159,28.7,159.3,29.1
	L159.3,29.1z"/>
<path d="M191.9,31.9c-1.1,0.6-2,0.8-3-0.1c-0.9-0.8-2.2-0.8-3.4-0.9c-0.4,0-1.1,0.1-1.1-0.4c0-0.6,0.7-0.6,1.1-0.6
	c1.1-0.1,1.9,0.4,2.7,0.9C189.2,31.5,190.3,32.3,191.9,31.9L191.9,31.9z"/>
<path d="M211.2,85c-4.2-4.3-5.6-13.8-3.1-18.1C211.7,72.6,213.1,78.4,211.2,85z"/>
</symbol>


<symbol id="bulbasaur" viewBox="0 0 401.5 412.5" style="enable-background:new 0 0 401.5 412.5;">
	<title>Bulbasaur</title>
<path d="M73.5,378.2c-1.5,0.5-2.7,1-3.9,1.4c-2.7,0.8-3.7-0.2-3-2.8c0.5-1.9,1.2-3.8,1.8-5.6c1-2.6,0.6-5.1-0.3-7.7
	c-2.2-6.2-5.4-12.1-7.9-18.2c-2.7-6.9-5.2-14-7.6-21c-0.7-2-0.7-4.2-1.1-6.3c-1.6-9.1-2.7-18.2-2-27.4c0-0.2-0.1-0.5,0-0.8
	c0.2-3.8-0.5-6.6-4.7-8.7c-5-2.5-9.5-6.1-14.4-8.9c-3.8-2.1-7.6-4.5-10.4-8.1c-2-2.6-5.1-4.3-7.7-6.5c-4.1-3.5-8.1-7.2-10.1-12.5
	c-0.7-1.8-1.2-3.5-0.9-5.5c0.3-2.1,0.3-4.3,0.1-6.4c-0.6-7.2,1-14.2,2.2-21.2c1.2-6.6,3.3-13.1,4.8-19.7
	c2.4-10.3,6.9-19.8,11.1-29.3c3.5-7.9,7.4-15.9,13.5-22.3c0.9-1,1.1-2.1,1.2-3.5c0.4-7.7,1.9-15.1,5-22.2c2-4.4,3.7-9,5.9-13.3
	c2.3-4.3,5.1-8.3,7.9-12.3c0.7-1,2.2-2,3.4-2.1c3.9-0.2,7.9-1.2,11.8-0.4c5.6,1.2,11,2.8,16.2,5.4c3.7,1.9,7.6,3.5,11.2,5.7
	c1,0.6,2,0.4,3,0.2c6.6-1,13.1-1.9,19.7-1.9c7.7,0,15.5-0.2,23.2,1c0.9,0.1,1.5,0,1.6-1.1c0.9-10.3,7-17.8,13.7-24.8
	c7.4-7.7,16.9-12.5,26.8-16.4c3.8-1.5,7.5-3.3,11.3-4.8c1.7-0.7,3.6-0.7,5.2-1.4c10.3-4.3,21.2-3.6,32-3.9c4.5-0.1,9.1-0.6,13.5,0.1
	c4.7,0.7,9.4,0.8,14.1,0.6c7-0.2,14-1,21-2.2c4.4-0.8,8.7-1.8,13-3.1c6-1.8,10.4-5.7,14.1-10.6c2.9-3.7,6-7.2,7.1-12.1
	c0.4-1.9,2.7-2.1,4.7-0.5c4.1,3.2,7.4,6.9,8.6,12.2c0.7,3.2,1.1,3.2,3.3,0.9c0.2-0.2,0.3-0.4,0.5-0.6c5.3-4.4,10.9-8.1,18.1-8.2
	c3.4,0,4.1,1.3,2.5,4.3c-2.2,4.2-2.5,8.9-3.7,13.3c-0.3,1.2,0.5,1.4,1.5,1.5c2,0,3.9-0.2,5.9-0.7c2.9-0.8,5.8-1,8.7-0.3
	c1.6,0.4,2.7,0.8,1.7,3.1c-1.7,3.9-4.5,7.1-6,11.1c-3.2,9.1-5.1,18.2-2.1,27.9c2.1,6.8,4.8,13.3,7.6,19.9c2.5,5.7,6,10.7,8.6,16.2
	c2.3,4.8,5.4,9.2,7.9,14c3.7,7.4,6.7,15.1,9.9,22.8c1.5,3.5,2.1,7.4,3,11.1c0.4,1.6,0.5,3.1,1.5,4.5c1.2,1.6,0.5,3.7,0.7,5.5
	c0.5,4.8,2.6,9.4,2.5,14.3c0,2.1,0.4,4,0.8,6.1c0.1,0.7,0.2,1.5,0,2c-1.2,2.5-1.1,5.2-1.4,7.8c-0.7,6.8-2.1,13.3-3.7,19.9
	c-1,4.3-2.6,8.2-4.2,12.2c-1,2.4-3,4.1-4.4,6.2c-4.7,6.8-10.9,12-17.9,16.4c-1.6,1-3.5,1.5-4.4,3.6c-1,2.6,0.4,4.4,1.5,6.4
	c3.6,6.6,6.5,13.5,8.1,20.8c1.7,7.6,3.4,15.2,4,22.9c0.4,5.2,0.4,10.6-0.5,15.9c-0.7,4.4-1.2,8.8-1.8,13.2c-0.4,2.6-0.8,5-2.1,7.3
	c-1.2,2.1-1.4,4.6-2.1,6.9c-1.8,5.3-4.8,9.8-7.7,14.4c-2.2,3.5-4.7,6.7-7.1,10c-0.3,0.4-0.7,0.9-1.1,1c-4.6,1.9-9.1,3.8-13.8,5.5
	c-1.8,0.7-3.2-1-4.8-1.6c-2.9-1.1-5.8-2.2-8.6,0.2c-0.7,0.6-1.7,0.5-2.5,0.3c-1.3-0.3-2.5,0-3.8,0.3c-3.1,0.8-5,0-6.9-2.8
	c-0.4-0.5-0.8-0.9-1.5-1c-3.3-0.2-6.6-1.4-9.9,0.4c-1.2,0.7-2.6,0.6-3.8,0.4c-1.8-0.2-2.5-1.6-2-3.4c1.1-3.5-0.2-6.5-2.3-9
	c-2.9-3.4-5.7-7.1-6.8-11.3c-1.3-4.7-4.6-5.5-8.4-6.2c-0.3-0.1-0.7,0.1-1,0c-4-0.9-5.8,1.4-7.7,4.6c-4.4,7.4-9.9,13.9-16,20.1
	c-3.3,3.3-7.1,5.6-10.6,8.4c-1.2,0.9-2.8,1.6-4.2,1.8c-4.2,0.4-6.9,3.2-9.7,5.7c-2.6,2.3-4.8,1-7.9-1.5c-2.3-1.8-4.9-2.6-7.4-0.8
	c-2.8,2-6.3,2.3-9,4.4c-0.4,0.3-0.8,0.2-1.1-0.1c-2-1.8-4.6-3-5.4-6c-0.2-0.8-0.5-1.6-1.4-1.6c-3.6-0.1-7.1-1.5-10.7-0.1
	c-0.8,0.3-1.7,0.3-2.6,0.3c-2.2,0-3.5-1.8-3-3.9c0.6-2.7,1.3-5.1,3.1-7.5c1-1.3,0.6-3.8,0.8-5.7c0.1-0.6,0.1-1.2,0.1-1.8
	c0.5-4.4,0-5-4.3-5.9c-1.4-0.3-2.2,0.8-3.2,1.2c-1.4,0.6-2.6,2.2-4.2,1.2c-1.4-0.9-1-2.8-0.8-4.1c0.6-3.5-0.9-5.6-3.3-7.9
	c-3.9-3.7-7.3-7.8-8.7-13.1c-0.2-0.6-0.4-1.2-1.1-1.3c-4.3-0.8-8.2-3-12.4-4.1c-1.6-0.4-2.6-0.1-3.5,1.5c-4,7.8-8.6,15.4-12.8,23.1
	c-3.2,5.8-7.7,10.7-12.3,15.5c-0.9,0.9-2.1,1.3-3.2,1.6c-2.4,0.7-3.5,3.6-6.2,3.8c-4.2,0.3-7.8,2.6-11.9,3c-2.1,0.2-4.7,0.2-5.6-2.6
	c0-0.1-0.3-0.3-0.4-0.3c-3.5,0.3-6.8-1.8-10.4-0.2c-2.6,1.1-5.5,1.4-7.9,2.9c-0.8,0.5-2.1,0.8-2.9-0.1c-0.8-0.8-0.2-1.8,0.1-2.7
	C72.9,381.5,73.1,380,73.5,378.2L73.5,378.2z M292.2,275.5c1,0.3,0.8,1.3,0.9,2.1c0.2,1.8,0.4,3.6,0.5,5.4c0.3,5.7,1.3,11.3,1.1,17
	c0,0.8-0.6,2,0.4,2.3c1.1,0.4,1.5-1,1.9-1.6c2.6-4.8,5.7-9.2,9.2-13.3c2.6-3,5.3-5.9,8-8.8c0.5-0.5,1.2-1,1.8-0.4
	c0.6,0.6,0,1.1-0.5,1.5c-3.8,2.8-6.2,6.9-9.2,10.3c-6.4,7.2-10.3,15.8-12.7,25c-1.4,5.5-3.2,10.6-5.5,15.8c-0.6,1.3-1.1,2.7-1.1,4.2
	c0,4.8-0.1,9.5,0.9,14.3c0.7,3.7,2,7.1,3.4,10.5c2,4.8,4.2,9.5,8,13.3c0.7,0.8,1.8,1.8,3,0.3c0.9-1.1,1.9-0.5,3,0.1
	c3.2,1.8,5,4.9,7.4,7.4c1.9,1.9,3,1.7,4.1-0.9c0.2-0.5,0.2-1,0.3-1.5c0.8-3.5,3.3-4.9,6.6-3.7c3.3,1.2,5.4,3.8,6.9,6.6
	c0.8,1.4,1.3,2.5,3,2.6c1.9,0.1,1.7-1.6,2.3-2.6c3.1-5.3,7.8-6.4,11.8-2.8c0.7,0.6,1.2,1.4,1.8,2.2c1.5,2.2,3.2,2.3,5.2,0.6
	c2-1.7,3.1-4,4.7-5.9c5.9-7,9.7-14.8,12.2-23.5c2.5-8.9,3.7-18,4.4-27.2c0.9-11.8,0-23.5-4-34.8c-1.6-4.7-2.9-9.5-5.5-13.8
	c-2-3.3-3.9-6.7-5.6-10.2c-5-10.6-12-19.8-19.4-28.8c-2.3-2.8-5.2-5-7.6-7.7c-1.9-2.1-3.8-4.7-6.8-5.9c2.7,5.9,4.1,11.9,3.8,18.2
	c-0.1,1.3,0.1,2.7-0.2,4c-0.8,3.3-3.6,3.7-6.2,4.1c-8.5,1.3-17,0.4-25.4-0.8c-3.3-0.5-6-1.1-7.4-5.4c-1.8-5.2-5.2-10-7.8-15.1
	c-3.6-7.1-7.7-14-11.2-21.1c-2.7-5.6-2.7-6.8,2.5-9.6c2.8-1.5,5.8-3,9-3.8c1.2-0.3,1.4-0.6,0.4-1.6c-6.6-6.4-13.1-12.9-19.6-19.4
	c-1.9-1.9-3.8-3.7-5.4-5.8c-1.9-2.4-4.5-4.1-6.7-6.2c1.3,9,2.9,18.2,4,27.4c1,9.1,3,18.3,1.8,27.6c-1.2-6.8-2.3-13.5-3-20.4
	c-0.7-7-2-14-2.9-20.9c-0.7-5.3-1.9-10.5-2.5-15.8c-0.7-5.6-1.8-11.2-3-16.7c-0.8-3.9-1.8-7.7-2.6-11.6c-0.7-3.9-0.8-7.8-2-11.7
	c-2.1-6.3-2.8-13-5.8-19c-3.6-7.1-5.5-8-12.1-6.3c-6.6,1.6-13.4,2.8-19.9,5.1c-6.8,2.3-13.2,5.3-19.6,8.4c-1.6,0.8-3.3,1.5-5.4,2.5
	c0.6-1.8,1.6-2.5,2.5-3.4c0.9-0.8,0.6-1.3-0.3-1.7c-0.6-0.3-1.3-0.4-2-0.6c-8.2-1.6-16.6-2.7-24.9-3.9c-9.4-1.3-18.8-1.4-28.2-2
	c-5.6-0.3-11.3,0.3-16.9,0.6c-4.9,0.3-9.8,0.5-14.5,1.6c-8.2,1.8-15.7,5.4-23.3,8.5c-0.3,0.1-0.7,0.2-0.8-0.3
	c0.4-0.9,1.3-1.3,2.1-1.8c4.9-3.4,10.3-5.7,16.2-7.1c0.8-0.2,2-0.1,2.1-1c0.1-1.1-0.8-1.8-1.9-2.2c-4.8-2-9.5-4.3-14.4-6.1
	c-5.4-1.9-11.2-2.3-17-2.1c-2.2,0.1-4,1.2-4.9,2.9c-3,5.6-7.2,10.5-9.2,16.7c-1.1,3.4-2.8,6.7-4.1,10c-1.8,4.2-2.2,8.8-2.9,13.3
	c-0.1,0.7-0.4,1.7,0.4,2.1c0.9,0.5,1.3-0.6,1.8-1.1c3.5-3.8,7.3-7.3,11.3-10.5c0.7-0.5,1.2-1.6,2.5-0.9c-3.7,4-7.3,7.7-10.8,11.8
	c-3.4,4-7.3,7.5-10.3,11.8c-5.2,7.4-9.2,15.5-13.1,23.6c-3.6,7.7-6.1,15.8-8.1,24c-1.6,6.6-4.3,12.9-5,19.6
	c-0.7,6.8-1.9,13.6-2.3,20.4c-0.3,5-0.2,10.1,3,14.5c3,4.1,5.3,8.9,9.8,11.5c5,2.9,8.5,7.5,13.6,10.4c6.2,3.6,11.7,8.4,18,11.7
	c3.4,1.8,6.1,4.6,9.3,6.3c6.6,3.4,13,7.2,20.2,9.7c10.5,3.8,21.4,6,32.2,8.6c6.6,1.6,13.4,1.9,20.2,1.4c7.5-0.5,14.9-0.8,22.4-1.5
	c1.6-0.2,2.6-1.8,4.3-1.5c3.1,0.5,6.2-0.6,9.2-1c8-1.2,15.9-3.2,23.6-5.5c5.8-1.7,11.2-4.3,16.7-6.4c8.2-3.1,15.2-8.6,22.8-12.9
	c2.3-1.3,4.8-3.3,6-5.6c1.9-3.8,5.3-6.7,6.6-10.8c0.1-0.5,0.5-1.2,1.3-0.8c0.7,0.4,0.4,1,0.3,1.6c-0.9,4-2.6,7.8-5.8,10.5
	c-5.5,4.7-11,9.5-17,13.4c-8.8,5.7-18.6,9.5-28.7,12.5c-6.1,1.8-12.3,3.2-18.5,4.5c-5.1,1.1-9.8,3.7-15.2,3.7
	c-1.9,0-3.9-0.2-5.6,0.4c-6.2,1.8-12.6,1.6-18.9,2.2c-4.5,0.4-9.1-0.2-13.6-0.7c-7.1-0.7-14.2-1.4-21.1-3.3
	c-4.9-1.4-9.6-3.2-14.5-4.5c-9.9-2.6-19.1-6.7-27.9-12c-1.5-0.9-2.8-2.5-4.6-2.7c-0.9,7.9,0.2,15.4,0.9,23c0.8,7.6,2.7,15,5.4,22.3
	c1.5-4.1,4.8-6.8,7.4-9.8c4.6-5.3,11.1-7.9,17.5-10.4c3.2-1.3,4-0.9,5.3,2.5c0.2,0.5,0.3,1,0.5,1.5c2.1,5.6,2.2,11.7,4,17.3
	c0.4,1.3,0.1,2.7-0.5,4c-2.1,4.7-5,8.8-8.2,12.8c-1.6,2-3.7,2.7-6.1,2.6c-4.2-0.3-8.3-0.6-12.5-1.6c0.3,3.5,1.9,6.2,3.3,9
	c2,4.1,4.3,8,6.6,11.9c0.8,1.3,1.6,2,2.6,0c0.6-1.2,1.6-2.4,3.1-2.3c3.3,0.1,9.6,5.9,10.3,9.2c0.2,1-0.3,2.2,1.7,2.4
	c1.8,0.2,2.5-0.5,3.1-1.8c0.9-2.1,2-4,3.7-5.5c2.1-2,3.5-2,5.6,0c1.5,1.5,2.6,3.2,3.2,5.2c0.2,0.6,0.2,1.7,1.4,1.5
	c2.9-0.6,5.7-1.1,8.2-3c3.4-2.7,6.2-5.9,8.4-9.5c3.2-5.1,6.2-10.3,9.3-15.5c2.9-4.7,6.4-9,8.2-14.3c0.4-1.1,0.4-1.7-0.6-2.3
	c-7.5-4.6-15.1-8.8-22.2-14c-2.2-1.6-4.4-3-6.2-5.7c1.4-0.1,2,0.3,2.6,0.8c3.7,3.3,8.1,5.8,12.1,8.6c3.8,2.6,8.3,3.9,12.2,6.1
	c6.1,3.4,12.7,5.6,19.4,7.4c3.4,0.9,7,1.2,10.4,1.9c6,1.2,12,2.3,18,3.5c2,0.4,3.3,0.1,3.7-2.3c1.2-6.2,3.8-12.1,5.7-18.1
	c2.7-8.5,6.5-16.8,11.5-24.3c1.1-1.7,2.6-3.1,3.9-4.6c0.2,0.1,0.4,0.2,0.6,0.4c-5.9,11.5-13.1,22.5-15.5,35.5
	c0.9,0.1,1.3-0.5,1.7-0.8c6.8-4.8,13.9-8.8,21.9-10.9c3-0.8,4.9,0.5,5,3.6c0.1,4.9-0.7,9.6-2.3,14.2c-1.8,5.3-2.9,10.7-4.6,16.1
	c-1.3,4.3-2,9-6.4,11.6c-2.4,1.4-5.2,1.8-7.6,3c-4.9,2.4-8.6,0.8-12.1-2.9c-1.1-1.1-1.8-2.6-3.2-3.5c-1.9,5-2.1,10.2-3,15.2
	c-0.1,0.5-0.2,1.1,0.3,1.4c3.8,2,5.5,5.8,7.6,9.2c1.3,2.2,3.5,2.3,4.8,0.3c1.4-2.2,3.3-3.7,5.3-5.2c1.6-1.2,3.5-1.4,5.1-0.1
	c2.6,1.9,4.5,4.4,6.1,7.2c1.4,2.3,3.3,2.4,5.1,0.5c1.1-1.3,2.3-2.6,3.6-3.7c3.6-3,6.1-2.8,8,1.5c1.4,3.1,3,2.6,5.3,1.9
	c0.8-0.3,1.6-0.6,2.3-1.1c6.1-3.6,10.5-9.1,15.7-13.7c3.7-3.3,6.9-7.3,9.4-11.5c5.2-8.5,10.4-17,14.6-26c2.7-5.6,5.8-11,6.9-17.4
	c1.1-6.4,2.8-12.8,3-19.3C292.7,291.6,290.9,283.5,292.2,275.5L292.2,275.5z M361.4,187.3c1.2-4.2,0.6-8.4,0.6-12.6
	c0.1-7.9-0.8-15.6-3-23.2c-3-10.2-6.5-20.3-10.7-30.1c-1.7-3.9-2.9-8-3.5-12.3c-0.7-4.8-3.1-9.1-4.1-13.8c-1.8-7.9-2.4-15.9-0.9-24
	c1.2-6.7,2-13.4,4.2-19.9c0.4-1.1,1.1-2.7,0.7-3.2c-1.9-2.1-0.5-3.9,0.1-5.7c2-5.6,2.4-11.6,5-17c1.2-2.5-0.3-2.5-1.9-2.8
	c-0.5-0.1-1.2,0.2-1.7,0.4c-3.6,1.1-6.5,3.5-9.5,5.6c-2.3,1.6-4.6,3.3-5.7,6.5c-3.1,9.4-10.3,15.4-18.5,20.2
	c-4.6,2.8-9.9,3.9-15,5.3c-0.6,0.2-1.3,0.3-2.1-0.5c1.9-0.7,3.6-1.3,5.3-1.8c8.5-2.3,15.8-6.6,21.6-13.2c3.3-3.6,6.8-7.3,4.3-13.3
	c-1.9-4.5-3.1-9.3-7.1-12.6c-1.7-1.4-2.5-1.3-3.1,0.7c-0.7,2.4-1.6,4.8-3.3,6.6c-3.3,3.6-5.3,8.1-9.5,11c-7.9,5.5-17,6.9-26,8.5
	c-9.4,1.7-18.9,1.9-28.5,1.2c-9.7-0.6-19.4-0.6-29.1,0.2c-7.8,0.6-15.6,1.4-23,4.1c-1.9,0.7-3.5,2-5.6,2.5
	c-6.3,1.8-12.2,4.7-17.9,7.8c-8.2,4.5-14.9,10.7-20.3,18.3c-3.1,4.4-5.9,9.1-7.3,14.4c-0.4,1.6-0.1,2.5,1.7,2.6
	c2.7,0.2,5.3,0.4,8,0.8c8.5,1.2,17.1,1.8,25.4,4.3c2.9,0.9,6.1,1.4,9.3-0.2c8.2-4.1,16.9-7.1,25.9-9.4c0.7-0.2,1.3-0.5,1.6-1.2
	c1.8-4.3,4.9-7.6,8-11c5.5-5.9,12.5-9.3,20-11.5c6.4-1.9,13.1-2.9,19.7-3.7c1.8-0.2,3.7-1.1,5.6-0.3c-3.4,1.2-6.9,2.4-10.5,2.9
	c-7.9,0.9-15.4,3.3-22.6,6.7c-6.5,3-11.2,8.4-16,13.6c-0.6,0.6-1.3,1.4-0.8,2.3c0.4,0.8,1.4,0.2,2.2,0.2c0.9,0,1.7-0.2,2.6-0.3
	c5.7-0.8,10.1,1.6,12.4,6.7c1.8,3.9,3.1,8,4.1,12.2c2.9,13.3,5.8,26.5,8.8,39.8c0.4,1.9,0.3,4,1.4,5.7c3.5,5.5,8.1,10.3,12.5,15
	c6.4,6.8,13.4,13,20.3,19.3c11.2,10.3,23.8,18.7,36.4,27.1c1,0.6,2,1,3.2,0.9c3.9-0.2,7.5-1.7,11.1-3c6.5-2.4,11.5-6.9,16.3-11.7
	c0.8-0.8,1.4-2,3.3-2.6c-1.4,2.8-3.5,4.4-5,6.4c-2.3,3.2-5.4,5.6-8.8,7.5c-4,2.3-8.5,3.7-13,5c-0.6,0.2-1.6,0.1-1.7,0.9
	c-0.1,0.8,0.8,1.1,1.3,1.5c5.2,3.1,8.5,8.1,13,12.1c5.1,4.5,9,10.2,12.9,16c4,5.9,4,5.9,10.9,4.3c0.7-0.1,1.3-0.5,2-0.7
	c6-1.6,10.3-5.7,14.6-9.8c3.5-3.3,6.6-7,9-11.2c1.9-3.2,2.2-6.9,3.1-10.3c3-10.7,4-21.6,4.1-32.7c0-5.2-1.9-9.9-2.8-14.9
	c-1.5-8.1-3.4-16.1-7.1-23.6c-1.1-2.2-2-4.6-2.7-6.9c-1.9-6.7-5.6-12.5-8.8-18.6c-1.8-3.6-4.3-6.7-6.5-10.1
	c-2.6-4.1-4.3-8.8-6.6-13.2c-3.2-6-5.4-12.2-7.1-18.8c-2.5-10-2.9-19.9,2-29.4c1.7-3.4,3.4-6.8,5.1-10.1c0.9-1.7,0.6-2.4-1.5-2.7
	c-4-0.5-7.7,1.5-11.7,1.5c-0.9,0-1.7,0.8-2.1,1.8c-0.6,1.4-1.2,2.9-1.7,4.3c-2.4,7.3-3.8,14.8-4.6,22.4c-0.5,4.9-1.5,9.8-0.9,14.9
	c1.5,11.4,5.2,22.2,8.3,33.2c1.1,4.1,3.6,7.8,4.7,12c1.8,6.9,5.2,13.2,7,20.1c1.8,7,3.7,13.9,3.8,21.2
	C365.1,177.8,363.9,182.6,361.4,187.3L361.4,187.3z M226.4,322.7c0.1-2.5-0.4-2.9-2.9-2.2c-7.4,2.3-14.1,6-20.3,10.4
	c-4.3,3.1-7,7.3-7.3,12.9c-0.2,3.4-0.8,6.9-2.2,10c-1.1,2.5-0.6,4.5,0.8,6.5c1.1,1.5,2.4,3,3.9,4.1c1.6,1.1,3.3,2.4,5.5,1.7
	c2.8-1,5.7-2,8.4-3.3c3.2-1.6,5.4-4.2,6.4-7.9c1.4-4.7,2.3-9.5,3.7-14.2C224.3,334.8,226.2,328.9,226.4,322.7L226.4,322.7z
	 M76.5,349.9c2.7,0.4,4.8-0.7,6.2-2.9c2.7-4.2,5.3-8.4,7.9-12.6c0.4-0.6,0.5-1.4,0.3-2c-1.8-5.6-2.1-11.7-4-17.3
	c-0.7-2.1-1.9-2.5-4-1.9c-9.5,3-16.7,8.8-21.9,17.2c-1.5,2.4-2.3,4.9-0.7,7.7c0.9,1.5,1.3,3.4,1.8,5.1c1,3.3,2.9,5.5,6.6,5.9
	C71.4,349.4,73.9,349.6,76.5,349.9L76.5,349.9z M191.7,350.2c-0.4-1.9-0.5-4-3.6-4c-2.6,0-5.3-0.4-7.9-0.8
	c-4.4-0.7-8.9-0.7-13.1-2.5c-0.5-0.2-1.1-0.9-1.6-0.4c-0.7,0.6,0,1.3,0.2,1.8c4.2,9.6,11.9,15.5,20.8,20.2c1.6,0.9,2,0,2.4-1.5
	c0.9-3.7,0.9-7.6,2.4-11.2C191.6,351.4,191.6,350.8,191.7,350.2L191.7,350.2z M301.3,206.4c0,5.1,1.5,9.5,3.2,13.9
	c1,2.4,2.8,4.1,5.6,4.4c1.2,0.1,2.5,0.2,3.2,1.3c1.2,1.8,2.9,2.2,4.8,2.7c2.6,0.7,5.1,1.6,7.6,2.5c0.5,0.2,1.1,0.8,1.7,0.3
	c0.7-0.6,0.2-1.3-0.1-1.9c-2.1-4.8-5.3-8.8-9.5-11.9C312.4,214,307,210.3,301.3,206.4L301.3,206.4z M209.7,382.7
	c-1.8,0-6.4,4.2-6.6,6c0,0.2-0.1,0.5,0,0.8c0.9,1.7,1.7,3.3,2.7,4.9c0.5,0.8,1.6,1.8,2.3,1.4c2.6-1.4,5.7-1.5,7.9-3.7
	c0.9-0.9,1.1-1.9,0.3-2.7c-1.8-1.8-2.8-4.1-4.9-5.7C210.9,383.2,210.4,382.7,209.7,382.7L209.7,382.7z M75.9,383
	c0.8-0.1,1.7-0.2,2.3-0.5c2.5-1,4.9-2.2,7.7-2.5c1.3-0.1,3.8-1.1,2.3-3.2c-1.5-2.1-3.4-4.1-5.7-5.6c-0.8-0.5-1.8-1.1-2.8,0.1
	c-2.4,3.1-4.1,6.5-5,10.3C74.5,382.6,74.9,383,75.9,383L75.9,383z M321.1,386.5c2.7,0.1,5-1.3,7.3-2.3c0.6-0.3,0.6-0.7,0.2-1.2
	c-1.3-2.2-2.8-4.3-4.7-6c-1.8-1.6-3.6-1.1-4.3,1.2c-0.5,1.7-0.9,3.5-1.1,5.3C318.3,385.2,319.1,386.5,321.1,386.5L321.1,386.5z
	 M100.2,384.1c2.4-0.1,5-0.6,6.7-2.2c1.5-1.4-1.2-3-1-4.7c0-0.2,0-0.4-0.1-0.5c-0.9-1.4-1.9-3-3.4-3.2c-1.4-0.2-2.4,1.4-3,2.8
	c-0.7,1.6-1.3,3.1-1.8,4.8C97,383.3,97.8,384.2,100.2,384.1L100.2,384.1z M380.3,248.6c-0.6-0.1-0.9-0.2-1-0.1
	c-5.2,4.3-11.4,6.5-17.9,8c-0.6,0.1-1.7,0.2-1.5,1.1c0.3,1,0.7,2.3,1.9,2.6c0.9,0.2,1.9,0.4,3-0.1
	C370.8,257.7,375.7,253.7,380.3,248.6L380.3,248.6z M284.2,340.2c-1.7,3-3.1,6-4.9,8.8c-2.4,3.7-2.3,3.8,2.2,4.4
	c4.5,0.6,4.6,0.6,3.9-3.9C284.9,346.3,284.7,343.3,284.2,340.2L284.2,340.2z M342.1,386.8c2.3,0,6.1-1.8,6.2-2.9
	c0.1-1.5-4-5.8-5.6-5.8c-1.8,0-4.7,3.4-4.6,5.5C338.1,385.4,339.8,386.8,342.1,386.8L342.1,386.8z M228.9,394.6c1,0,4.6-2.3,5-3.2
	c0.6-1.4-0.1-2.5-0.8-3.6c-2.2-3.4-3.6-3.5-6.2-0.2c-0.3,0.3-0.5,0.7-0.8,1c-0.7,0.9-1.7,1.7-0.9,3.1
	C226.1,393.2,227.4,394.1,228.9,394.6L228.9,394.6z M287,195.5c1.3,2.7,0.9,5.4-1.3,7.6c-1.3,1.3-2.6,2.5-4.1,3.4
	c-1,0.6-1.5,1.9-0.7,2.9c0.8,1,1.9,0.5,2.3-0.4c0.9-2.3,3.1-3.1,4.9-4.3c1.3-0.9,2.6-1.7,3.6-2.9c1-1.1,1.2-2-0.2-2.9
	C289.9,197.9,288.5,196.6,287,195.5L287,195.5z M195.1,387.1c-0.8-3-3.6-4.5-4.9-7.1c-0.4-0.7-1.3-0.9-1.7,0.3c-0.6,1.7-1.4,3.3-2,5
	c-0.7,2.2,0.6,3.7,2.9,3.3C191.2,388.1,193.1,387.6,195.1,387.1L195.1,387.1z M300.9,380.2c-0.3,1.9,0.2,2.8,2,2.9
	c1.7,0,6.3-1.7,6.4-2.6c0.1-1-4.6-6.2-5.7-5.9C300.6,375.5,301.5,378.4,300.9,380.2z M68.5,374.8c-0.1,2,1.1,2.9,2.7,2.3
	c0.7-0.2,1.3-0.7,2.1-0.9c1.5-0.3,1.8-1.2,0.8-2.4c-1.2-1.4-2.1-2.9-2.4-4.7c-0.1-0.5-0.3-0.9-0.8-0.8c-0.2,0-0.6,0.4-0.6,0.7
	C69.5,371.1,69,373.2,68.5,374.8L68.5,374.8z M328.2,242.8c-3.3,1.6-5.8,4.7-9.6,5.8C325,248.6,328.4,246.5,328.2,242.8z"/>
<path d="M167.1,241.9c-4.1,0.3-8.2,0.6-12.3-0.2c-2.9-0.6-4.2-2.4-4-6c0.5-8,0.5-16.1,2-24.1c1.2-6.3,3.1-12.6,6.6-17.8
	c2.5-3.8,4.7-7.9,7.6-11.5c2.3-2.8,5.4-4.8,7.8-7.5c2.8-3,6.3-4.9,9.7-7.1c3.5-2.3,8-1.3,11.4,1c2.4,1.7,4.5,3.7,7.2,5.2
	c2.9,1.6,4.3,4.7,5.6,7.5c2.6,5.4,5.1,10.8,7.1,16.4c1.9,5.6,2.2,11.6,3,17.5c0.6,4.7-0.4,9.4,0,14.1c0.2,2.6-1.7,4.4-4.9,5.5
	c-10.6,3.8-21.6,5.4-32.8,6.4c-2.8,0.2-5.6,0.8-8.4,0.2c2.2-0.6,4.3-1.3,6.6-1.3c0.6,0,1.4,0,1.6-0.6c0.3-0.7-0.5-1-0.9-1.4
	c-2-2.6-3.4-5.7-3.7-8.9c-0.8-7.1-2.6-14.3-1.7-21.5c1.1-8.5,0.9-17.2,4.6-25.2c1.6-3.6,2.9-7.4,5.7-10.3c0.5-0.5,1.1-1.2,0.6-1.8
	c-0.5-0.6-1.3-0.2-1.9,0.2c-4.3,3-9.1,5.5-12.3,9.9c-0.1,0.1-0.2,0.3-0.3,0.4c-6,4.2-7.7,11.3-11.4,17c-2.9,4.4-3.4,10-4.8,15.1
	c-1.9,6.9-2.1,14-1.9,21.2c0.1,2.8,2.1,4.4,4.6,5.5C160.8,241.2,164.2,240.1,167.1,241.9L167.1,241.9z M190.4,199.1
	c0,3.2-0.1,6.1,0,8.9c0.2,4.3,1.2,8.4,3.8,11.9c2.7,3.6,5.2,3.3,7-0.8c3.1-6.9,3.1-14,2.1-21.3c-0.5-3.5-1.8-6.6-4.1-9.3
	c-0.8-0.9-1.9-1.7-2.9-1c-3.1,2.4-2.4-0.2-2.6-1.8c-0.2-2.3-2.4-5-4.6-5.4c-2.4-0.5-4.5,0.4-5.9,2.4c-2.8,4.1-3.9,8.9-3.1,13.8
	c0.9,5.9,4.9,7.1,9.3,3.2C189.6,199.6,189.9,199.5,190.4,199.1L190.4,199.1z M206,223c-10.1,0.1-17.3,3.6-23.6,9.5
	c-1.8,1.7-1.4,3.3,0.2,4.6c1.6,1.3,3.5,2.3,5.7,1.4c1-0.4,2-0.5,3-0.7c6.1-0.8,12.1-1.7,17.9-3.8c2.8-1.1,5.7-2.2,7.6-4.7
	c0.8-1.1,1-4.5,0.1-4.6C212.8,224.5,208.9,222.5,206,223L206,223z"/>
<path d="M11.1,238.4c1.4,0.6,2.3,1.2,2.1,2.6c-0.3,1.6,0.7,2.4,1.7,3.2c5.6,4.9,12,8.3,18.7,11.5c7.8,3.7,16.1,5.7,24.2,8.5
	c2.8,1,5.5,2.3,8.4,2.9c4.2,0.9,8.5,1.6,12.8,2.2c8,1.1,15.9,0.5,23.9,0.5c13,0,25.9-1.3,38.9-1.8c6.6-0.3,13.2-0.6,19.7-1.6
	c6.1-0.9,12.1-2.4,18.2-3.4c4.8-0.7,9.3-2.3,14-3.3c4.4-0.9,8.6-3.1,12.8-4.7c1.2-0.5,2.4-1,3.6-1.3c4.8-1.4,7.6-4.8,9.5-9.1
	c0.3-0.6,0.1-1.8,1.2-1.3c0.8,0.4,0.7,1.2,0.5,2.2c-1.2,6.4-5.8,9.1-11.5,10.8c-3.6,1.1-7.1,2.3-10.5,3.7c-2.3,1-4.4,2.4-5.4,4.9
	c-1.7,3.9-4.6,6.2-9,6.4c-0.8,0-1.2,0.5-1.8,1c-6.3,5.2-13.6,8.9-20.3,13.5c-2.8,1.9-6.1,3.2-9.4,4.1c-6.7,1.8-13.3,4.1-20.2,5.5
	c-2.2,0.5-4.5,0.5-6.7,0.5c-5.8,0.1-11.6,0.6-17.5,0.1c-10-0.9-18.9-4.8-28.3-7.6c-2.6-0.8-5-2.6-7.4-4c-6.2-3.6-12.6-6.6-18.9-10.1
	c-3.2-1.8-5.9-4.2-9.2-5.8c-3.8-1.8-6.3-4.5-8-8.3c-0.5-1.1-1.9-1.5-3-1.9c-7.4-2.5-14-6.5-20.5-10.8
	C10.8,245.4,11.1,241.9,11.1,238.4L11.1,238.4z M122.4,293.5c2.6,0.4,5.1-0.1,7.5-0.4c9.9-1.3,19.3-3.9,28.3-8.2
	c1.9-0.9,3.1-2.7,5-3.3c5.5-1.8,9.9-5.7,15-8.2c1.8-0.9,3.3-3.9,2.6-5.1c-1.1-1.9-2.4-3.4-4.9-1.9c-0.4,0.2-1,0.3-1.5,0.4
	c-9.8,1.7-19.6,2.7-29.4,3.5c-14.4,1.1-28.8,2-43.3,2.2c-10.2,0.1-20.3-0.1-30.4-1.6c-2.5-0.4-4.7-1.8-7.3-1.6c-2,0.2-3.7,1.2-4.3,3
	c-0.6,1.7,0.2,3.5,2.2,4c2,0.5,3.4,1.9,5.3,2.6c6.2,2.6,12.2,5.7,18.4,8.4c6.1,2.6,12.2,4.6,18.7,5.6
	C110.2,293.5,116.3,294.2,122.4,293.5L122.4,293.5z M49.2,263.7c-0.7,0.1-1.1,0.5-1.2,1.1c-0.2,1.1-0.1,2.3,0.9,3
	c1.8,1.2,3.6,2.3,5.4,3.5c1.6,1.1,2.6,1,2.9-1.1c0.2-1.1,1.8-2.4,0.6-3.2C55.2,265.4,52.1,264.7,49.2,263.7L49.2,263.7z
	 M185.8,269.1c2.4-0.1,4.5-2.8,4.3-5c-0.1-1.1-0.3-2.1-2-1.3c-1.6,0.7-3.3,1-5,1.2c-1.4,0.2-1.6,0.9-1.2,1.9
	C182.7,267.8,184.1,268.9,185.8,269.1L185.8,269.1z"/>
<path d="M14.8,223.6c1.2,0.6,2.2,1.1,2.5,2c0.5,1.8,1.9,2.4,3.4,2.2c2.2-0.2,3.4,1.8,5.3,2.1c0.6,0.1,1.1,0.7,1.7,0.3
	c0.7-0.5,0.2-1.2,0.1-1.9c-1.6-7.5-2.3-15.1-2.2-22.8c0.1-10.4,2.9-20.2,7.5-29.5c1-2.1,2.3-4.2,4.6-5.4c1.8-1,2.2-3.6,0.8-5.6
	c-0.8-1.2-3.8-1.4-5.2-0.4c-4.8,3.1-7.6,7.8-10.5,12.5c-2.7,4.5-5.1,9.1-5.6,14.4c-0.2,2.5-1.6,4.9-2.3,7.3
	c-1.4,4.9-1.6,9.8-1.4,14.8c0,0.6,0.1,1.2,0,1.8c-0.1,0.6-0.1,1.4-0.9,1.2c-0.6-0.1-0.5-0.8-0.5-1.3c-0.3-6.3,0.2-12.6,1.4-18.8
	c1.9-9.9,6.4-18.6,12.4-26.6c2.4-3.2,5.1-5.7,8.4-7.8c2.8-1.7,4.2-1.3,5.7,1.5c1.9,3.5,2.3,7.4,2.6,11.2c0.5,6.8,1,13.5,1.4,20.3
	c0.6,10.7-0.9,21.2-1.3,31.9c-0.1,1.7-0.6,3.5-0.8,5.2c-0.2,2-1.2,3.1-3.4,2.9c-3.5-0.3-6.8-1.6-10.2-2.5c-4.1-1.1-7.1-4.3-11.2-5.4
	C15.2,227.2,15,225.5,14.8,223.6L14.8,223.6z M36.8,219.7c-2.6-2-5-1.1-7.1,0.3c-1.6,1.2-0.4,3.1-0.2,4.8c0.1,0.4,0.2,0.8,0.2,1.3
	c0.7,5.1,1.6,6.1,6.5,7.1c2.3,0.5,3.4-0.2,3.7-2.5c0.7-5.5,1.6-11.1,2-16.6c0.5-7.7,0.7-15.4,0-23.1c-0.1-1.5,1.1-3.9-2-4.1
	c-0.1,0-0.2-0.6-0.2-0.9c-0.1-2.2-1.4-3.7-3.3-4.2c-2.2-0.5-3.7,1.1-4.8,2.8c-2.1,3.2-2.3,7-2.4,10.6c-0.1,2.6,2.4,4.2,4.5,3.4
	c2.4-0.9,2.7-0.8,2.3,1.8C35,206.8,35,213.2,36.8,219.7L36.8,219.7z"/>
<path d="M340.8,305.2c0.3,2.5,0.8,4.9,0.8,7.4c0,5.7,1.4,11.4,0.9,17.1c-0.3,3.2-2,5.2-4.9,6.3c-2,0.8-4,1.5-5.9,2.6
	c-2.2,1.2-4.2,1-6.1-0.2c-6.4-4.2-12.1-9-16.1-15.9c-1.8-3-2.4-6.7-5.3-9.2c-1.1-0.9,0.5-5.5,2.1-7c2.3-2.1,4.8-4.2,7-6.4
	c3.1-3.2,7-5.3,10.7-7.6c3.2-2,6.1-4.5,9.9-5.4c2.8-0.7,3.7-0.4,4.8,2.4c1.6,3.8,1.5,7.9,2.1,11.9c0.2,1.4,0.2,2.7,0.3,4.1
	C340.8,305.2,340.8,305.2,340.8,305.2L340.8,305.2z M338.4,300.8c-0.3-3.7-0.9-6.8-1.7-9.9c-0.5-1.8-1.1-2-2.9-1.7
	c-3.5,0.7-6.1,3.1-9.1,4.7c-3.9,2.1-7.9,4.2-10.8,7.8c-1.3,1.6-2.8,3.1-4.4,4.4c-3.5,2.9-3.6,3.5-2.3,7.6c1.9,6.1,6.1,10.8,9.8,15.8
	c0.6,0.8,1.8,2,2.8,1c2.1-1.9,4.8-3.3,5.8-6.4c0.7-2.1,0.3-4.6,1.8-6.4c2.3-2.8,4.3-5.8,6.7-8.5
	C336.4,306.6,337.4,303.3,338.4,300.8L338.4,300.8z"/>
<path d="M153.7,121.3c-0.3,1.5-1.1,3.1-2.1,4.4c-3.9,5.1-7.8,10.1-12.9,14c-3.1,2.4-6.6,4.4-9.6,7c-6.4,5.7-14.4,8.6-21.5,12.9
	c-1.6,1-3,0.4-4.1-0.4c-4-2.8-8.7-4.5-12-8.3c-2.5-2.9-5.1-5.7-7.4-8.8c-0.9-1.2-0.3-2.8,1.2-3.6c2.7-1.6,5.5-2.9,8-4.7
	c5.9-4.1,12.2-7.1,19-9.4c9.8-3.3,19.7-5.9,30.2-6c2.7,0,5.3-0.7,8-0.4C152.5,118.2,153.4,119.2,153.7,121.3L153.7,121.3z
	 M151.6,121.3c-0.1-0.9-0.9-0.7-1.4-0.8c-2.6-0.7-5.3,0-7.9,0c-7.9,0.1-15.6,1.4-23.1,3.5c-8.4,2.3-16.4,5.8-23.7,10.6
	c-2.7,1.8-5.7,3.1-8.3,5.1c-1.5,1.1-1.2,1.4-0.2,2.4c1.5,1.5,3.2,3,4.3,4.8c2.8,4.4,6.8,7.2,11.3,9.6c1.3,0.7,2.6,1.8,4.3,1.1
	c3.8-1.5,7.8-3,11.2-5.2c5.2-3.3,10-7.2,15.1-10.6c6.6-4.4,11.9-9.9,16.3-16.3C150.3,124.1,150.9,122.6,151.6,121.3L151.6,121.3z"/>
<path d="M115.4,182.7c-0.4,7.5-1.1,14.9-2.2,22.3c-0.3,2.1-0.6,4.2-0.8,6.4c-0.3,2.6-0.9,3-3.4,2.6c-4.4-0.7-7.7-3.3-11-5.9
	c-1.8-1.5-3.5-3-5.5-4.3c-1.6-1-2.6-2.5-3.4-4.1c-0.8-1.4-0.5-2.5,0.9-3.5c3.1-2.3,5.3-5.5,7.9-8.3c3.5-3.8,7.2-7.4,12.2-9.3
	C113.5,177.4,115.6,179.8,115.4,182.7L115.4,182.7z M112.7,185.3c0-5.2-0.7-5.7-4.2-3.5c-2.9,1.8-5.8,3.8-8,6.3
	c-2.5,2.8-5.1,5.5-7.6,8.2c-1.2,1.2-1.6,2.3-0.4,3.8c4.1,5,9.1,8.8,15,11.4c1.8,0.8,3.2-0.2,3.3-2.3c0.1-1.2,0.1-2.4,0.2-3.6
	C111.6,198.5,112.2,191.4,112.7,185.3L112.7,185.3z"/>
<path d="M249.3,316.3c0.1,2.5-0.1,4.4-2.2,5.3c-2.3,0.9-4.5,2.2-7.1,0.8c-4.5-2.4-6.4-6.9-8.8-10.9c-0.9-1.5,0.5-3.5,1.7-4.5
	c2.6-1.9,4.9-4.2,8.1-5.4c4.2-1.5,5.4-1,6.1,3C247.8,308.7,249.1,312.7,249.3,316.3L249.3,316.3z M247.4,316.2
	c-0.1-4.5-1.4-8.5-2.3-12.6c-0.3-1.2-1.2-1.3-2.2-0.9c-3.1,1.5-5.9,3.4-8.5,5.6c-0.8,0.7-1.8,2.1-1.1,3.2c1.8,3,3.1,6.2,6.1,8.5
	c2.2,1.6,3.8,0.6,5.7-0.1C246.9,319.3,247.7,317.9,247.4,316.2L247.4,316.2z"/>
<path d="M75.5,164.9c-0.1,2.1-0.2,4.1-0.3,6.2c-0.3,3.8-2.4,5.9-6.2,5.9c-1,0-2.1,1.2-2.9,0.1c-0.7-0.9-1-2.2-1.2-3.4
	c-0.4-2.7-0.7-5.5-0.9-8.2c-0.3-3.4,0.4-4.6,3.5-6.1c2.1-1,4.3-1.8,6.4-2.7c1.9-0.8,1.9,0.3,1.9,1.5
	C75.8,160.5,75.6,162.7,75.5,164.9C75.5,164.9,75.5,164.9,75.5,164.9L75.5,164.9z M73.8,164.8c0-1.5,0-2.9,0-4.4
	c0-0.6,0-1.2-0.7-1.5c-1.5-0.5-6.6,2.8-6.6,4.4c0.1,3.5,0.3,7,0.6,10.6c0,0.5,0.1,1.2,0.8,1.4c2.1,0.5,5.1-1.7,5.5-3.8
	C73.9,169.2,73.8,167,73.8,164.8L73.8,164.8z"/>
<path d="M141.4,196.7c-0.9-4.3-0.4-8.3,1.5-12.3c3.8-8.1,9.4-16.7,12.2-17.9c-3.2,5-6.4,9.5-8.8,14.5
	C143.9,186,143.3,191.5,141.4,196.7L141.4,196.7z"/>
<path d="M53.1,166.6c1.2,8.1,0.3,16.3-0.3,24.4C51.8,182.9,51.9,174.8,53.1,166.6z"/>
<path d="M206.5,296.8c-2.6,4.4-2,9.6-3.8,14.8C201.1,306.7,202.6,301.1,206.5,296.8z"/>
	</symbol>

	<symbol id="ivysaur" viewBox="0 0 475 475" style="enable-background:new 0 0 475 475;">
		<title>Ivysaur</title>
<path d="M66.3,302.5c0.4-1.8,1.7-2.8,3.1-3.7c14.2-8.9,27.8-18.7,43.3-25.5c7.4-3.2,14.9-6.3,23.7-10c-6.2-3.3-11.2-5.9-16.2-8.5
	c0.3-2.4,3.2-3,3.5-5.2c-0.3-0.1-0.8-0.5-0.9-0.4c-4.8,4.6-9.6,3.2-14.5,0.2c-1.7-1-3.7-1.5-5.5-2.3c-4.4-1.8-4.7-4.3-0.9-7.7
	l-0.1-0.1c-2.3,3.8-1.1,5.6,3.2,6.4c3.4,0.6,6.8,1.8,9.7,3.8c1.8,1.3,3.3,0.9,5-0.3c4.3-3,8.7-5.8,14-9.4c-3.2,6-7.6,9.5-10.7,14.1
	c6.3,3,12.3,5.8,18.2,8.9c1.9,1,3.1,0.5,4.6-0.4c7.4-4.4,15.3-8.1,21.9-13.7c0.9-0.7,1.6-2.1,3.6-1.1c-5.6,5.4-11.1,10.4-16.4,15.6
	c-0.9,0.9-3.6,1.9-1.1,3.7c3.2,2.3,6.4,5.1,10.1,6.2c2.6,0.7,5-2.7,7.5-4.3c4.2-2.6,7.7-6.6,13.5-8.8c-2.2,3.1-3.8,5.4-5.3,7.6
	c-0.7,1-1.2,2.3,0.4,2.9c2.4,0.9,4.7,2.4,7.6,0.9c6.2-3.2,12.2-6.8,17.9-10.9c2.3-1.6,3.3-3,0.5-5.3c-8.7-7.2-18.3-13.3-27.6-19.7
	c-1.8-1.2-3.1-0.4-4.6,0.4c-2.9,1.7-5.9,3.4-8.8,5c1.5-4.2,6.4-4.5,8.4-8c-3.3-3.2-6.4-3.2-10-0.8c-3.2,2.1-6.6,3.9-9.9,5.8
	c2.8-4.5,7.9-5.9,12-9.6c-14.8-7.8-28.5-16.6-44.1-21.7c-15.3-5-30.5-10.2-45.8-15.3c1.2-0.7,2.2-0.6,3.1-0.3
	c13.1,4.1,26.5,7.7,39.4,12.6c29.6,11.2,57.8,25.2,83.4,44c3.1,2.3,5.9,4.9,8.8,7.4c0.8,0.7,1.8,1.1,2.7,0.2
	c1.1-1.1-0.1-1.8-0.7-2.4c-0.7-0.7-1.5-1.3-2.3-1.9c-15.8-13.8-33.6-24.4-52.3-33.4c-4.6-2.2-9.2-4.6-13.8-7
	c0.1-0.2,0.2-0.5,0.4-0.7c3.7,1.4,7.3,2.8,11.5,4.4c-0.4-7.4-2.2-14.3-1.4-21.2c2.4,7.5,2.1,15.5,6.1,22.6c0.3-1.9,0.5-3.9,0.8-5.8
	c1.4,4.8,2.3,9,8,11.1c5.7,2.1,10.7,6,16,9.1c2.8,1.6,5.2,3.9,8.6,4.8c0.6-3.5-0.7-6.7,0.5-10.2c1.6,1.6,1.1,3,1.4,4.2
	c1,3.4-0.6,7.5,3.1,10.1c5,3.6,10,7.2,14.2,11.7c1.9,1.9,3.6,2,6,0.2c9.1-6.9,16.6-15.4,23.4-24.4c0.6-0.8,1.1-1.7,1.6-2.6
	c0.6-1.2,1.3-2.6,0.3-3.7c-1-1-2.1,0.2-3.1,0.6c-2.1,0.7-4.1,2.3-6.5,1.1c-0.1-4.3,6.6-6.3,4.1-10.8c-2-3.7-5.4-6.7-8.2-10
	c-0.5-0.6-1.1-1.3-1.6-1.9c-1.7-2.4-2.9-2-4.3,0.4c-2.8,4.7-7,8.7-6.5,15.7c-2.9-2.7-1.9-4.6-1.7-6.3c1.1-9.6,2.9-19.1,3.3-28.7
	c0.1-1.7,0.5-3.3-1.1-4.5c-5-4.1-10.2-7.9-16-11c-2.3-1.3-3.2-0.5-3.6,1.8c-1.1,6.1-2.3,12.1-3.5,18.1c-0.3,1.7-0.3,3.4-1.9,4.8
	c-1.6-2-1.7-4-2.1-5.9c-1.4-6.1-2.9-12.3-4.3-18.4c-0.9-4-4.7-5-7.6-5.6c-2.1-0.4-2,3.3-2.3,5.2c-1,7.4-1.8,14.8-2.6,22.2
	c-0.2,1.5,0.5,3.4-2,4.2c-0.7-12.5-5-24-8.3-35.8c-0.9-3.3-3-5.1-6.1-5.9c-2.8-0.7-4.7-0.5-3.7,3.2c0.5,1.6,0.9,3.3-0.4,6.2
	c-0.8-3.6-1.4-6-1.9-8.4c-0.3-1.6-1.1-2.7-2.7-3.1c-5.3-1.3-10.6-2.7-16-3.9c-2.1-0.5-3.4-0.1-3.1,2.8c0.6,4.8,1.1,9.6,1.2,14.4
	c0.2,6.3,0.1,12.6,0.1,18.9c-3.5-8.8-8.8-16.8-13.2-25.1c-9.4-17.7-2.6-15.1-23.2-16.9c-0.2,0-0.3,0-0.5-0.1
	c-4.1-0.7-5.3,1.5-4.3,4.9c2.7,8.6,2.7,17.7,5.4,26.3c0.3,1,1,2.1-0.7,3.4c-2.2-4.3-4.4-8.3-6.4-12.4c-3.9-7.9-7.7-15.8-11.5-23.8
	c-0.8-1.6-1.5-3.3-4-3c-6.6,0.8-13.2,1.5-19.8,2.2c-2.1,0.2-2.5,1.1-1.5,3c2.1,4.3,4,8.7,6,13.1c2.1,4.7,5.1,8.9,5.6,14.3
	c-3.6-3.4-5-8-7.1-12.2c-1-1.9-1.9-3.9-3.7-5.2c-3.5-2.5-6.5,0.2-9.1,1.7c-2.5,1.4,0.2,3.2,0.9,4.6c2.7,5.1,5.6,10.2,8.6,15.1
	c1.4,2.3,3.3,4.3,4,6.9c-1.3,0.8-2.1,0.2-2.8-0.1c-7.1-3.2-14.2-6.5-21.3-9.7c-1.1-0.5-2.5-2.1-3.4-0.4c-1.9,3.8-1.6,8.1-1.9,12.2
	c-0.2,2.4,2.6,3.2,4.3,4.4c3.4,2.2,7.5,3.1,10.9,6.4c-2,1.2-3.8,1.1-5.6,1l0.1,0.1c1.1-3-1.3-3.7-3.1-4.7
	c-11.6-6.3-9.6-3.6-7.1-16.2c0.2-1.1,0.6-2.2,0.8-3.4c0.4-2.9,1.7-2.9,4.1-1.7c6.2,3.3,12.5,6.5,20.6,8.9c-3.9-7.3-7.1-13.8-10.7-20
	c-1.6-2.8-2.2-4.4,1.8-5c1.4-0.2,2.7-1.2,4.2-1.6c3.7-1,4.1-3,2.7-6.4c-2.5-5.9-2.3-5.9,4.2-6.9c5.9-0.9,11.8-1.6,17.7-2.6
	c3.1-0.5,4.5,1,5.7,3.5c3.8,7.9,6.9,16.1,13.1,23.2c-0.8-4.3-1.7-8.6-2.6-13c-0.3-1.6-0.8-3.2-1.2-4.9c-0.7-3,0.3-4.4,3.6-4.1
	c5.3,0.5,10.6,1,15.9,1.3c4,0.2,6.1,2,7.8,5.9c4.2,9.6,9.3,18.9,15.1,28c-0.5-7.8-0.8-15.6-1.4-23.4c-0.4-6.1-0.6-6.1,5.5-5
	c10.4,1.9,10.4,1.9,11.9-8.3c2-14.5,7.4-27.8,13.6-40.9c3.8-8.1,8.1-16,11-24.4c1.1-3.2,1.6-6.4,1.7-9.8c0-1.7-0.9-4.4,1.1-5
	c2.2-0.7,3.8,1.3,4.7,3.5c-1.6-0.4-3.5-1.8-3.8,1.4c-1.2,12.9-7.7,23.9-13.2,35.2c-6.2,12.8-10.8,26.1-12.9,40.1
	c-1.5,10-1.2,10.3,8.7,12.5c5.5,1.2,8.7,4.1,10,9.6c1.6,6.7,3.7,13.2,6,21.2c1.4-6.8,0.7-12.6,2.7-17.9c0.6-1.5,0.6-3.3,3.1-3.1
	c4.6,0.4,9.6,4.8,10.7,9.4c0.2,1,0,2.3,1.6,3c0.6-9.7,1.3-19.1-0.8-28.7c-5.3-23.9-6.6-48,0.8-71.8c0.8-2.6,1.2-5.3,0.7-8.5
	c-4.5,2.7-7.7,6.1-12.3,7.6c4.1-4.1-0.8-6.7-1.3-10c3.2,0.6,2.6,6.5,6.5,5.2c2.6-0.9,4.7-3.5,7-5.4c0.6-0.5,1.3-0.9,2.8-1.8
	c-0.1,3.2-0.2,5.7-0.4,8.3c-0.1,1.7-0.6,3.5,1.1,4.5c2.1,1.3,2.7-1.1,3.9-2c0.4-0.3,0.9-0.4,1.3-0.6c-8.3,9.8-12,21.1-11.9,33.9
	c0.1,12.3,0.9,24.5,4.1,36.4c2.3-12.8,4.3-25.6,8.1-38c3-9.9,4.4-20.1,4.6-30.4c0-2,0.1-4.1-1.1-6c-1.7,1.5-2.1,3.5-3.9,4.3
	c2.2-5.4,5.7-10.5,3.9-16.8c1.5,2.1,1.6,4.7,2,7.1c1.9,14.4,0.5,28.6-3.5,42.4c-4.9,17-7.9,34.3-8.4,52c-0.2,7.4-1.3,14.9,0.4,22.3
	c1-2.9,1.8-5.8,2.3-8.7c0.5-3.4,2.1-3.7,4.8-2.2c6.8,3.6,13,8,19.1,12.7c1.7,1.3,1.8,2.8,1.5,4.8c-1.1,7-1.9,14.1-2.9,21.3
	c1.9-0.4,2.3-1.8,3-2.9c3.2-5.1,3.2-5,7.3-0.7c4,4.3,8,8.7,13.6,12.6c-2.1-14.5-1.3-28.2-1-42c0-1.8-0.2-3.8,1.5-5
	c2.6-1.9,4.5-4.1,4.9-7.6c0.3-2.3,2.6-2.2,4.5-1.6c3.1,1,6.1,2.3,9.1,3.4c-2.4-3-5.1-5.7-8-8c-3.6-2.7-3.4-5.6-1.2-9
	c2.5-3.9,5-7.8,7.1-12c2.1-4.4,4.6-5.2,8.4-2.1c2.1,1.7,4.2,3.2,6.4,4.8c3.2,2.4,6.1,5.4,10,6.8c-5.2-5.6-10.4-11.2-15.9-16.3
	c-2.2-2.1-2.4-3.7-0.7-5.9c2.5-3.1,5.2-6.1,7.4-9.3c2-3,3.5-3,6.2-0.6c5.9,5.3,12.1,10.1,18.8,15.6c0.2-4-0.6-6.7-1.9-9.4
	c-7.8-17.6-21.8-29.4-37.5-39.5c-6.1-3.9-12.3-7.2-14.5-14.9c-1.6-5.7-1.9-5.8-7.4-2.9c-2.9,1.5-4.4,1.5-4.7-2.3
	c-0.1-1.7-0.5-4.2-3.3-2.3c-2.1,1.4-3.9,5.5-6.4,0.1c-0.5-1.2-2.2,0.2-2.9,1c-3.6,4.2-5.9,2.6-7.8-1.6c-0.6-1.3-1.4-2.6-2.2-3.9
	c0.9,0.9,2.1,1.8,2.8,2.8c2.2,3.4,4.2,4.6,7,0.5c1.1-1.6,2.9-3.4,4.3,0.1c1.1,2.6,2.1,0.8,3.2-0.2c4.1-3.5,4.3-3.5,5.9,1.6
	c0.8,2.5,1.6,3.9,4.3,1.8c1.1-0.9,2.6-1.5,3.9-2.1c1.8-0.9,3.2-0.8,3.6,1.7c1.3,8.8,6.9,13.8,14.3,18.3c12.4,7.5,23,17.4,31.7,29.2
	c0.9,1.3,1.6,3,4.5,3.5c-5.5-8.2,1.1-12.2,5.2-17c1.1-1.3,2.2-2.4,3.5-3.6c5.7-5.3,5.7-5.2,9.7,1.8c2.2,3.9,4.6,7.7,6.9,11.6
	c0.5,0.9,1,2,2.1,1.8c1.6-0.3,1.1-1.8,1.1-2.9c0-7.6,1.4-15.2,0.5-22.9c-0.4-3.4,0.7-5.2,4.4-5.6c5.8-0.7,11.4-2.5,17.3-0.8
	c1.3,0.3,3.2,0.2,3.3,1.7c0.5,5,4.1,4.8,7.5,4.9c3.7,0.2,4.8,2,4.3,5.5c-0.4,2.6-0.3,5.3-0.3,8c0.1,4.8,1.4,5.8,5.7,3.9
	c4.9-2.1,9.7-4.4,14.5-6.6c3.1-1.4,5-0.9,5.2,2.9c0.4,6.3-1.1,12.6-1.1,18.9c0,1.7-1.4,2.5-2.9,3.1c-2.2,0.9-4.4,1.9-6.4,3.8
	c4.2-0.3,8.4-0.5,12.5-1.1c3.5-0.5,4.3,0.9,4.2,4.1c-0.1,5.9-1.6,11.5-2.3,17.3c-0.2,2-1.6,2.6-3.5,2.8c-5.8,0.8-11.5,1.8-17.2,2.8
	c-1.2,0.2-2.7-0.2-3.5,1.3c0.2,0.2,0.4,0.6,0.6,0.7c7.8,1.1,10.9,5.7,9.2,13.7c-1.6,8-1.7,7.9,6.2,6.1c5.3-1.2,10.7-2.2,16.1-3.2
	c4.7-0.8,8,1.4,10.1,5.4c5,9.4,10.1,18.7,12.4,29.2c0.5,2.5,2.7,3.3,4.6,4.2c3.7,1.8,6.4,4.3,6.5,8.6c0.1,3.6,1.3,6.9,3.6,9.6
	c5.2,6.3,4.6,14.6,8,21.5c1.9,3.9,4,7.6,6,11.4c2.8,5.4,2.4,9.7-1.8,14c-2.1,2.1-4.3,4.1-5.4,7c-0.2,0.6-0.6,1.4-1.1,1.6
	c-11.1,6.1-15.6,18.4-24.7,26.5c-5.3,4.8-10.2,10.1-16.6,13.4c-4.1,2.1-3.2,5.3-2.1,8.5c3.6,10.9,7,21.8,9.2,33
	c3.4,17.2,5,34.5,3.3,52c-0.4,3.9-0.4,7.1,3.4,9.3c0.8,0.4,1.1,1.5,1.7,2.4c-1.7,0.7-2.2-0.7-3.1-1.2c-1.2-0.7-2.3-3.3-3.8-0.6
	c-1.1,2-2.3,4.3,0.6,6c0.6,0.4,3.3-0.1,1.5,1.5c-2,1.7,2.1,7.1-3.9,6c-3.1-0.5-6.1-1.6-9.2-2.2c-1.8-0.4-4.6-3.2-5.2,1.6
	c-0.1,1-2.8,1-4.1,0.6c-8.6-2.2-17.4-4.3-25.8-7.1c-4-1.3-6.1-5.5-8.2-9.1c-7.1-12-13-24.6-18.1-37.6c-2.1-5.3-2.5-5.5-7.3-2.4
	c-5.7,3.7-11.7,7-18.1,9.4c-2.1,0.8-2.7,1.8-2.3,4.1c1.5,10.5,3,21.1,2.7,31.7c0,1.8,0.8,2.7,1.9,3.8c2.5,2.7,4.5,5.7,5.6,9.3
	c0.4,1.2,1.2,2.6-0.1,3.7c-1.1,0.9-2.2,0.2-3.3-0.2c-1.2-0.5-2.5-1-3.8-1.3c-2.7-0.5-5.8-1.5-3.6,3.5c1.1,2.5-0.3,3.8-3,3.1
	c-1.6-0.4-3.1-1.1-4.7-1.6c1.3,0.1,2.6,0.2,4,0.3c1,0,1.9,0,1.9-1.5c-0.1-3.6-6.2-11.6-9.7-12.6c-2.5-0.6-7.2,3.3-8.7,7
	c-1.5,3.8,1.8,3.8,3.6,5c-3.5,0-8.1-1.7-7.9,4.7c0,0.9-0.7,1.6-1.7,1.1c-3-1.5-7-0.4-9.2-3.8c3.1,0.8,7,4,9.1,1.2
	c2.5-3.3-1-7.1-2.9-10.3c-0.2-0.4-0.6-0.8-1-1.1c-0.8-0.7-1.7-0.8-2.7-0.3c-3.9,1.9-5.1,7.2-2.3,10.6c-1.3-0.1-2.6-0.5-3.9-0.4
	c-9.2,0.7-15.3-3.7-19.5-11.5l0.3-0.2c1.5,1.6,3.2,3,4.4,4.7c2.9,4.5,7.5,4.7,11.9,4.7c3.5,0,3.1-3.8,4.4-5.9
	c2.9-4.9,5.2-5.2,9.4-1.4c2,1.8,2.3,5,5.3,6.5c1-5.4,3.4-9.8,7.8-11.9c6.2-2.9,8.2,3.8,12,6.5c5.4-9.7,5.8-11.9,4.5-21.8
	c-0.8-5.9-1.2-11.9-2.1-17.8c-2.1-15.1-4.3-30.3-10.9-44.3c-2.1-4.5-4-9.1-6.1-13.6c5.8,5.6,14.2,26.3,16.1,38.1
	c1.3,7.9,5.6,10.2,13,6.9c0.5-0.2,1-0.3,1.4-0.6c12.5-8.5,25.1-16.9,34.6-29c0.4-0.5,0.9-1.1,1.7-0.1c-4.7,7.3-10.8,13.4-17.7,18.6
	c-2.7,2.1-3.1,4-2.1,7.2c5,15.3,13.3,28.9,21,42.9c2.6,4.8,7.5,5.9,12.6,6.8c4.3,0.8,5.1-2.6,6.9-4.5c3.3-3.6,6.1-2.9,8.7,0.3
	c2.9,3.5,4.5,2.8,6.6-0.8c3.9-6.5,4.1-6.4,9.6-1.3c1.7,1.6,3,2.9,4.1-0.5c3.7-11.5,3.8-23.2,2.3-35.8c-1.7,1.3-2.8,2.1-3.7,2.9
	c-3.8,3.5-6.9,2.9-9.7-1.2c-3.1-4.4-6.2-8.6-9.6-12.7c-3.4-4-4.4-8.4-3.5-13.4c0.4-2.3,0.7-4.6,1-6.9c1.1-6.6,2.9-7.7,9-5.4
	c3.7,1.4,7.3,2.9,11.2,4.4c0-8.1-3.1-14.9-5.6-21.9c-3.5-9.9-3.4-9.9-12.9-5.7c-26.1,11.5-52.9,15-80.7,7.5
	c-4.4-1.2-4.5-1.3-7.3-4.2c16.7,5.8,33.2,7.6,50.1,5.4c35.4-4.7,64.2-20.3,84.3-50.5c2.4-3.6,3.9-7,2.7-11.6c-0.9-3.4-2-3.6-4.7-2.2
	c-5.6,2.7-10.6,2.2-16.4-1c-8.6-4.8-17-10.8-28.1-9.5c-13.8,1.6-27.9,1-41.5,4.6c-2.3,0.6-3.2,1.5-3.6,3.9
	c-0.6,4.1-1.4,8.2-2.7,12.1c-2.1,6.7-4.3,7.3-9.1,2.2c-3.2-3.4-6.1-7.2-9.2-11c2.2-2.1,4.8-3.4,7.6-4.5c19.3-7.1,39.5-8.6,59.8-8.7
	c5.8,0,11.7-0.6,16.7,3.3c3.3,2.6,7.2,4.2,10.9,6c7.7,3.7,16.2,2.4,22.4-3.6c4.5-4.3,5.2-4.1,7.3,1.9c0.2,0.5,0.2,1,0.4,1.4
	c0.9,2.2,1.9,2.4,3.5,0.4c4.9-6,1.4-15.7-6.1-17.1c-2.1-0.4-4.1-1.2-6.2-2c-3.7-1.4-5.3-3.6-4.5-8c1.6-9.4,1.4-18.9,0.2-28.3
	c-0.5-3.8-2.6-6.1-6.5-6.7c-0.6,1.9,1.4,3.1,0.3,5.3c-2.6-7.3-7.9-12-13.4-17c3.5,0,4.5,3.3,7.7,3.9c-3.4-10.2-7.6-19.6-13.1-28.3
	c-1.5-2.4-4.1-3.1-6.5-2.7c-8.6,1.5-17.3,2.7-26.2,6.4c8.3,3.4,16.2,6,23.3,10.2c1.1,0.6,2.7,0.9,2.9,2.5c0.5,5.1,2.1,10.2,1.8,15.4
	c-0.2,2.5,0.4,5.5-2.2,6.7c-2.4,1.1-4.2-1.2-6-2.7c-11-9.3-22.2-18.6-34.5-26.2c-1.3-0.8-2.8-1.7-3.3-2.9c-1.1-2.5-3.1-2.5-5.3-2.6
	c-13.8-0.9-27.1,2.3-40.5,4.4c-4.5,0.7-8.6,0.3-12.7-1.2c-15-5.3-30.6-5.5-46.2-5.1c-5.8,0.2-8,3.3-8.1,8.4
	c-0.1,13.4-1.1,26.9,1.3,40.3c1.5,8.4,1.4,16.9,1.1,25.3c-0.2,4.3-0.2,8.8-2.4,14.3c0.1-8.2,1.9-14.9,0.2-23
	c-10.8,14.6-23.8,25.5-37.6,35.9c1.2,0.7,1.9,1.2,2.7,1.5c4.9,1.8,6.6,4.7,5.8,10.3c-1.7,11.6-5.6,23-3.9,35c0.3,2-1.1,3.1-2.4,4
	c-4.9,3.2-10.1,5.7-16.1,6.2c-2.7,0.2-4.6-0.5-6.3-2.8c-6.2-8-6.2-16.5-2.4-25.3c2.8-6.6,5.7-13.1,8.9-20.4
	c-6.1,3-11.3,5.4-16.5,8.1c-9.8,5-17.5,12.2-24.2,21c-9.3,12.4-13.3,26.9-18.3,41.1c-1,3,0.6,3.1,2.6,3c3.6-0.1,6.2,1,7.7,4.8
	c1.5,3.7,3.6,7.1,5.6,10.5c5.2,8.9,4.3,17.1-2.5,24.6c-0.7,0.7-1.5,1.3-2.2,2c-5.7,4.9-8.9,4.8-14.2-0.3c-0.8-0.8-1.6-1.8-2.5-2.5
	c-1-0.8-1.7-2.5-3.2-1.8c-1.4,0.6-1,2.3-1,3.6c-0.6,10.8-0.1,21.6,1,32.3l0.1-0.1c-3.4-8-3.6-16.5-3.2-24.8
	c0.9-19,5.5-37.3,11.4-55.3c1.3-4,0.5-5.2-3.6-3.9c-1.2,0.4-2.7,0.2-3.9,0.5c-2.6,0.6-3.2-0.3-2.8-2.9c0.4-3,0.4-6,0.3-8.9
	c0-1.3,0.9-3.3-1.3-3.7c-1.9-0.4-3.7,0.4-4.7,2.1c-0.8,1.4-1.9,2.9-2.1,4.5c-0.9,8.1-7.1,9.7-13.3,11.2c-3.5,0.8-7.3,0.7-10.9,1
	c-3.1,0.3-4.1-1.4-3.2-3.9c1-2.9,1.3-6.2,3.5-8.6c-0.1,0.8-0.1,1.7-0.2,2.5c-1.5,8.6-1.5,8.7,7.2,7.2c3.1-0.5,6.1-1.6,9.1-2.6
	c2.2-0.8,4.2-1.6,5.2-4.2c2.2-6.1,4.8-12,7.3-18c2.6-6.3,4.7-12.8,8.3-18.7c-3.6,12.2-2,24.8-2.9,37.1c-0.1,1.4-1,3.5,1.6,4
	c3.7,0.8,8.1-1.7,9.5-5.3c1.8-4.8,3.3-9.8,5.6-14.4c6.3-12.4,13.9-23.9,26.2-31.3c4.1-2.4,8-5,12.1-7.5c-3.6,0.6-5.2-5.8-9.8-2.2
	c-7.8,6.2-8,5.9-16.2-0.1c-0.8-0.6-1.6-1.2-2.4-1.8c-2.7-1.6-4.9-3.2-1.2-6.8c-4.7,2-8.3,5.5-13.1,2.1c-0.8-0.6-2.9,0.3-4.2,0.8
	C110.2,276.3,87.4,287.9,66.3,302.5L66.3,302.5z M292.3,143.6c-7.8-2.9-13.8-7.4-19.8-12.1c-7.9-6.2-8-6.1-13,2.6
	c-6.3,10.9-6,10.6,3,19.8c4.7,4.8,9.9,6.9,16.3,7c4.2,0.1,8.4,0.3,12.3,1.9c7.1,2.9,11.9,1.9,16.8-5c4.8-6.8,10.2-13.4,17.4-18.6
	c5.4-3.8,8.5-10.9,12.7-16.4c0.9-1.2,1.3-3,4.5-3.4c-10.8,16.2-23.1,30.2-33.1,47c20.3-3.5,39.7-5.7,59.4-3.4c3.5,0.4,6.4-1.3,7-5.5
	c0.5-3.4,1.4-6.8,2.1-10.2c0.7-3.3,0-5.2-4-5.7c-5.1-0.6-10.2-1.8-15.3-2.8c7.2-2.9,14.4-4.6,21.8-5.5c12.5-1.5,10.3,0.5,12-11.6
	c1.6-11.2,1.6-11.1-9.6-9.4c-4.4,0.6-8.8,2.2-14,1c4.5-3.4,9.1-5,13.4-7c2.2-1,4-2.2,4-5.1c0.1-4.8,0.2-9.6,0.5-14.4
	c0.2-2.7-0.8-3.5-3.1-2.2c-7.1,3.9-15.5,5.3-21.8,10.4c0-5.8,0-11.5,0-17.3c0-2.4,0.1-4.6-3.5-4.6c-3,0-5.3,0.3-5.1,4.1
	c0,1.2,0.4,2.7-2.2,3.7c0-3.6,0.1-6.8,0-10.1c-0.1-2.1-0.6-3.9-3.2-4.2c-6-0.8-12.5-0.8-17.5,1.9c-3.3,1.8-0.7,7.7-1.3,11.7
	c0,0.2,0,0.3,0,0.5c-1,7.4-0.3,15.1-2,22.6c-1.7-0.5-2.1-1.5-2.6-2.3c-3.9-6.2-7.9-12.2-11.6-18.5c-1.3-2.2-2.2-2.1-3.7-0.5
	c-3.2,3.4-6.3,6.9-9.6,10.1c-2.1,2-2.3,4-1.5,6.7c1.6,5.2,3,10.6,4.1,15.9c0.8,3.7,2.2,7.4,1.9,12.5c-6.1-5.2-11.5-9.8-16.9-14.4
	c-5.8-4.9-11-4.3-15.6,1.8c-0.5,0.7-0.9,1.4-1.4,2.1c-0.9,1.2-0.5,2,0.5,3c4.9,4.9,9.9,9.8,14.6,15
	C287.6,137,291.3,138.8,292.3,143.6L292.3,143.6z M183.8,301.7c0.4,5.2,1,9.8,4,13.7c0.7,0.9,1.5,1.9,2.5,2.4
	c3.3,1.5,18.2-5.3,19.2-8.7c0.3-1.1,0.2-2.3,0.1-3.5c-0.6-6,0.1-11.9,1.2-17.8c1-5,1.7-10.1,2.7-15.2c0.5-2.7-0.5-4.3-2.9-5.5
	c-5.8-2.8-10.4-1.3-14.6,5.8c-4.5,7.8-8.2,15.9-11.2,24.5C184.2,298.8,184.1,300.5,183.8,301.7L183.8,301.7z M137.5,346.7
	c-3.2-0.6-4.8,0.9-5.4,3.8c-1.7,7.8-3.6,15.5-5.2,23.3c-1.2,5.7,5.2,13.8,11,14.5c2,0.2,3.5-0.5,5-1.6c3.2-2.4,5.4-5.8,7.8-9
	c4.1-5.3,4-7.8,0.5-13.5c-2.9-4.6-5.9-9.2-8.2-14.1C141.7,347.4,140.3,346.1,137.5,346.7L137.5,346.7z M410.1,369.6
	c0-5.3-1.8-11-2.4-16.7c-0.5-4.9-3.1-7.9-7.5-9.5c-2.8-1-5.6-2-8.5-2.8c-1.2-0.3-3-0.6-3.4,1.1c-1.5,5.9-3.8,12.3-0.8,17.9
	c3.3,6.2,8.1,11.7,12.3,17.5c1,1.4,2.2,2.6,4.1,1.6C407.4,376.8,410.6,374.8,410.1,369.6L410.1,369.6z M359.1,164.8
	c1,2.6,3,3.3,4.6,4.4c7,4.6,13.8,9.2,20.2,14.6c4.3,3.6,8.7,7.2,13.1,10.7c1.1,0.9,2.6,2.9,3.8,0c2.2-5.1-1-16.4-5.6-19.5
	C384.6,167.4,372.6,164.3,359.1,164.8L359.1,164.8z M340.7,259.6c0-3.3-1.5-4.4-4.5-3.4c-3.3,1.1-6.6,2.2-9.9,3.3
	c-2,0.7-2.1,2-1.4,4c1.3,3.4,4.4,5.4,6.7,7.9c2.6,3,4.9,2.7,6.2-0.8C339.1,267.1,339.8,263.3,340.7,259.6L340.7,259.6z M407.8,423.3
	c1.2-0.2,2.4,0.4,3-0.6c0.7-1.3-0.5-2.1-1.2-3c-1.6-1.9-3.2-3.8-4.9-5.6c-5-5.1-7.8-4.4-10.1,2.5c-0.5,1.5-0.5,2.7,1.1,3.2
	C399.8,421,403.7,423,407.8,423.3L407.8,423.3z M389.7,423.3c0.9-0.2,2.1,0.3,2.6-0.9c0.5-1-0.1-2-0.8-2.7c-1.8-1.9-3.5-4.1-5.6-5.5
	c-3.1-2.1-5.1,0.2-6.8,2.6c-2.1,3.1,0.7,3.6,2.5,4.4C384.2,422.3,386.9,423.2,389.7,423.3L389.7,423.3z M438,260.6
	c0.1,3.3-0.5,7.2,2.6,7.6c3,0.4,3.4-3.6,4.2-6c1-3.2,0-6.2-1.5-9c-0.3-0.7-1.1-0.6-1.7,0C439.4,255.3,436.8,257.4,438,260.6
	L438,260.6z"/>
<path d="M251.3,422.3c-4.2-4.7-7.8-9.9-10.2-15.7c-1-2.3-2.4-3.3-4.6-3.8c-12-2.7-23.7-6.3-34.2-13c-3.1-2-5.5-0.5-7.4,1.9
	c-4.7,5.9-7.2,13-10.1,19.9c-1,2.5,1.3,4.6,2.1,6.9c0.6,1.6,1.6,3.2,0.6,4.7c-1.2,1.7-3,0.5-4.6,0.5c-3.6-0.1-8.4-2.5-8.4,4.5
	c0,1.5-1.7,0.9-2.8,1c-5,0.7-9-3.2-13.9-2.9c-1.3,0.1-3.2-0.6-3.6,0.7c-2,6-5,2.4-7.4,0.7c-3.7-2.7-7.9-3.1-12.2-3.6
	c-3.8-0.4-8.4-0.1-8.8-5.9l-0.1,0.1c0.9,0.8,1.7,1.6,2.6,2.3c4.8,3.8,12.9,2.7,16.1-2.1c2.8-4.3,4.5-4.2,6.9,0.3
	c0.5,1,1,2.1,1.4,3.2c0.6,1.4,1.1,2.8,3.1,2.6c1.9-0.1,2.8-1,3.5-2.8c0.9-2.4,1.8-5,3.8-6.9c1.6-1.4,3.2-2.7,4.5,0.4
	c-5.1-0.1-6.2,4.4-6.9,7.6c-0.7,3.2,3.3,3.1,5.8,3.7c1.1,0.3,2.2,0.6,3.4,0.8c2.9,0.5,3.6-1,2.9-3.4c-1-3.4-2.9-6.2-5.3-8.8
	c2.4,0.4,3.5,2.4,4.8,4c3.3,4.2,5.9,3.7,8.3-1.2c4.5-9.4,7.1-19.7,14.1-27.8c2.3-2.6,1.3-4.4-1.4-5.8c-3.1-1.7-5.4-4.2-7.2-7.2
	c4.4,3.3,9,6.4,13.6,9.3c9.9,6.2,20.5,11,31.8,14c1.8,0.5,4.2,1.9,5.6,0c1.2-1.6-0.7-3.3-1.4-4.9c-1.7-4.3-3.6-8.6-5.3-12.9
	c-5.6-14.2-6.3-29.4-9.7-44.1c-1.1-4.7-0.9-9.8,0.9-14.6c-0.3,8.4,1.9,16.4,3.2,24.5c2.7,17,6.6,33.7,14.2,49.5
	c4,8.2,8.9,15.9,12.7,24.1L251.3,422.3L251.3,422.3z"/>
<path d="M101.9,239.5c-1.4-2.2-2.7-0.6-3.6,0.4c-7,7.8-14.4,9.9-23.2,2.6c-2.9-2.4-6.6-3.8-10.1-5.4c-3.5-1.6-6.7-3-0.9-6.4
	c-1-0.3-1.5-0.6-1.6-0.5c-5,4.2-8.4,1.6-11.9-2.4c-6.1-7-6.2-6.9,1.6-12.1c1.6-1.1,3.1-2.3,4.2-4.4c-4.6,1.6-9.2,3.1-13.7,4.9
	c-2.5,1-3.9,0.6-5.3-1.6c-3.9-6.3-8-12.5-12.1-18.8c-1.2-1.9-0.3-2.6,1.4-3.2c3.6-1.4,7.4-1.7,11.2-2l-0.1-0.1
	c-2.3,1.6-5,1.7-7.5,2.3c-2.7,0.7-3.9,1.5-2.1,4.7c2.7,4.8,6.4,8.9,8.9,13.7c2.2,4.1,4.6,4.3,8.4,2.7c7.4-3.1,14.9-5.9,22.4-8.9
	c-4,4.9-9.2,8-14.1,11.6c-7,5.1-7,4.8-0.7,11c3.1,3,5.4,3.4,8.9,0.9c4.6-3.1,9.5-5.6,15.6-9c-4.6,6.2-9.7,9.9-13.8,14.5
	c6.2,4.5,13.6,6.2,20.2,9.6c3,1.6,4.8,1.5,7.4-0.5c5.8-4.5,11.8-8.5,17.8-12.8c0.3,0.4,0.6,0.7,0.9,1.1c-2.9,2.6-4.8,6-8.4,7.9
	L101.9,239.5L101.9,239.5z"/>
<path d="M67.8,310.8c1.4,1.6,2.5,2.5,4.8,0.9c7-4.5,14.2-8.6,20.6-14.3c-2,5.3-5.6,9.5-8.8,14c-3.2,4.5-6.5,8.8-9.8,13.2
	c-1.5,2-1.4,2.9,1.3,3.7c7.3,2.2,7.2,2.3,11.5-3.9c2.5-3.6,4.1-7.8,8.1-11.4c-0.4,5.1-2.1,8.7-3.8,12.4c0.1-1,0.2-1.9,0.3-3.7
	c-3.3,2.5-4.3,5.7-6.2,8.2c-1.9,2.5-3.8,3.4-6.7,1.8c-0.7-0.4-1.6-0.6-2.3-0.9c-4.4-1.7-5.3-4.5-2.5-8.5c2.5-3.5,4.9-7.1,7.6-10.9
	c-3.5-1.9-6.2,0.7-8.5,2.1C69.4,316.1,67.8,315.4,67.8,310.8z"/>
<path d="M251.6,168.5c0.6,0,1.6,0.9,2.5,1.8c7.4,7.1,15.3,13.7,21.2,22.2c1.4,2.1,1.7,3.2-0.3,4.8c-8.6,6.5-15.9,14.3-23.2,20.7
	C247.9,201.9,250.7,185.2,251.6,168.5L251.6,168.5z"/>
<path d="M304.7,220.7c-0.5-7.4,1-13,2.8-18.5c1.1-3.4,3.6-4.8,6.9-4.2c19.8,4.1,36.7,12.9,48.8,30.6c-2.1-0.1-3.8-1.2-4.6,1.4
	c-0.8,2.5-3.8,2.6-6,3c-13.6,2.3-26.8,6.2-39.6,11.4c-1.5,0.6-3.3,2.1-5-0.9c1.9-0.1,3.6,0.2,5.2-0.4c4.1-1.7,9.6-2.1,12.2-5
	c2.9-3.2-1.4-8-1.8-12.1c-0.8-7.1-2.9-14-1.4-21.2c0.5-2.3-0.4-3.3-2.4-4c-5.1-1.9-10.7,0.5-12.4,5.7c-0.7,2.2-1.1,4.5-1.6,6.8
	C305.5,215.2,305.2,217.3,304.7,220.7L304.7,220.7z M335.7,214.6c0.1-5.2-2.5-8-7.7-7.8c-5,0.3-3.8,4.5-4.1,7.5
	c-0.1,1.4,0.3,2.9,0.5,4.4c0.4,2.5,0.8,5.1,3.9,5.6c3.3,0.4,5.1-1.8,6.5-4.4C335.6,218.2,335.6,216.4,335.7,214.6L335.7,214.6z
	 M330.1,236.4c5-1.2,9.3-2.3,13.7-3.3c3.4-0.8,6.8-1.5,10.1-2.4c1.1-0.3,3.2-1.4,1-2.5c-3-1.5-6.5-4-9.8-0.1
	c-1.3,1.6-2.9,2.7-5.2,1.2c-4.1-2.8-7.9-2-10.9,1.9c-0.9,1.2-1,2.4-0.6,3.7C328.8,236.1,329.6,236.4,330.1,236.4L330.1,236.4z"/>
<path d="M253.4,352.2c0.7-5.8,1.2-11,2-16.3c0.6-3.6,2.4-5,5.9-2.8c10.5,6.3,19.7,14.1,28.1,22.8c1.1,1.1,1.6,2.4,1.3,4.1
	c-0.7,3.7-1.1,7.6-2.1,11.2c-1.5,5.4-12.9,9.2-18.5,5.7C260.9,371.2,255,362.8,253.4,352.2L253.4,352.2z M255.5,350.8
	c0.4,9.7,6,15.8,11.6,21.6c5,5.2,12.3,5.2,17.4,0.4c3.2-3,4.2-14.9,1.3-18.1c-7-7.7-15.3-13.7-23.9-19.4c-2.2-1.5-3.4-0.7-3.8,1.6
	C257.1,341.8,256.2,346.7,255.5,350.8L255.5,350.8z"/>
<path d="M162.7,326.5c0.9-4.1,2.3-8.7,5-12.7c1.7-2.5,3.4-3.4,4.7,0.3c0.2,0.6,0.5,1.2,0.8,1.8c3.8,8.6,1.7,12.4-7.7,14
	C162.8,330.4,162.4,330,162.7,326.5L162.7,326.5z"/>
<path d="M261.6,382.3c2.4-0.2,14.2,7.2,15.3,9.6c0.8,1.6,0.3,2.9-1,3.9c-2.6,2-5.1,4.2-7.8,6.1c-4.1,2.9-8,1.8-9.8-3
	c-1.8-5-1-10.1,1-15C259.8,383,260.5,382.3,261.6,382.3L261.6,382.3z M260,394.7c-0.3,2.9,0.3,5.3,3,6.8c2.8,1.5,4.1-1.1,6-2.2
	c1-0.6,1.8-1.4,2.7-2.2c4.7-4.2,4.7-4.7-0.6-8.1c-2.8-1.8-6-5.7-8.9-4C259.8,386.4,260.2,391.2,260,394.7z"/>
<path d="M384.8,208.6c-0.2,1.5-0.1,3-1.5,3.7c-1.3,0.6-2.2-0.4-3-1.2c-4.6-4.8-9.2-9.6-13.8-14.3c-1.7-1.8-0.8-2.8,0.9-3.8
	c6.9-3.9,13.3-1.4,15.5,6.1C383.8,202.3,384.2,205.6,384.8,208.6L384.8,208.6z M382.9,206.9c-0.4-1.6-0.7-3.2-1.1-4.8
	c-0.5-1.9-1-3.8-1.7-5.7c-1.3-3.7-9.2-4.9-11.7-1.9c-1,1.1-0.1,1.8,0.6,2.5c3.6,3.9,7.2,7.7,10.9,11.5c0.6,0.7,1.3,1.8,2.4,1.2
	C383.3,209,382.9,207.8,382.9,206.9L382.9,206.9z"/>
<path d="M372.1,382c0.5-3.7,0.9-7.9,1.7-11.9c0.6-3.1,2.4-3.4,4.4-0.9c1.1,1.3,2.1,2.6,3.1,3.9c4.7,6.4,4.3,8.8-2.6,13
	c-1.5,0.9-3.1,2.5-5,1.7C371.4,386.7,372.7,384.2,372.1,382L372.1,382z M374.6,380.9c0.1,1.1-0.6,2.7,0.7,3.5
	c1.5,0.9,2.3-0.8,3.3-1.5c0.7-0.4,1.3-1,1.9-1.6c2.1-1.7,1.9-3.7,0.5-5.7c-1.2-1.7-2.2-4.5-4.4-4.1c-2,0.4-1.3,3.4-1.6,5.2
	C375,378.2,374.8,379.5,374.6,380.9L374.6,380.9z"/>
</symbol>

<symbol id="squirtle" viewBox="0 0 248 251.1" style="enable-background:new 0 0 248 251.1;">
	<title>Squirtle</title>
<path d="M111,1c2.7,0.8,5.3,1.6,8,2.5c25.1,7.7,41.4,31.6,38.8,57.7c-0.4,4.4-2.2,8.7-3.8,12.9c-2.3,5.7-1.3,10,3.1,14.6
	c8.6,8.9,14.8,19.5,18.7,31.4c8.4,25.7,5.2,50.1-7.1,73.8c-0.2,0.4-0.2,0.9-0.5,2.4c7-5.9,12.2-12,16.8-18.7
	c8.8-12.6,20.6-19.3,36.2-17.6c16.1,1.7,25.1,15.3,25.2,29.8c0.2,24.6-17.8,36.1-38.5,38.4c-12.1,1.4-23.5-1.7-35-4.5
	c-3.8-0.9-4.8-0.2-4.8,3.4c0,5.2-0.5,10.3,2.1,15.1c0.7,1.3,1.1,2.9-0.1,4.2c-1.2,1.4-2.9,0.9-4.2,0.3c-4.8-2.1-8.7-1.7-12.4,2.6
	c-2.7,3.1-6.3,1.7-10.6-3.4c1.7,0.1,3.1,1.1,4.5,1.9c1.2,0.7,2.7,1.5,3.6,0.3c3.9-5,8.7-5.3,14.3-3.4c2.2,0.7,4.2-0.2,2.7-3.2
	c-3.5-7.1-2.2-14.7-2-22.1c0.4-10.4-0.7-20.5-4.7-30.3c-5.4-13-19.4-17-30.9-8.9c-5.6,3.9-8.4,9.8-11.4,15.5c-2.7,5-2.9,10-0.3,15.3
	c4.5,9.2,9.8,18.3,10.1,28.9c0.1,4.3,1,5.8,5.4,3.9c3.3-1.4,6.5-1.1,8.8,2.2c-3.6-1.2-7.2-1.1-10.7,0.2c-3.9,1.5-5.3-0.2-5.2-3.8
	c0.1-7.5-2.9-14.3-5.4-21.2c-0.7-1.9-1.7-2.9-4.2-3.4c-10.1-2-20.5-2.2-30.2-5.8c-5.2-2-8.8-0.3-10.5,7.1
	c-1.7,7.1-5.8,9.6-12.1,11.2c-5.9,1.5-11.6,4.1-17.3,6.4c-2.9,1.1-5.4,2.1-4.7-2.7c0.4-2.9-0.9-3-3.2-2.5c-1.5,0.3-3,0.2-4.5,0.6
	c-2.9,0.9-4.6,1.1-3.1-2.9c1.9-5.2-4.1-1.5-4.9-4.7c0-0.9,1.2-2.1,2.4-2.8c5.4-3.2,5.7-8,5.3-13.6c-0.9-13.4,4.9-24.6,12.6-34.9
	c2.1-2.8,2.6-5.5,2-8.8c-1.1-6.2-2.2-12.5-1.4-18.9c0.3-2.4-0.2-3.5-2.9-3c-11.7,2.1-23.2-0.7-34.8-1.3c-1.9-0.1-4.3-0.1-5.1-2.4
	c-0.6-2.1,0.4-4.1,2.1-5.3c4.2-3,4.6-6.1,1.7-10.4c-2.9-4.6-1.9-6.1,3.6-6.4c4.5-0.2,8.4-1.5,11.9-4.3c11.3-9,24.9-13.1,38.2-17.8
	c1.2-0.4,2.4-0.9,4.2-1.5c-5.1-4.3-9.6-8.4-13.6-13c-2.4-2.8-4.4-5.8-6.1-9.1c-3.9-7.3-3.1-12.2,2.7-18.6c-0.2,0.7-0.2,1.4-0.5,1.9
	c-2.3,4.5-6,9.4,2.7,11.3c0.1,0,0.2,0.2,0.4,0.3c5.8,6.9,6.5,6.4,16.4,1.9c2.6-1.2,4.9-2.7,8-2.2c7.4,1,14.9,1.9,22.3,2.6
	c11,1,22.1,4.5,32.9-1c0.2-0.1,0.5,0.3,1,0.6c-0.5,2.1-2.2,2.6-3.9,3.3c-5.1,2.2-10.4,2.1-15.7,1.5c-9.3-1.1-18.5-2.2-27.7-3.6
	c-6.7-1-13.1-1.4-19.2,2.5c-5.3,3.3-10.2,1.9-14.2-2.7c-1-1.1-2.4-2.8-3.7-1.8c-1.7,1.3,0.3,2.9,0.9,4.4c0.2,0.6,0.8,1.1,1.2,1.6
	c10.6,17.2,26.7,25.3,46.1,28.1c28.7,4.2,53.7-12.4,57.9-39.2c3.2-20.4-4.4-38-21-49.7C115.7-0.4,95.8-0.6,76,9.5
	c-5.9,3-11.2,7.1-15.4,12.4c-0.7,0.8-1.9,2.7-1,2.9c4.5,0.7,2,3.6,1.8,5.4c-0.6,7.2-2.6,14-4.3,21c-0.4,1.6-0.8,3.4-2.6,4
	c-2.3,0.8-3.1-1.2-4.2-2.6c0.6-7.7,3.9-14.6,5.7-21.9C60.8,10.5,77.3,7,93.3,2.1C94.5,1.8,95.9,2,97,1C101.7,1,106.3,1,111,1L111,1z
	 M67.1,118.1c-1.5-0.7-3.2-1.1-4.5-2.1c-1.9-1.4-3.2-0.8-4,1c-4.2,8.7-8.9,17.3-3.8,27.3c1.6,3.1,2.4,6.6,3.5,9.9
	c0.6,1.8,1.3,3.3,3.5,3.7c6.5,1.2,13,2.6,19.5,4c3.4,0.7,4.3-0.7,4.5-3.9c0.7-8.8,1.4-17.6,2.6-26.3c0.6-4.2-0.2-6.2-4.7-7.4
	C78,123,71.5,122.9,67,118c1.4,0.5,2.8,0.9,4.2,1.4c10.6,3.7,21.4,6,32.6,5.8c1.7,0,4,0.5,4.8-1.7c2.8-7.1,6.2-13.8,11.8-20.3
	c-15.8,2.6-30.1,0.7-44-4.7c-2-0.8-3.6-0.3-4.9,1.2c-1.5,1.6-3,3.1-4.4,4.7C63.1,109.2,63,113.7,67.1,118.1L67.1,118.1z
	 M227.4,191.6c-0.9-0.3-1.4-0.3-1.7-0.6c-4.4-4.9-9.7-4.7-15.1-2.4c-5.3,2.3-7.2,6.6-7.5,12.4c-0.4,8.7,4.6,13.1,11.3,16.5
	c8.9,4.4,16.9,2.4,23-5.5c6.7-8.7,8.5-18.7,6.3-29.3c-2.4-11.6-10.3-19.3-22.1-20.8c-15.1-1.9-26.8,4.4-35.2,16.9
	c-4.4,6.6-9.3,12.6-15.5,17.5c-2.1,1.6-3,3.4-2.5,6c0.9,4.8,1,9.6,0.8,14.4c-0.1,2.9,1.1,4.3,3.8,4.8c6,1.2,12,2.8,18,3.8
	c9.9,1.7,19.6,1.4,30.4-2.8c-6.9-1.2-11.8-3.6-15.8-7.6c-5.9-5.7-7.3-15-3.4-22.1c3.5-6.4,10.6-9.8,17.7-8.3
	C223.5,185.5,226.8,186.8,227.4,191.6L227.4,191.6z M139.8,150.8c9.9-8.5,16.1-17.9,16.8-30.3c0.5-9.3-5-18.4-12.7-21.4
	c-6.7-2.7-16.6,0.3-22.6,6.8c-4.7,5.1-7.4,11.4-10.2,17.6c-3.7,8.2-3.1,18.1-9.8,25.2c-1.8,1.9-0.2,3,1.9,2.9
	c3.1-0.1,5.8,1.1,8.6,2.4c4.3,2.1,8.8,3,13.6,2.7c6.3-0.3,9.6-2.8,11.9-8.5c1-2.5-0.1-2.8-2.2-3.1c-2-0.2-4.1,1.4-7.2-0.4
	c4.1-1.5,7.3-2.5,10.7-0.8C141.4,145.3,139.8,147.7,139.8,150.8L139.8,150.8z M34.7,230.6c4,0.2,7.5-1.4,11.4-2.8
	c-0.3,1.2-0.5,1.9-0.5,2.5c-0.2,1.4-1.2,3.2,0,4.3c1.3,1.2,2.7-0.4,4-0.9c4.8-1.7,9.6-3.8,14.5-5.2c5.8-1.6,10.5-3.8,11.4-10.6
	c0.2-1.7,1.3-3.5,2.4-4.9c1.9-2.3,1.1-3.6-1.1-5.2c-11.3-8.3-18.6-19.8-24.3-32.3c-1.6-3.6-2.7-3-4.5-0.4c-6.6,9.8-12.1,20-11,32.3
	c0.6,6.5,0.6,12.4-6.3,15.7c-0.3,0.1-0.4,0.8-0.5,1.1c2.8,2.1,4.8-0.7,7.4-1.6C36.7,225.7,34.9,227.6,34.7,230.6L34.7,230.6z
	 M33.4,140.9c2.8,0,5.7-0.2,8.5,0c4.6,0.3,7-1.6,8-6.1c3-13.5,10.3-24.8,18.8-35.3c0.8-1,2.3-1.8,1.2-3.3c-0.8-1.1-2.1-0.7-3.2-0.3
	c-9.5,2.6-18.6,6.3-27.6,10.1c-9.3,4-16,13.3-27.5,12.6c-2.3-0.1-2.4,2-1,4c4.7,6.6,4.6,6.7-1.3,12.1c-0.9,0.8-2.1,1.4-1.9,2.8
	c0.3,1.8,2,1.5,3.2,1.7C18.2,139.9,25.8,141.3,33.4,140.9L33.4,140.9z M87.1,177.9c0.3,4.3,0.7,8.6,1,12.9c0.1,2.2,0.9,3.7,2.9,4.8
	c6.3,3.7,13,6.5,20.1,8.5c2.2,0.6,3.1,0.2,3.6-1.9c1.7-6.9,4.9-13.2,9.7-18.3c3.5-3.7,2.9-6.2,0.2-10.1c-3.4-4.9-6.9-8.1-13.4-7
	c-3.7,0.6-7.6,0.1-11.4-0.4C87.1,164.9,87.1,164.8,87.1,177.9L87.1,177.9z M85.7,179.7c-0.2,0-0.3,0-0.4,0c0-3.8-0.1-7.7,0-11.5
	c0.1-2.6-0.8-3.9-3.6-4.3c-6.6-0.8-13.1-2.2-19.5-4.2c-2.3-0.7-2.9,0.2-3.7,1.9c-4.2,9.2-4.5,17.9,2.6,25.9c1.8,2,3.4,4.1,4.8,6.4
	c3,4.9,6.5,5.7,11.9,3.3c9.6-4.2,7.7-1.4,7.8-12C85.7,183.4,85.7,181.5,85.7,179.7L85.7,179.7z M107.2,127.4
	c-4.1-0.3-8-0.2-11.7-0.8c-3.6-0.6-4.9,0.6-5.2,4c-0.7,6.8-1.5,13.5-2.2,20.3c-0.9,8.3,2.9,13,11.3,13.9c0.2,0,0.3,0.1,0.5,0.1
	c5.5,0,10.9,0.9,16.4,0.3c2.3-0.2,3-1.8,3.6-3.6c0.4-0.9,0.8-2.2-0.5-2.4c-5.8-1-10.6-5-16.5-5.4c-6-0.5-6.8-1.7-2.9-6.3
	C105.1,141.4,105.3,134.3,107.2,127.4L107.2,127.4z M160.7,182.4c0-0.6,0.2-1.3,0-1.9c-4.1-12-4.5-23.9-1.3-36.3
	c1.5-6,1.5-12.4-0.4-18.6c-1.9,6.5-4.7,12.5-8.9,17.7c-0.8,1-1.6,2.2-2,3.4c-2.9,8.1-2.4,16.2,0.1,24.4
	C150.1,177.5,157.5,177.5,160.7,182.4L160.7,182.4z M73.4,201.3c7.7,9.4,29.1,15.5,40.4,11.9c2.8-0.9,2.3-2.2,1.6-4
	c-0.8-2.1-2.8-2.2-4.5-2.7c-7.4-2.1-14.6-4.6-20.9-9c-1.3-0.9-2.7-1.6-4.2-1.1C81.7,198.1,77.3,198.9,73.4,201.3z M145.1,149.8
	c-7.1,4.8-12.8,9-20.3,9.8c-3.3,0.3-4.8,4.9-2.8,7.9c1.4,2.2,3.2,4.2,4.7,6.4c2,3,4.1,4.4,7.7,2.1c2.4-1.5,5.4-1.6,8.2-1.5
	c2.3,0.1,3.5-0.9,2.9-3.4C143.8,164.5,143.2,157.8,145.1,149.8L145.1,149.8z M173.4,121.2c-0.3,4.3-0.4,7.2-3.4,9
	c-0.6,0.4-0.9,1.8-1,2.7c-0.6,6.4,0.4,12.6,1.5,18.8c0.2,1.3,1,3.3,2.3,2.6c2.2-1.2,5.4-3.1,5.6-5
	C179.3,140,178.4,130.9,173.4,121.2L173.4,121.2z M52.9,171.2c6.8-10.7,4-20.3-2.2-30.6C49,151.5,49.6,161.3,52.9,171.2z
	 M151.3,81.1c-3,3.4-5.6,6.8-8.9,9.6c-1.2,1-3.1,1.9-2.9,3.8c0.2,2.3,2.7,1.2,4.1,1.9c1.7,0.8,3.6,1.3,5.9,2.1
	C147.6,92,152.2,87,151.3,81.1L151.3,81.1z"/>
<path d="M123.4,59.9c3.2-6.2,2.8-11.8,2.8-17.4c-1.9,4.8-3,9.9-4.9,14.7c-0.9,2.4-2,3.1-4.3,2.6c-1.6-0.4-3.3-0.5-4.9-0.6
	c-9.5-1-10.7-2.5-9.6-12.1c0.8-6.5,2.3-12.8,6.7-17.9c2.8-3.3,6.3-5.8,10.8-4.8c4.6,1,6.5,4.8,7.4,9.1c1.4,7.1,1.7,14.2-0.3,21.2
	C126.7,56.2,126.5,58.2,123.4,59.9L123.4,59.9z M122.7,31.2c-0.3-3-1.3-5.6-5-5.4c-3.4,0.1-5.8,1.7-5.8,5.4c0,3.5,2.3,5.2,5.4,5.3
	C120.6,36.7,122.4,34.6,122.7,31.2z"/>
</symbol>

<symbol id="venusaur" viewBox="0 0 475 475" style="enable-background:new 0 0 475 475;">
	<title>Venusaur</title>
<path d="M290.8,398.4c-4.4-2.6-9.8-3.1-14-6c-1-0.7-2.2-0.4-3.2,0.4c2.9-3.4,3.3-11.1,0-12.5c-3.4-1.5-3.5,3.4-5.9,4.6
	c3.9-7.2,3.3-15.5,5.2-23.2c0.8-3-0.1-4.5-3.5-3.6c-6.3,1.5-12.6,0.3-18.9-0.1c-13.8-0.8-27.5,1.6-41.3,0.3
	c-5.6-0.5-10.6-2.4-15.3-5.4c-2.8-1.8-4.6-2.4-5.4,2.2c-0.6,4-2.3,8-4,11.8c-1.3,2.9-2.7,5.5-1.7,8.9c0.9,3.1-1,3.6-3.7,3.1
	c-7.2-1.2-13.6,0.6-19,5.5c-2.1,1.9-3.5,2.2-5.1-0.3c4.2,1.8,5.3-1.4,6.1-4.1c0.8-2.8-1.7-4.5-3.2-6.4c-0.8-1-2.2-1-3.1,0
	c-1.3,1.4-3,2.8-2.7,5.1c0.2,2.3,2.4,3.5,3.1,5.5c-4-3.4-7.9-6.7-13.7-6.5c-2.7,0.1-5.3,0.1-7.8,0.9c-3.7,1.1-5.4-0.5-4.2-4
	c1.9-5.6,0.3-9.9-3.7-14c-3-3.1-5.5-6.6-8.2-10.1c-3.2-4.1-7.6-5-11.3-1.4c-2.9,2.9-5,2.7-7.8,0.1c-4.3-4.1-10.1-3.5-15.4-3.9
	c-1.4-0.1-2.9,0.5-4.4,0.6c-4.3,0.4-5.2-0.6-3.7-4.8c0.6-1.7,1.7-3.3,2.3-5c1.9-5.4,3.2-10.4-1.5-15.6c-4.5-4.9-7.1-11.2-8.7-17.8
	c-0.7-2.9-4.6-4.8-3.1-8c2.4-5.1,1.9-10.7,3.1-16c1.9-8.3,4.4-16.3,9.2-23.6c2.2-3.3,0.7-7.5,1.9-11.2c1.2-3.6,1.8-7.3,1.7-11.3
	c-2.5,5.3-4.9,10.6-7.4,15.9c-3.3,7-4,7.3-11.5,6c-6.7-1.2-8.6-4.8-5.6-11c0.3-0.6,0.4-1.2,0.9-2.7c-2.5,1.1-3.6,2.6-4.8,4
	c-1.3,1.5-2.6,3.1-3.9,4.6c-3.6,4.2-10.6,4.9-14.9,1.7c-1.3-1-0.7-1.5,0-2.3c1.1-1.4,2.7-2.4,3-4.9c-3.3,1.1-6.5,2.1-9.5,3.2
	c-2.4,0.9-3.5,0.2-3.2-2.4c0-0.2,0-0.3,0-0.5c-0.3-11.6-0.2-11.5,10.4-16.2c4.2-1.8,8.3-3.9,13.7-6.4c-4.3-0.7-7.3-1.2-10.3-1.6
	c-2.4-0.3-2.7-1.3-1.5-3.3c3.5-5.9,6.4-7.6,13.2-6.8c1,0.1,2,0.2,3,0.2c2.9,0.1,5.8,1.1,7.5-3c0.8-2,3.9-3,5.8-4.6
	c1.5-1.2,5.1-2.3,0.8-4.6c-0.2-0.1-0.4-0.9-0.3-1.3c0.5-2.5,7.8-6.8,10.4-6c4.9,1.4,9.8,2.9,14.8,4.4c-0.2-2-3.2-2.4-2.3-4.3
	c0.8-1.6,3-0.8,4.5-1.4c8.8-3.1,16,1.3,23.9,6.2c-1.9-4.1-5.4-5.2-6.5-8.9c6-1.3,11.8-2.9,17.7-0.3c0.7,0.3,1,0.9,2-0.1
	c5.1-5.2,12.3-5.1,17.7-3.2c4,1.4,7.7,1.1,11.5,1.8c1.3,0.3,3.1,0.4,3.5-1.1c0.6-2.2-1.8-2-3-2.5c-2.3-1-4.7-1.5-7.1-2.3
	c-3.3-1-6.4-2.3-5.5-7.2c-2.1,1.5-3.4,2.8-5.8,1.9c-9.6-3.4-19.3-6.2-28.2-11.3c-3-1.7-5.7-4.1-9.1-5.2c-2.9-0.9-1.5-2.8-0.9-4.4
	c4.1-10.5,12.2-17.7,20.3-24.9c1.1-1,2.3-1.8,2.8-3.7c-7.2,4-14.6,7.9-21.6,12.2c-5.9,3.6-11.8,7.6-16.9,12.4
	c-1.6,1.5-3.9,2.9-4.5-0.2c-1.7-8.1-1.9-15.8,1.6-24.1c7.5-17.4,24-21.2,38.6-28.1c3-1.4,6.3-2.1,9.6-2.6c4.9-0.8,9.2-2.4,13.5-5.4
	c12.1-8.6,26-13.4,40.9-14.7c4.3-0.4,8.4-2.2,12.6-2.5c11.1-0.7,20.9,2.7,28.8,10.9c-1.9,0.2-3-1.2-4.4-2.1
	c-4.5-2.8-9.1-5.9-14.6-5.9c-12.3-0.1-24.6,0.6-36.6,3.9c-8.9,2.5-17,6.6-25.8,12.6c20.7-1,39.9-1.1,58.8,5.1
	c-2.6-2.3-2.5-5.5-4.1-7.7c-0.8-1-2.7-1.5-2-3.1c0.7-1.5,2.6-1.2,4-1.5c1.3-0.2,2.8-0.2,3.9,0.3c4.4,1.9,9.1-2.3,13.4,0.8
	c3-3.1,5.3-0.9,8.2,0.6c1.1,0.6,0.2-1.2,0-2c2,1.3,3.6,4.3,6.5,1.3c-2.7,7-3.6,7.3-8.9,2.4c-0.1-0.1-0.2-0.2-0.3-0.4
	c-1.1-1.7-2.3-2.4-3.8-0.2c-1.1,1.6-2.2,2.8,0.2,4.4c1.8,1.1,3.3,2.8,4.6,4.5c1.8,2.2,3,2,4.4-0.3c2.1-3.5,4.4-3.8,6.6,0
	c1.3,2.2,2.9,2.1,4.3,0.2c1.2-1.6,4.1-2.1,3.4-4.9c-0.7-2.8-6.7-7.5-9.2-7.4c1.8-4.4,3.8-1.2,5,0.2c2.1,2.4,3.5,2.5,5.9,0.2
	c4.3-4.2,10-5.8,15.6-7.3c12.5-3.3,24.7-1.7,36.7,2.7c11,4,22,7.9,29.8,17.3c1.4,1.7,3.4,1.9,5.4,2.2c12.5,2.3,24.5,6.2,35.6,12.4
	c2.9,1.6,5.6,3.5,7.4,6.5c-4-2.2-8-4.5-12-6.7c-2.2-1.2-4.2-2.7-7-0.3c-1.9,1.6-4.4,0.9-6.9-0.5c-4.4-2.4-7.8-6.5-12.4-8
	c-12.4-4.2-25.5-4.8-38.4-5.2c-7.8-0.2-16.1,0.1-24,4.1c1.8,1.2,4.2,1.4,3.8,3.5c-0.6,3.1-3.8,1.6-6.1,2.9c18.4-0.6,35.8,2.5,52.6,9
	c3.3,1.3,6.6,4.5,10.5,0.9c0.3-0.3,1.6,0.2,2.3,0.6c4.9,3,9.3,1,13.5-1.3c1.8-1,3.5-2,5.6-1.6c1.3,0.2,3,0.6,2.5,2.4
	c-0.5,1.6-1.9,0.7-2.9,0.2c-1.5-0.8-3.4-1.8-4.2,0.4c-1,2.6,1.7,3,3.2,3.4c4.9,1.4,9.9,1.9,15.1,1.8c4.7-0.1,5.5-1.7,4.5-5.6
	c6,5.9,11,12.2,11.3,21.4c0.1,2.9,1.6,5.8,0.6,9c-1.6,5.4-2,5.6-6.4,2.3c-4.3-3.2-9-5.7-13.7-8.1c-1-0.5-2-1.1-3.6-0.5
	c2.8,3.6,6.5,6.1,8.6,9.9c1,1.9,3.5,3.8,0.9,6.1c-2.6,2.2-3.6,7.4-8.9,5.1c-0.4-0.2-0.9,0-2.1,0.1c3.2,4.2,0.1,5-2.7,6.4
	c-10.2,5.2-20.9,9.5-31.7,13.4c-4.1,1.5-8.1,2.3-11-1.9c-2.1,0.8-0.5,2.1-0.8,3c-1.1,2.9-1.5,3.2,2.5,2.6c4.7-0.7,10.6-2.8,14.9,2.2
	c0.2,0.3,1,0.3,1.4,0.1c5.3-2.5,10.7-0.9,15.6,0.5c8.4,2.4,17.1,2.2,25.5,4.7c2.7,0.8,3.7,1.5,0.6,3.9c13.1-2.9,22.2,5.1,33.1,8.8
	c-1.9,2.9-5,1.9-6.7,4.1c15.3,4,29.4,11,44.1,16.1c3.7,1.3,3.5,2.2,1.2,4.4c-0.2,0.2-0.5,0.4-0.7,0.7c-6.1,8.6-13.3,7.3-21.3,2.8
	c5.5,4.4,11.1,8.7,16.9,13.3c-8.6,3.9-17,3.2-25.2-2c0.6,3,3.5,4.1,4.5,6.4c-12.4,3.1-21-1.7-26.9-12.5c-1.4,1.9-0.1,2.6,0.4,3.2
	c3.4,5.4,5.1,5.2-3.5,7.4c4.2,5.2,7.4,10.8,10.7,16.3c12.9,21.5,8.9,44.6-7.7,62.9c-3.5,3.9-5.6,7.2-2,12.1c1.2,1.6,2.4,4.2,1,5.9
	c-1.2,1.5-3.9,0.6-5.7-0.2c-5.7-2.4-10.4,0.6-14.9,3.1c-3.9,2.1-7.4,3.8-11.4,0.5c-1.3-1.1-2.3-1.1-3.1,0.6
	c-1.4,3.1-4.3,5.3-4.4,9.2c-0.1,2.6-1.9,5.5-4.3,6.4c-8.3,3.2-11.7,11-16.6,17.2c-3.1,4-6.4,8.2-7.3,13.7c-1.7-2.3-0.5-5-1.3-7.3
	c-0.4-1.1-0.4-2.5-1.6-2.9c-1.5-0.6-2.4,0.7-3.3,1.7c-0.5,0.5-0.9,1-1.3,1.5c-1.3,2.1-4.6,4.1-3,6.7c1.7,3,5.1,4.7,8.7,5.1
	c0.6,0.1,1.3-1.7,1.7,0c0.3,1.2-0.8,2-1.8,1.7c-2-0.6-4.1-1.4-5.9-2.6c-7.2-4.6-14.2-3.1-21.3,0.1c-0.7,0.3-1.6,0.4-2.4,0.6
	c5-5.9,5.3-9.4,1.6-16.3c-0.9-1.6-1.6-2.3-3.4-1.3C292.4,386.9,289.5,393.4,290.8,398.4L290.8,398.4z M204.3,139.8
	c-0.8,0.8-1.6,1.7-2.4,2.4c-11.4,9.3-21.1,20-27.4,33.9c4.8-3.9,9.8-4.3,15.3-2c2,0.8,2.9-0.8,4.1-2c1.6-1.8,3-4,6.2-2.2
	c1.9,1.1,2.1-0.9,2-2.2c-0.3-8.6,2.4-16.7,5-24.7c0.4-1.2,2.1-2.3,1.1-3.6c-1.4-1.7-2.6,0.8-4,0.6c8.7-8.9,17.8-17.4,32.1-17.8
	c-4.8-5.4-9.3-9.6-15.1-11.9c-11.8-4.8-24-6.1-36.7-4.3c-15,2-29.3,6.1-42.9,12.4c-2.6,1.2-5.6,3.7-4.5,5.8c2.2,4.6-0.8,6.7-2.8,9.4
	c-2.6,3.4-5.6,3.8-8.1,0.5c-2.3-3.1-3.9-2.2-6-0.3c-1.5,1.4-3.2,2.8-4.1,4.8c1.3,0.3,2.2-1.5,3.7-0.2c5.5,4.8,9.5,4.6,14.7-0.3
	c2.4-2.2,4.8-5.1,8.4-4.9c2.9,0.1,5.6-0.2,8.2-1.6c0.6-0.4,1.8-0.6,2.3-0.3c1,0.7,0.3,1.8,0.1,2.7c-0.8,2.7-3.7,4.6-3.6,8.9
	c3.8-4,6.4-2.3,9.3,0.1c3.5,2.8,10.6,2.3,14.3-0.5c0.4-0.3,0.8-0.6,1.2-0.9c3.2-2.3,5.9-3.9,9.1,0.8c1.6,2.4,6.1,4.7,8.7,2.1
	C195.8,140.9,199.9,140.4,204.3,139.8L204.3,139.8z M192.7,232.3c-2,0.8-4,1.5-6,2.3c-1.8,0.7-3,0.3-3.2-1.7
	c-0.5-3.8-2-7.8-1.1-11.3c1.2-4.8-1.1-5.3-4.5-6c-11.6-2.2-23.4-3-35.1-3.9c-5.9-0.4-6.2-0.1-4.4,5.4c2.9,8.7,6.4,17.2,8.5,26.1
	c0.3,1.3,1.3,3.1-0.3,4.1C137.8,253,133,262,126.9,270c-2.9,3.8-6.5,8.5-5.5,13.5c1.5,7.4,5.4,14.6,10.9,19.2
	c5.6,4.7,13.8,6.2,20.1,10.8c-1.6-3-3.7-5.5-5.1-9.8c4.4,3,6.1,6.5,7.9,9.9c5.3,9.9,10.7,19.6,20.6,25.8c6.4,4,12.4,8.4,18.9,12.2
	c5.8,3.4,11.9,5.5,18.9,5.4c6.2-0.1,12.3-0.8,18.4-0.8c10.8,0,21.6,0.4,32.4,0.5c3.1,0,6.5,0.2,9.1-1.9c13.7-10.8,27.9-21,35.9-37.4
	c2.5-5,6.2-9.6,11.8-12.2c-1.9,2.4-3.8,4.7-6.5,8.1c5.2-3,9-5.7,13.2-7.4c10.9-4.3,14.2-14.3,18.5-23.6c0.8-1.8,0.6-3.9-0.6-5.7
	c-6.8-10-12.6-20.8-21.4-29.3c-1.5-1.4-1.3-2.2-0.9-3.7c2.4-9.9,6.6-19.1,9.6-28.8c1.2-3.9,0.5-5.1-3.4-5.2
	c-12.9-0.6-25.5,1.9-38.1,3.9c-4.5,0.7-6.2,2.3-4.2,6.8c0.7,1.6,1.5,3.8,0.1,5.2c-1,0.9-2.8-0.3-4.2-0.8c-1-0.4-2-0.7-3.2-0.1
	c4.2,3.3,4.7,7.2,1.6,11.6c-1,1.5-1.9,3.1-3,4.6c-8,10.6-6.2,10.2-15.7,2.5c-0.1-0.1-0.3,0.1-0.6,0.1c0.4,0.5,0.7,1,1.1,1.5
	c4.6,6.1,5,6.6-1,11c-5.2,3.8-10.8,6.9-15.1,11.8c-0.7,0.7-1.5,1.3-2.3,2c-2.9,2.4-5.5,4-6.9-1.5c-0.5-2-1.7-3.9-2.7-5.9
	c-2.1,3.8-0.7,9.9-4.5,11.2c-3.6,1.3-7.4-2.8-11.1-4.6c-3.7-1.8-6.1-4.1-3.4-9c-3.6,4.1-5.9,2.1-8.1-0.9c-0.7-0.9-1.5-1.8-2.5-2.5
	c-2.2-1.7-2.1-3.5-0.4-5.4c2.5-2.8,5-5.5,7.5-8.2c-2.1,0.4-3.8,1.3-5.5,2.2c-10.6,5.5-10.4,5.4-15.7-5.1
	C190.4,236.9,189.9,234.8,192.7,232.3L192.7,232.3z M343.8,268.5c1,1.8,1.5,3.2,2.5,4.3c4,4.8,3.2,9.6,0.8,14.8
	c-4.6,10.1-10.4,18.5-21.7,22.7c-7.4,2.8-14.2,7.5-17.9,15.1c-2.4,4.9-5.9,8.9-9.9,12.4c-6.3,5.5-12.6,10.9-19,16.2
	c-1.6,1.4-2.7,2.9-3.1,4.9c-0.7,3.8-1.5,7.5-2,11.3c-0.5,3.4-1,6.4,2.2,9.4c2.2,2.1,3.9,6,3.7,9c-0.3,4.6,3.1,3.9,5.3,5.1
	c2.7,1.5,3.2-1,4.4-2.5c1.8-2.4,3.6-4.8,5.7-6.9c3.8-3.8,6.5-3.2,8.6,1.7c1.3,2.9,1.9,6,4.6,8.5c3.5,3.1,6.6,3.5,9.5-0.3
	c1.9-2.5,4-4.9,6.1-7.3c1.6-1.8,3.5-3.2,6-1.3c2,1.6,3.6,0.4,4.6-1.1c6.4-9.5,14.9-17.3,21.5-26.6c19.8-27.8,20.3-58.2,12.3-89.8
	c-0.9-3.4-2.8-6.9-6.4-6.8c-3.3,0.2-4.5,3.9-5.1,7.1c0,0.2-0.5,0.4-1,0.8C352.1,264.8,348,268,343.8,268.5L343.8,268.5z
	 M164.9,361.8c0.3,0.4,0.5,0.7,0.8,1.1c5.6-2.9,11.8-4.6,16.1-9.9c2.6-3.1,3.1-5.1-1.1-7.8c-8.3-5.2-16.7-10.5-21.1-19.9
	c-2.1-4.4-5.4-7.5-9.1-10.3c-4.6-3.5-9.8-5.5-15.1-7.7c-1.9-0.8-3.8-1.4-5-3.1c-4-5.5-7.9-11.1-10.5-17.5c-1.4-3.3-0.9-6.3,0.6-9.5
	c3-6.7,7.8-12.3,11.8-18.5c-4.4-0.4-8.6-0.2-12.5-1.3c-5.4-1.4-7.8,0.9-10.1,5.3c-8.7,16.8-10.9,34.3-7.1,52.8
	c0.3,1.4,2.2,3.4-1.3,4c-1,0.2-0.7,3.4,0.9,3c3.1-0.8,2.9,1.5,3.7,2.9c5.1,9.3,9.2,19.2,16.2,27.5c1.1,1.4,1.8,3.4,3.7,3.8
	c4.6,1.1,9,2.6,13.2,4.6c5.5,2.6,11.1,3.1,16.9,0.4c3.7-1.7,7.7-2.8,12.9-4.6C166.9,359.4,165.9,360.6,164.9,361.8L164.9,361.8z
	 M242.9,121.9c9.5,1.6,18.3,3.1,25,9.6c6.4,6.1,12.6,12.3,18.8,18.5c-2.5-6.4,1.2-6.1,5.5-6.6c3.6-0.4,6.6,1.1,10.5,1.9
	c-1.7-3.5-1.3-6.6-1.6-9.7c-0.6-4.5,1.7-3.7,4-2.6c4.1,2,7.5,4.9,10.9,7.9c2.4,2.1,0.8,3.4-1.3,3.5c-7.1,0.1-10.3,5.3-13.9,10
	c-2.4,3.2-2.1,6.1,1.2,7.9c3.6,2,6.5,7.8,11.7,3.1c2.2-2,4.4-4.2,6.1-6.6c3.6-5.1,4.4-10.4,0.6-16c-1.8-2.7-2.9-5.8-4.2-8.8
	c1.5-1,2.7-0.3,3.4,0.4c5.7,5.3,12.8,8.2,19.1,12.6c0.9,0.6,1.8,1.8,3,0.8c0.9-0.7,0.5-1.9,0.3-2.8c-0.5-3.8-3.5-5.4-6.3-7.2
	c-2.9-1.8-6.7-3.4-6.1-7.6c0.6-4.2,4.6-2.8,7.3-3.4c1.2-0.2,2.6-0.4,2.9-1.7c0.5-1.9-1.5-1.9-2.5-2.4c-8.3-4.2-16.7-8.1-25.9-10.1
	c-16.2-3.5-32.4-5.8-48.8-1.3C255.4,113.2,248.7,115.9,242.9,121.9L242.9,121.9z M62.5,232c-2.8,5.2-5,10.5-7.5,15.7
	c-0.5,1.1-1.6,2.3-0.3,3.6c3.2,3.2,13.2,1.1,15.5-2.9c5-8.8,7.4-18.9,13.5-27.1c1.3-1.8,0.9-3.5-1.5-4.3c-0.9-0.3-2.2-0.3-1.9-1.7
	c0.2-1.1,1.3-1.5,2.2-1.8c3.5-1.1,7-2.1,10.5-3.1c1.4-0.4,2.9-0.8,3.6-2.4c2.1-5.2,5.7-7.6,10.8-7.2c2.3,0.2,4.3-0.3,5.6-2.4
	c0.4-0.7,1.2-1.7,0.5-2.2c-2.7-1.8-5.4-5-8.8-3.2c-4.7,2.6-8.7,2.3-13.2-1.4c1.9,3.5,4.8,4.7,6.6,6.9c-1.4,1.5-2.4,0.5-3.5,0.2
	c-5.7-1.9-11.5-3.5-17-5.6c-4.8-1.9-7.2,0.8-9.9,4c4.3,2.3,8.8,3.6,12.5,7.6c-11.6-3.8-13.1-3.5-19,3.6c1,1.6,3.9,1.1,4.2,4.5
	c-5.6-0.4-11-0.2-16.3-1.2c-5.7-1-9.2,1.1-11.6,6.2c5.3,2,11.2,0.8,17.5,4.3c-4.8-0.1-7.6,1.6-10.5,3c-4.3,2.1-8.5,4.7-13.1,6.1
	c-5.4,1.6-6.7,4.8-6.2,9.9c0.3,3,1,3.9,3.9,2.9c4.2-1.5,8.5-2.9,13.8-4.7c-2.7,3.2-4.5,5.5-6.4,7.8c-1.4,1.6-1.6,2.6,1,3.4
	c3.8,1.2,6.6,0.5,9.3-2.6C51.5,242.2,56.2,236.4,62.5,232L62.5,232z M402.6,299.3c1.6-1.5,3.6,2,4.5-0.6c1.7-4.8,5.2-9.1,4-14.8
	c-2.5-11.1-8.5-20.5-14.3-29.9c-0.6-1.1-1.6-2.5-3.2-1.6c-2.5,1.5-5.5,1.4-8.1,2.4c-3.6,1.4-5.6,3.8-4.8,8.1
	c1.2,6.1,1,12.3-0.2,18.4c-2,10.5-5.4,20.9-5.1,31.8c0.1,2.6-0.3,5.8,3.4,4.9c3.3-0.8,7.7-0.4,9.3-4.7c0.3-0.9,1.1-1,1.5-0.5
	c2.5,3.4,2.8,0.2,3.4-1.2c1.5-3.3,4.3-5.3,7.2-6.5C403.6,303.5,405,302.2,402.6,299.3L402.6,299.3z M119.6,100.7
	c4.1-0.8,4.8,1.7,5.4,3.4c0.8,2.2-1.9,2.7-3.1,3.8c-5.1,4.5-11.4,7.4-16.1,12.5c-1.4,1.6-4.7,2.9-2.7,5.6c1.7,2.2,5,2.3,7.4,1
	c6.9-3.9,14.6-6.8,17.9-15c0.5-1.3,1.5-2.2,2.6-1.5c1.7,1.1-0.2,1.8-0.8,2.7c-0.7,1.1-3.2,2.8-1.5,3.2c2.8,0.7,5.7,2.8,8.9,1.2
	c19.7-9.8,40.4-15,62.5-14.8c2,0,3.1-0.6,3.5-2.6c0.4-2.2-1.5-2.5-2.7-2.8c-4.1-1.2-8.3-2.4-12.5-3.2c-11.9-2.2-23.9-1.2-35.8-1
	C141.5,93.4,130.7,94.9,119.6,100.7L119.6,100.7z M100.2,262.2c-0.9,0.3-1.6,0.3-1.8,0.6c-2.7,3.9-7.9,3.4-11.3,6.2
	c-0.6,0.5-2,0.8-2.2,0c-0.6-2.9-5.6-5.3-1.1-8.8c0.7-0.6,1.1-1.7,1.6-2.5c1.2-1.8,0.9-3.9-0.5-5c-1.5-1.2-3.5-0.3-4.9,1
	c-0.7,0.7-1.2,1.6-1.8,2.4c-7.3,10.7-9.2,23-10.8,35.4c-0.9,7,0.6,9.2,7.6,12.2c1.1-6.5,1.8-7.1,6.4-6.1c-0.3,2-5,2.6-2.5,4.8
	c3,2.6,4.5,6.5,7.8,8.5c2.5-1.1-0.3-6,4.2-5.1c4.3,0.9,6.4-0.7,7-5C99.8,288.2,97.9,275.2,100.2,262.2L100.2,262.2z M418.4,227.7
	c6.1,0.4,11.2,2.9,16.3,5.2c6.9,3,10,1.9,14.4-5c-7.1-3.6-14.7-6.1-22.1-8.9c-5-1.9-10-3.6-15-5.3c-1.3-0.4-2.7-0.6-3.8,0.5
	c-1.1,1.2-0.2,2.1,0.7,2.9c1.8,1.6,1.5,3.4-0.1,4.7c-1.9,1.4-2.3,2.8-1.6,5.1c0.8,2.4-0.5,3.2-2.6,1.8c-3-2.1-6.5-2.5-10.5-4
	c2.4,4,4.8,6.9,5.9,10.3c3.8,11.2,9.9,15.6,21.2,14.3c-3.2-4.7-8.3-7.9-11-14.4c6.9,3.5,11.6,7.7,16.6,11.5c5,3.8,9.5,3.8,15.1-0.6
	C434.2,239.6,426.3,233.7,418.4,227.7L418.4,227.7z M210.2,94.6l-1.4,0.7c0.9,3.7,1.1,8.8,4.9,9.9c8.9,2.8,16.1,7.7,22.6,14
	c1.7,1.7,2.6,1.7,4.8,0.1c6-4.5,12.2-9.1,19.7-10.3c7-1.2,9.1-6.1,11.2-11.6c-3.1,2.3-6,4.6-7.7-1.2c-0.6-1.9-1.7-1.6-2.8-0.4
	c-1.1,1.2-2.4,2.3-3.5,3.6c-1.9,2.2-3.4,1.5-4.8-0.4c-0.8-1.1-1.6-2.2-2.1-3.4c-1.3-2.8-2.8-2.9-4.7-0.6c-0.7,0.9-1.7,1.6-2.4,2.5
	c-2.1,2.8-4.2,3-6.1-0.2c-2-3.4-3.6-2.5-5.1,0.4c-1.8,3.3-3.8,2.9-5.9,0.1c-0.7-0.9-1.7-1.7-2.3-2.6c-2.2-3.3-3.5-2.5-4.7,0.8
	c-2.2,6-2.9,6-7.5,1.2C211.5,96.5,210.9,95.5,210.2,94.6L210.2,94.6z M234.5,254.7c2.2,1.8,2.3,3.5,2.9,5
	c4.4,10.6,4.3,10.6,12.8,2.5c2.4-2.3,2.3-3.5,0.4-6.4c-4.8-7.6-12.6-12.5-17.1-20.3c-1.6-2.9-5.2-4.4-8.7-1.9
	c-3.6,2.6-3.8,5.5-0.3,8.6c2.1,1.9,1.3,3.4-1.2,3.6c-3.5,0.4-6.5,2.4-10.1,2.5c-3.2,0.1-5,2.9-5.8,5.4c-0.6,2.1,1.8,4,3.6,5
	c2.6,1.5,3.5-1.7,5-2.9c2.3-1.8,3.7-4.8,7.4-6.3c-1,2.8-1.7,4.8-2.5,6.7c-4.1,10.1-4,10,6.2,13.8c2.3,0.9,3.3,0.6,3.8-1.8
	C232,263.9,233.2,259.6,234.5,254.7L234.5,254.7z M326.8,95.2c-0.4-0.5-0.6-0.9-0.9-1.3c-1-0.9-2-1.9-3.1-2.5
	c-11.4-6.6-23.1-12-36.2-14.4c-11.8-2.2-22.4,0.7-33,5c-2.5,1-4.7,2.8-6.9,5.8c4.1,0,5.5-2.9,7.6-4.3c2.8-1.9,4.6-2.4,6,1.3
	c0.6,1.7,1.5,3.8,4.3,2c3.4-2,7.2-2.3,10.4,0.2c2.9,2.3,3.9,5.9,4.3,9.9C294.9,92.3,310.7,94.9,326.8,95.2L326.8,95.2z M300.9,181.8
	c-10-17.1-20-34.1-35.2-47.2c-0.2,5.7,1.9,10.5,3.7,15.4c2.3,5.9,2.7,12,2.7,18.1c0,3.1,0.3,4.6,3.5,5.8c2.7,1,4.5,3.6,8,1.4
	c3.5-2.2,12.7,0.4,13.1,4.2C297.2,183.8,299.5,181.1,300.9,181.8L300.9,181.8z M83.6,227.1c-0.6,4-0.9,7.9-1.9,11.5
	c-1.1,3.7,0.9,6,2.5,8.7c0.7,1.2,1.8,1.3,3.1,1.1c1.3-0.3,1.7-1.2,2-2.5c1.2-5.1,2.4-10.1-3.7-13.3
	C83.6,231.6,84.4,229.1,83.6,227.1L83.6,227.1z M99.4,222.4c1.6-1,4.3-2.2,3.9-5c-0.3-2.1-2.7-5.8-3.7-5.7c-3.3,0.5-7.7-0.1-9.5,3.8
	C89.4,217.3,96.2,222.5,99.4,222.4L99.4,222.4z M261.2,91.9c-1.3-2.6-2.1-5.9-4.1-7.5c-1.2-0.9-3.7,2.1-5.2,3.8
	c-2.9,3.1,1.1,4.5,1.9,6.6c0.4,1.2,1.3,3.3,3.2,2.2C258.7,96,260.6,94.6,261.2,91.9z M270.3,208.2c1.1,0.2,2.3,0.4,3.4,0.6
	c6.3,1,7.1,2.4,5.1,8.2c-0.2,0.5-0.5,0.9-0.6,1.4c-0.3,3.1,2.3,2.1,3.8,2.7c1,0.4,2.8,0.7,2.5-1.1c-0.8-3.9-1.5-9-4.7-10.5
	c-4.8-2.3-10.4-3.1-15.9-3.4c-1.3-0.1-2.3,0.5-2.5,1.9c-0.2,1.1,0.3,2,1.1,2.6c1.1,0.9,2.2,0.8,3.1-0.2
	C266.8,209.1,268.2,208,270.3,208.2L270.3,208.2z M264.3,251.1c-6-0.9-11-4.3-17.2-3.2c1.6,2.9,4.5,3.8,6.6,5.6
	C258.1,257.3,261.3,255.9,264.3,251.1L264.3,251.1z"/>
<path d="M327.6,287c-0.5,3.8-2.3,6.4-5.6,7.6c-5.1,1.9-11.5,2.3-10.2,11.2c-2.9-2.9,0-5.7-2.9-7.7c-1.5,8.3-8.1,14-9.4,22.2
	c-0.5,3.5-2.9,5.7-5.5,8c-6.8,5.9-13.4,12-20,18.1c-4.7,4.3-10.2,6.3-16.5,5.7c-14.3-1.5-28.6,0-42.9-0.4
	c-10.4-0.3-18.4-4.9-26.3-10.6c-5.4-3.9-10.4-8.3-15.6-12.5c-1.7-1.4-4.1-2.8-3.9-5c0.8-8.4-7.2-13.2-8.1-20.8
	c-0.1-1.1-1.2-1.4-2.4-1.4c-1.4,2.4,0.7,4.7,0.4,7.2c-0.5-0.1-1-0.2-1-0.3c-1-5.6-3.4-9.4-9.7-10.5c-2.7-0.5-4.7-3.3-5.7-7.1
	c9.6,9.2,21.6,9.6,32.9,11.8c12.7,2.5,25.1,4.8,37.3,10c14.1,6,29.4,6.3,43.3-1.7c8.8-5,18.2-7.1,27.8-9.2c9.6-2.1,19.2-4,28.8-6
	C318.4,294.3,323.9,292.3,327.6,287L327.6,287z M178,315.7c0,0-0.1,0.8,0.1,1.6c1.1,4.9,3.9,8.8,7.3,12.3c3,3.1,8.5,2.7,10.8,7.2
	c0.3,0.6,1.5-0.1,2.1-0.7c1.6-1.5,3-0.8,3.4,0.9c1.1,3.9,4.3,4.5,7.4,4.9c16.6,2,33.2,1.7,49.8,0.3c3.1-0.3,6.3-1.1,7.5-4.7
	c0.5-1.4,1.6-2.3,3-1c2.8,2.6,3.2,0.4,3.8-1.7c0.5-1.7,1.1-4.7,3-3.7c4.7,2.5,6-1.4,7.9-3.7c6.5-8.2,6.8-14.6,1.5-21.1
	c-1-1.1-1.9-2.6-3.6-2.2c-7.2,1.8-15,2.6-21.2,6.6c-16.4,10.6-33.3,9.6-50.4,3.1c-7.5-2.8-14.7-6.1-22.8-7
	C180.7,306.1,178.4,307.7,178,315.7L178,315.7z"/>
<path d="M296.6,236.7c9.4-10.2,18.9-19.1,30.8-25c0.7-0.3,1.7-0.6,2.3-0.3c1.1,0.6,0.7,1.7,0.3,2.6c-3.3,9-6.7,18-10,27.1
	c-0.8,2.1-1.6,1.8-3.2,0.9C310.9,238.9,304.4,237.6,296.6,236.7L296.6,236.7z"/>
<path d="M171.1,239.1c-8.4-0.3-14.4,2.1-20.1,7.1c-4-9.4-8-18.6-10.6-28.3c-0.6-2,0.6-2.3,2.2-1.7c0.3,0.1,0.6,0.3,0.9,0.5
	C153,223,161.8,230.1,171.1,239.1L171.1,239.1z"/>
<path d="M296.9,287c-6.1,1.8-10.8-1-15.2-4.8c-1.5-1.3-2.4-3.3-5.2-2.5c3.2-3.7,7.4-5.6,11.1-8.1c4.8-3.3,9.8-6.3,14.7-9.4
	c2.4-1.5,4-2.5,4.8,1.9c0.8,4.8,1.6,9.5,0,14.2c-1.8,4.9-5.1,8-10.4,8.8c9-6.1,11.8-11.6,9.5-19.4c-0.5-1.8-0.6-4.6-3.4-3.8
	c-2.3,0.7-5.3,1.6-3.9,5.5c0.9,2.6,0.3,5.1-2.2,7c-3,2.3-5.6,1.5-8.1-0.7c-3-2.6-5.2-0.2-6.9,1.4c-2.1,2.1,0.8,3.4,2,4.7
	C287.2,285.7,292,286.5,296.9,287L296.9,287z"/>
<path d="M191.3,281.5c-2.9,0.7-3.7,2.9-5.2,4.3c-4.6,4.3-9.8,6.7-16.3,4.5c-6.5-2.2-9-7.3-10-13.6c0-0.2,0-0.3,0-0.5
	c-0.6-4-1.3-9,1.7-11.2c2.3-1.7,6,2.2,9,3.7C177.5,272.1,184.3,275.8,191.3,281.5L191.3,281.5z M161,272.5c-0.4,7.4,2.2,13,8.2,15.9
	c5.2,2.5,10.7,1.7,15-3c1.4-1.6,4.3-3.1,1.9-5.7c-1.9-2-4.3-3.6-7.2-0.7c-1.6,1.6-4.1,2.4-6.4,0.9c-2.4-1.5-4.2-3.8-3.5-6.6
	c1.2-5.1-2.8-6.1-5.6-6.2C159.8,267.1,161.4,271,161,272.5L161,272.5z"/>
</symbol>

<symbol id="wartortle" viewBox="0 0 444.1 443.6" style="enable-background:new 0 0 444.1 443.6;">
	<title>Wartortle</title>
<path d="M89.2,109.3c-2.2-6.5-4.4-11.9-5.8-17.7c-2.6-11.1-4-22.3-1-33.6c0.8-3,1.7-6.1,4.8-7.6c1.4-0.7,1.4-2,1.5-3.2
	c0.6-5.3,2.8-10.1,4.4-15.1c0.9-2.8,2.5-5.1,4.8-7.2c4.7-4.2,6.3-4.4,10.3,0.5c4.4,5.5,7.8,11.7,10.1,18.3
	c5.3,15.3,9.7,30.8,9.8,47.1c0,4.1,1.7,2.4,3.6,1.3c15.6-9.4,32.3-14.1,50.6-12.8c13.4,0.9,26,4.3,37,12.5c2.9,2.2,4.4,1.3,6-1.7
	c10.8-19.6,25.4-35.9,43.6-49c6.3-4.5,13-8.6,20.7-10.3c9.5-2.1,10.7,1.9,9.4,8.2c-1.6,7.4-4.2,14.2-7.3,21
	c-0.4,0.9-1.5,1.6-0.9,2.9c5.3,11.9,3.1,23.8-1.3,35.1c-4.5,11.6-11.6,21.8-20,31.1c-1.7,1.9-2.5,3.7-2.3,6.2
	c0.4,8.1-3.1,14.4-9.6,18.9c-1.5,1-1.5,1.6-0.6,2.9c2.6,3.8,4.3,7.8,4.8,12.4c0.5,4.6,5,6.1,8.2,8.4c4,2.9,8.3,5.5,12,8.8
	c1,0.9,1.9,1.4,3.3,1.5c6.9,0.4,13.5,1.9,20.2,3.5c2.9,0.7,3.9,0.2,4.4-3c3.5-23.1,15.9-39.7,37.3-49.2c18.1-8.1,43.1-3.5,53,13.6
	c5.5,9.6,8.2,19.7,3.5,30.6c-1.8,4.2-5.5,6.2-8.7,8.8c-2.1,1.7-3.2,3.4-1.6,5.9c6.8,10.4,9,22.3,10.9,34.3c0.4,2.3,0.9,4.1,2.7,5.6
	c19.7,16.7,16.6,40.5,8.6,57.9c-15,32.7-40.8,52.8-75.5,61.6c-2.9,0.7-2.5,1.9-1.8,3.9c5,15.6,10,31.2,15,46.9
	c2,6.4,0.7,7.6-5.8,6.1c-4.4-1-8.7-2.3-13-3.6c-3.1-1-5.8-0.4-8.1,1.9c-2.5,2.5-5.2,4.9-7.4,7.7c-2.2,2.8-4.5,2.8-7.3,1.3
	c-4.2-2.3-8.4-4.6-12.7-6.9c-3.6-2-7.4-2-11.2-0.5c-3,1.1-6.2,2-9.4,2.8c-3.9,1-6.7-1.6-6-5.5c0.1-0.8,0.3-1.6,0.6-2.2
	c3.5-6.7,1.7-12.8-1.9-18.8c-3.1-5.2-6.3-10.4-9.2-15.6c-1.5-2.7-3.3-3-6.3-3.1c-17.1-0.8-34.4,3.1-51.3-2.2
	c-4-1.3-8.1-2.4-11.8-4.2c-3.3-1.6-5.9-1-8.7,0.8c-6.8,4.2-12.2,9.8-15.6,16.9c-4.3,8.8-11.5,15.4-16.6,23.6c-1.9,3.1-4.9,2.5-7.5,0
	c-6.9-6.5-6.9-6.5-15.5-2.5c-2.9,1.4-5.9,2.6-8.8,4.1c-1.9,1-2.8,0.4-3.6-1.3c-0.7-1.7-2.2-3.3-2.4-5c-0.7-7.9-6.4-6.8-11.6-6.9
	c-3,0-7.2,1.9-8.4-1.5c-1-2.9,2.7-5,5.2-6.9c0.9-0.6,1.6-1.5,2.4-2.2c3.6-2.6,3.6-5.3,2.5-9.7c-3.3-13.9,0-27,7.9-38.9
	c5.3-8,10.8-16,18.2-22.3c2.1-1.7,2.4-3.9,1.1-6.6c-5.6-11.6-8.2-24.1-9.1-36.8c-0.3-4.5-2-5.8-6.3-5.7c-20,0.7-39.6-2.4-58.9-7.5
	c-7.4-2-14.1-5.4-19.4-11.3c-2.6-2.8-6.9-3.1-9.7-6.1c-2.5-2.7-3.3-4.8-0.5-7.8c2.3-2.5,4.2-5.4,7.2-7.3c0.4-0.2,1-0.5,1.1-0.8
	c3.5-11,14.5-10.5,22.6-13.9c12.3-5.1,25.2-8.7,38.3-11.3c2.4-0.5,2.9-1.5,3.2-3.6c1.2-8.4,0.7-16.4-2.5-24.5
	c-2.8-7-3.2-14.9-2.6-22.5c0.2-3.3-1-5.1-3.4-7c-9-7.2-12.7-17-13.2-28.1c-0.2-4.8,2.3-6.4,6.9-5.3C85.5,108,86.8,108.5,89.2,109.3
	L89.2,109.3z M229,199.1c-0.9,3.2-2.7,5.2-4.8,6.5c-4.2,2.5-6.6,5.9-8.3,10.4c-1.9,5.2-5.1,5.8-9.2,1.8c-2.9-2.9-5.6-3.4-9.6-2.4
	c-6.9,1.8-14,2.6-21.2,3.1c-9.9,0.6-20-0.4-29.4,3.7c-3.9,1.7-7.2,0.6-10.5-1.5c-4-2.6-7.8-5.8-12.6-6.9c-1.5-0.4-3.3-2-4.5,0.3
	c-1.2,2.4,1.3,2.7,2.5,3.6c14.1,9.7,30.2,12.6,46.8,13.2c8.2,0.3,16.2-1.9,24.4-3.1c33.8-5,56.8-35.8,57.3-67.2c0-2.4-0.5-3.5-3-3.2
	c-11.9,1.4-25.1-10.1-28.8-22.9c-3.4-11.7-1.7-23,2.7-34.1c1.2-2.9,0.7-4.7-1.9-6.6c-5.1-3.7-10.7-6.1-16.6-8.2
	c-20.6-7.1-41.3-5.7-60.3,3.7c-23.3,11.4-39.9,29.7-45.7,56c-1.1,4.9-1.1,10.1,0.3,14.8c3.4,11.5,6.4,22.9,4.3,35
	c-1.3,7.3,2.2,11.6,7.9,15.2c1.2-4.3-4.9-4.2-4.8-8.3c5.8,4.1,11.8,7.2,18.2,9.2c4.7,1.4,9,3.5,12.8,6.5c4.5,3.6,9.1,3.7,13.9,1.7
	c4.7-1.9,9.6-2.8,14.6-2.6c9.2,0.3,18.3-0.6,27.3-2.4c11.2-2.2,22.8-3.4,32.3-10.9C224.7,201.9,225.7,199.6,229,199.1L229,199.1z
	 M376.4,168.1c-6.5-5.4-10.2-6.3-14.6-3.8c-4.8,2.7-7.1,8.1-5.6,15c2.2,10.2,10.3,18.3,22,17c12.6-1.4,23.2-9,24.7-18.5
	c1.9-12.4-2.3-22.9-11.3-31.5c-11.4-10.9-33.2-11.1-46.5-3.9c-17.4,9.3-29.2,23.2-32.5,43.4c-1.2,7.4-1.5,7.9,5.9,9.4
	c14.9,3.1,25.6,12,34.4,23.7c4.6,6.1,3.6,9.1-3.7,11.4c-3.7,1.2-7.1,2.6-10.6,4.3c-2.9,1.5-3.9,5.2-7.1,5.4
	c-4.5,0.3-7.5,3.2-11.2,5.1c-2.5,1.3-3.4,3.4-2.8,5.8c0.8,3.1,0.7,6.1,1.1,9.2c2.4,17.3,3.4,34.6-0.5,51.7c-1.6,7-0.2,12.2,3.6,17.6
	c1.5,2.1,2.6,2.5,4.9,1.6c5.7-2.4,11.5-4.6,16.8-8c1.4-0.9,3-1.7,4.4-2.6c1.4-0.8,2.8-1.7,4.2-2.6c-7.1,6.4-15,11.2-23.8,14.4
	c-1.2,0.5-3.8,0.2-3.1,3c1,4.1,4,5.9,8.1,4.9c2.5-0.6,4.9-1.1,8.4-1.9c-1.3,1-1.6,1.3-2,1.5c-3.1,1.4-8.2,0.8-9.1,3.4
	c-0.9,2.8,2.8,6.2,3.9,9.5c1.3,4,3.3,4.2,6.9,3.2c19.7-5.5,37.4-14.8,51.3-29.7c15.7-16.8,27.5-35.3,25.9-60
	c-0.9-14.3-12-31.2-27.4-34.3c-8.4-1.7-16.3-0.2-22.2,6.3c-5.8,6.4-5.8,14.1-2.6,21.8c2.3,5.7,6.1,9.9,13,10.6
	c5.4,0.5,9.3-1.7,12.6-5.5c2.5-2.9,2.2-6,0.4-9.1c-1.5-2.6-3.9-3.3-6.7-3.3c-2.3,0-3,2.6-5.4,3.5c1-4.3,3.4-5.8,6.8-5.8
	c4.1,0,6.6,2.4,7.9,6.1c1.8,5-0.5,8.7-3.9,12c-4,3.8-8.5,5.5-14,3.9c-8.4-2.6-13.8-10.5-14.5-21.2c-0.5-7.5,5.5-16.9,12.7-20
	c9.3-3.9,18.2-2.7,27.3,3.2c-1.4-10-3.5-19-7.2-27.5c-1.5-3.4-2.7-7.1-6-9.2c-2.7-1.6-5.3,1.1-8.1,0.9c-0.1,0-0.3,0-0.5,0
	c-3.9,0.3-9-0.7-6.7,6.9c-1.4-4.8-3-8.6-8.5-8.4c1.3,13.4,1.2,26.8-2.4,40c-4.3,15.5-13.3,31-20.1,34c10.7-12.4,17.6-26.6,19.8-42.5
	c1.9-14,4.3-28-5.3-41.4c-7-9.7-4.4-18.5,3.2-24.3C365.3,159.2,374.2,160.9,376.4,168.1L376.4,168.1z M290.3,305.6
	c-3.3,0.5-7.1,1.2-10.5,3.3c-15.7,9.8-23.3,24.9-27.7,42c-0.9,3.6-0.1,7,2.3,10.1c7,8.8,12.3,18.6,17.9,28.2c4,7,7,13.8,2.4,21.8
	c-1.5,2.6,0.1,3.8,2.8,3.4c2.1-0.3,4.3-0.7,6.3-1.6c7.9-3.4,14.8-0.8,21.4,3.5c0.5,0.3,1,0.7,1.6,1c7,4,7,4,12.5-1.7
	c1.3-1.3,2.5-2.8,3.9-4c3.1-2.8,6.4-4.4,11-2.7c4.5,1.7,9.2,2.8,13.9,3.9c2.6,0.6,3.9,0.1,3-3.4c-1.6-5.7-4.8-10.7-6.2-16.5
	c-5.3-21.1-12.4-41.5-24.1-60.1c-6.4-10.1-14.1-18.8-24.1-25.4C294.8,306.2,292.9,305.6,290.3,305.6L290.3,305.6z M233,208.8
	c-2.4,3.1-5.4,5.1-8.4,7.4c-4.6,3.6-10,6.2-14.2,10.4c-7.7,7.8-16.9,13.6-27,17.9c-7.1,3-7.6,3.2-6.4,11.1c1.8,12.4,3.9,24.8,6.7,37
	c2.6,11.4,3,11.3,14.8,11.2c0.6,0,1.2,0,1.9-0.1c26.3-1.3,50.9-8.6,74.3-20.6c1.8-0.9,2.8-2,2.2-4c-1.4-5.2-0.8-10.5-0.5-15.8
	c0.2-4.4-1.5-4.5-4.8-3.9c-8.1,1.6-15.1-0.9-20.8-6.7C238.9,240.6,231.4,226.6,233,208.8L233,208.8z M280.6,74.7
	c1.9-3.3,3.9-6.6,5.6-10c4.2-8.4,10-16.2,10.8-26c0.4-5.1-2.1-7.4-6.9-5.9c-7,2.2-13.5,5.5-19.6,9.5c-12.1,7.9-21.9,18.2-30.7,29.5
	c-10.3,13.2-19.1,27-21,44.3c-1.5,13.9,1.6,25.7,13.3,34.4c12.7,9.3,29.6,3.5,32.5-11.2c0.4-2,0.3-4,0.5-6c0.1-1.1-0.2-2.1,0.7-3
	c5.2-5.4,9.2-11.6,13.3-17.8c8.6-13.2,13.9-27.2,12-43.3c-0.2-1.4,0-3.1-1.6-3.5c-1.9-0.5-2.2,1.4-2.8,2.5
	C285.2,70.7,284.1,73.7,280.6,74.7L280.6,74.7z M334.2,203.5c-2.8-1.1-4.9-2.1-7-2.9c-23.3-7.8-47.1-12.1-71.8-10.5
	c-10.1,0.7-17.8,7.4-19.2,17.8c-1.9,13.5,1.9,25.5,10,36.1c7.4,9.7,16.4,16,29.5,12.2c0.9-0.2,1.9-0.1,2.8-0.3
	c13.5-2.2,26.4-6.4,39-12.1c-4.1-3.9-5.7-7.5-5-12.1c0.6-3.9,2.4-7.8,6.2-9.2c3.7-1.4,6.7,1.1,9.1,4c1.3,1.5,2.7,3,4.1,4.5
	c0.7,0.7,1.1,2.4,2.4,1.3c1-0.8,0.3-2-0.3-3c-2-3.5-4.4-6.7-7.3-9.6c-3.2-3.2-3.4-6.7-0.8-10.4C327.9,206.8,330.7,205.5,334.2,203.5
	L334.2,203.5z M95.8,393.2c2.3,0,4.6-0.2,6.8,0c3.1,0.3,6.4-1.6,9.2-0.2c3.2,1.7,2.3,5.8,3.5,8.7c1.5,3.7,3.4,4.3,6.8,2.6
	c3.6-1.8,7.3-3.4,11-5.1c3-1.4,5.6-1.6,7.8,1.5c0.9,1.2,2.4,2,3.3,3.2c2,2.5,3.6,2,5.6-0.2c3.8-4.1,6.8-8.8,10-13.4
	c6.9-9.9,13.5-20.1,23.3-28.4c-6.1-2.8-11.3-5.8-16-9.6c-12.8-10.1-24.1-21.5-31.9-36c-0.9-1.8-1.7-3.9-4.1-1.2
	c-6.6,7.1-13,14.2-18.2,22.4c-7,10.9-9.5,22.8-7.1,35.6c0.8,4.3,2.5,8.3,4.2,12.9c-4.9-5.2-7.1-0.6-9.5,2
	C98.8,389.7,97.5,391.4,95.8,393.2L95.8,393.2z M50,214.8c6.7,3.4,5.5,6.7,2.2,10.7c-2.6,3.2-4.3,7.1-6.3,10.8
	c-0.8,1.5-0.7,3.4-2.3,4.5c-2,1.4-3-1.5-4.8-1.4c-0.7,2.8-0.1,5.7,1.7,7c1.9,1.3,3.9-1.2,5.5-2.4c4.7-3.5,9.8-5.9,15.3-7.6
	c2.6-0.8,5.3-1.1,6.8,2c2.1,4.1,0.4,7.9-1.3,11.5c-1.6,3.1-4.6,4-7.9,3.7c-2.1-0.2-4.3-0.5-6.4-0.8c0.6,0.9,1.3,1.2,2,1.5
	c10.2,3.4,20.9,4.3,31.3,6.5c10.2,2.1,20.7,2,31.1,1.5c2-0.1,3.7-0.4,3.6-3c-0.4-11,1.8-21.5,5-31.9c0.6-1.8,1.2-4.1-1.2-5.3
	c-3.3-1.7-6.3-3.8-9.6-5.6c-6.1-3.3-12-7.3-15.3-13.7c-1.1-2.1-2.2-2.7-4.2-2.1c-4.6,1.2-9.3,2.2-13.9,3.7
	C71.2,207.5,61.3,211,50,214.8L50,214.8z M184.3,303.8c-1.6-5.9-3.2-11.2-4-16.7c-1.6-10.4-5-20.5-5-31.1c0-5.9-1.5-9.2-7.1-11.7
	c-11.4-5.3-20.4-15-33.4-17.7c-6.1-1.2-5.9-2-7.9,4c-0.3,1-0.6,2.1-0.9,3.1c-4.2,15.1-3.4,30.3-1.5,45.6c0.7,5.3,3.8,8.6,8.3,11
	C148.7,298.8,165.9,302,184.3,303.8L184.3,303.8z M247.1,349.2c2.7,0.5,3.3-1.4,4-3.4c5.6-18,15.7-32.6,32.7-41.6
	c2.1-1.1,1.1-2.2,0.5-3.3c-2.1-4.1-4.8-8-5.7-12.6c-0.6-2.8-1.9-3.2-4.7-2.3c-6,2.1-11.5,5.4-17.4,7.7c-20.9,8.2-42.6,11.9-65,12
	c-3.3,0-4.3,0.6-3.2,4.2c2.4,8.1,5.9,15.6,9.3,23.3c1,2.2,2.4,3.4,4.6,4.1c9.8,3,19.5,6.3,29.3,9
	C236.6,347.9,241.9,348.4,247.1,349.2L247.1,349.2z M108.9,54.5c5.9,16,9.4,32.5,6.9,50.5c3.1-2.7,5.1-4.9,7.5-6.5
	c2.8-1.9,3.3-4.2,3.1-7.5c-0.6-13.1-3.9-25.7-7.3-38.3c-2.6-9.8-6.6-19-13-27c-1.4-1.7-3-4-5.2-1.5c-2.4,2.9-5.4,5.6-6.7,9.3
	c-2.5,7.2-4.7,14.4-4.8,22.1c0,3.4-0.5,6.7-1.9,11.1c-1.5-5.5,0.9-9.8-1.1-13.9C79,74.4,84.3,94.6,94,115c-3.1-1.9-5.4-3.4-7.9-4.8
	c-4.5-2.4-6.9-1.2-6.7,3.9c0.4,11.3,5.1,20.5,15.9,28.1c-1.6-6.5,2.3-9.7,4.3-13.9c3.4-6.9,7.8-13,12.5-19c1.2-1.5,1.9-3.1,2.1-5
	c1.2-10.7,0.5-21.4-1.6-31.9C111.4,66.5,110.2,60.5,108.9,54.5L108.9,54.5z M127.2,289c-0.6,1.8,0,3.3,0.4,4.7
	c8,23.9,21.4,43.8,42.7,58c2.2,1.5,3.7,1.7,5.7,0.1c5.9-4.6,11.8-9.1,17.8-13.5c2.3-1.6,2.2-3,1.1-5.4c-3.4-7.6-6.7-15.4-8.7-23.5
	c-0.6-2.5-2-3.4-4.5-3.7c-16-2.2-31.9-4.8-46.4-12.5C132.6,291.9,130,290.5,127.2,289z M175.5,355.4c7.4,3.8,13.8,7,20.7,9.5
	c16.9,6.1,33.9,7.1,51.2,2.1c6.2-1.8,6.4-2.2,3.7-7.8c-0.6-1.3-1.5-2.5-1.7-3.8c-0.5-3.1-2.4-3.8-5.1-4.2
	c-14.3-2.4-27.9-7-41.5-11.9c-2.7-1-5.1-1-7.5,0.4C188.2,344.1,182.4,350,175.5,355.4L175.5,355.4z M314.6,318.9
	c-3.9-10-9.6-17.2-14.5-25c-5.7-9.2-8.5-19.2-8.9-29.9c-0.4-8.2-0.2-8.2-8.5-6.2c-1.9,0.5-3.8,0.4-4,3.4
	c-0.6,10.1-0.3,20.2,3.2,29.8c2,5.5,3.4,12.3,11.5,12.5c0.7,0,1.4,0.7,2.1,1C302.9,307.2,307.9,313.2,314.6,318.9L314.6,318.9z
	 M314,267c1.8,9.2,1.6,18.3,0.8,27.4c3-14.3,1.9-28.6-0.7-42.8c-0.5-2.6-2.4-1.7-3.6-1.2c-3.8,1.3-7.5,2.8-11.3,4.2
	c-1.2,0.4-1.9,0.8-1.6,2.3c1.7,7.1,4.5,13.4,10.6,18c2.3,1.7,3.4,1,4.1-1.2C313.1,271.5,313.5,269.2,314,267L314,267z M253.2,156.6
	c-1.3,1.1-0.7,2.2-0.7,3.2c-0.2,7.9-1.1,15.7-4.2,23.1c-0.7,1.6-2.3,3.3-1.1,5.1c1.5,2.1,3.4,0.3,5.1,0.1c2-0.2,4-0.5,6-0.6
	c2.1-0.1,2.8-1.1,2.9-3.2c0.4-8.2-0.8-16-4.4-23.4C256,159.2,255.1,157.4,253.2,156.6L253.2,156.6z M343.5,221.8
	c-0.4-4.6-0.2-8.5-2.7-11.8c-1.8-2.5-3.5-4.8-7.2-3.6c-4.8,1.5-7.4,4.6-7.2,8.5c0.1,1.1,0.3,2.1,1.2,2.9c4.3,3.3,7.1,7.7,9.5,12.4
	c0.9,1.8,1.7,2.1,3.3,0.4C343.1,227.8,343.4,224.5,343.5,221.8L343.5,221.8z M42.3,238.1c2.9-5.6,6.2-10.6,9.8-15.4
	c1.7-2.2,1.3-3.4-0.8-4.8c-2.7-1.8-8.6-1.2-10.7,1.1C36.2,224,36.9,233.2,42.3,238.1L42.3,238.1z M320.6,240.2
	c2.6-0.5,5.5-1,8.4-1.6c3.8-0.8,4.1-2.8,1.6-5.5c-1.7-1.8-3.2-3.8-5-5.5c-1.9-1.8-4.2-4.2-6.8-2.6c-2.6,1.6-4.3,4.8-3.8,8
	C315.4,236,315.1,240.3,320.6,240.2L320.6,240.2z M45.5,247.5c3.2,1.9,6.4,2.4,9.6,3.1c7.6,1.6,8.6,1,11.2-6.3
	c0.7-1.9,1.5-3.9-0.3-5.6c-1.6-1.4-3.7-0.7-5.2,0C55.5,241.2,50.5,243.8,45.5,247.5L45.5,247.5z M35.8,242.8
	c1.5-5.8,1-11.1-0.7-17.2c-3.4,3.6-7.2,6.6-6.7,11.1C28.8,240,32.4,241.8,35.8,242.8L35.8,242.8z M344.8,212.9
	c1.1,6.1,2.4,11.1-0.2,16c2.5,0.5,4.2-0.5,5.8-1.3c1.6-0.8,3.2-2.2,2-4C350.2,220.3,348.8,216.4,344.8,212.9L344.8,212.9z"/>
<path d="M182.4,167.8c-4,3.2-7.5,5.9-10.9,8.7c-0.3-0.4-0.6-0.7-0.9-1c12.1-11.7,25.9-21.6,39.2-32.4c-2.5,3-1.1,5.3,0.1,8.1
	c3.9,9.2,6.7,18.7,7.2,28.7c0.2,4.2-0.3,8.9-4.1,12.3c2.2-6,1.6-12.1,1.6-18.2c0-8.2-3.6-15.3-6.7-22.5c-1.2-2.9-2.9-3.3-5.5-0.8
	c-5.8,5.6-5.8,5.4-3.5,12.7c3.2,10,4.4,20.3,1.6,30.6c-0.7,2.6-1.6,5.3-4.5,6c-3,0.8-5-1.4-6.6-3.4c-5.7-7.2-7-15.7-7-24.5
	C182.3,170.7,182.3,169.5,182.4,167.8L182.4,167.8z M193.4,158.8c-6.9,4-8.3,5.8-6.7,8.8c1.3,2.3,3.3,3.2,5.9,2.1
	C196,168.1,196.2,164.4,193.4,158.8L193.4,158.8z"/>
<path d="M126.5,175.6c-2.6-0.1-3.2,0.4-2.5,3c1.4,5.7,2.2,11.6,2.4,17.5c0,1.2,0.5,2.6-0.9,3.4c-1.5,0.9-2.6-0.2-3.7-1.1
	c-5.4-4.2-7.2-10.4-8.5-16.6c-1.2-5.4-2-10.9-0.7-16.6c1-4.3-3.1-6.3-5.1-10.3c-3.8,10.1-1.6,18.9,0.3,27.7
	c-6.6-10.8-2-22.9-3.7-34.9C111.8,156.8,116.4,168.1,126.5,175.6L126.5,175.6z"/>
<path d="M213.7,201.3c-1.3-0.1-3.2,0.2-3.9-1.5c-0.8-1.9,0.9-3.2,2.2-4.2c2.7-2.2,5.8-3.6,9.4-3.8c1.6-0.1,3.3-0.1,4,1.6
	c0.7,1.7-0.6,2.9-1.7,4C221.4,199.9,217.4,201.4,213.7,201.3L213.7,201.3z"/>
<path d="M230.5,131.4c1.5-17.4,4.5-34.5,13.4-50.1C236.6,97.3,233.4,114.3,230.5,131.4z"/>
</symbol>
</svg>