<svg xmlns="http://www.w3.org/2000/svg">
	<symbol id="umbrellaTriangle1" data-name="Umbrella Triangle 1" viewBox="0 0 145.19 168.15">
	  <defs>
	    <style>
	      .cls-1 {
	        fill: #231f20;
	      }
	    </style>
	  </defs>
	  <path class="cls-1" d="m145.19,164.44C121.73,109.63,98.27,54.81,74.81,0,49.88,56.05,24.94,112.1,0,168.15c11.03-6.94,34.71-19.77,67.4-21.68,38.07-2.23,66.43,11.62,77.78,17.98Z"/>
	</symbol>

	<symbol id="umbrellaTriangle2" viewBox="0 0 151.85 183.7">
	  <defs>
	    <style>
	      .cls-1 {
	        fill: #231f20;
	      }
	    </style>
	  </defs>
	  <path class="cls-1" d="m133.33,183.7c-6.72-7.29-26.8-27.19-60-34.07-36.32-7.53-64.83,5.38-73.33,9.63C50.62,106.17,101.23,53.09,151.85,0c-6.17,61.23-12.35,122.47-18.52,183.7Z"/>
	</symbol>

	<symbol id="umbrellaTriangle3" viewBox="0 0 203.33 159.26">
	  <defs>
	    <style>
	      .cls-1 {
	        fill: #231f20;
	      }
	    </style>
	  </defs>
	  <path class="cls-1" d="m0,137.41c5.33-4.6,12.26-6.16,17.04-3.7,6.8,3.49,10.04,15.49,2.96,25.56C70.62,106.17,121.23,53.09,171.85,0c-21.58,4.73-62.91,16.79-103.7,50C29.25,81.67,9.27,117.57,0,137.41Z"/>
	</symbol>

	<symbol id="umbrellaTriangle4" viewBox="0 0 151.85 183.7">
	  <defs>
	    <style>
	      .cls-1 {
	        fill: #231f20;
	      }
	    </style>
	  </defs>
	  <path class="cls-1" d="m18.52,183.7c6.72-7.29,26.8-27.19,60-34.07,36.32-7.53,64.83,5.38,73.33,9.63C101.23,106.17,50.62,53.09,0,0c6.17,61.23,12.35,122.47,18.52,183.7Z"/>
	</symbol>

	<symbol id="umbrellaTriangle5" viewBox="0 0 203.33 159.26">
	  <defs>
	    <style>
	      .cls-1 {
	        fill: #231f20;
	      }
	    </style>
	  </defs>
	  <path class="cls-1" d="m171.85,137.41c-5.33-4.6-12.26-6.16-17.04-3.7-6.8,3.49-10.04,15.49-2.96,25.56C101.23,106.17,50.62,53.09,0,0c21.58,4.73,62.91,16.79,103.7,50,38.9,31.67,58.87,67.57,68.15,87.41Z"/>
	</symbol>

	<symbol id="umbrellaHandle" viewBox="0 0 15.56 209.63">
	  <defs>
	    <style>
	      .cls-1 {
	        fill: #231f20;
	      }
	    </style>
	  </defs>
	  <rect class="cls-1" width="15.56" height="209.63"/>
	</symbol>

	<symbol id="umbrellaHook" viewBox="0 0 60.98 91.13">
	  <defs>
	    <style>
	      .cls-1 {
	        fill: #231f20;
	      }
	    </style>
	  </defs>
	  <path class="cls-1" d="m56.11,54.24c6.04-22.48,5.31-41.94,3.89-54.24h-15.56c2.46,24.45-.31,43.6-3.38,56.64-3.69,15.64-6.52,17-7.92,17.17-6.43.78-14.33-19.84-20.56-39.73-4.2.99-8.4,1.98-12.59,2.96,1.85,5.3,19.91,56.15,36.24,54.03,10.33-1.34,16.26-23.39,19.87-36.83Z"/>
	</symbol>
</svg>
