<?xml version="1.0" encoding="UTF-8"?>
<svg id="macro" xmlns="http://www.w3.org/2000/svg" viewBox="0 0 387.08 361.65">
  <path d="m160.15,57.38c.28-1.62-.4-3.14.55-4.37,1.11-1.44,2.64-1.77,4.43-1.43,5.27,1.02,9.79,3.73,14.34,6.34,9.76,5.6,18.47,12.65,27.16,19.73,1.09.89,2.13,1.87,2.85,3.11.57.98,1.01,2.01.15,3.05-.84,1.02-2.03.94-3.03.52-1.36-.57-2.64-1.38-3.88-2.19-3.16-2.04-6.31-4.11-9.41-6.24-1.1-.76-1.99-.86-3.21-.2-4.41,2.39-8.88,4.67-13.36,6.94-1.31.66-1.63,1.46-1.05,2.81.78,1.8,1.39,3.67,2.16,5.47.65,1.53.53,2.04-1.43,2.25-4.33.46-6.28-1.44-7.86-5.35-3.45-8.54-6.65-17.09-7.97-26.25-.21-1.47-.3-2.96-.42-4.21Zm15.46,19.2c3.26-.46,5.69-2.65,8.36-4.42,1.47-.97,1.52-1.66.37-3.05-4.29-5.18-10.21-7.93-15.93-10.98-1.73-.92-1.52.5-1.32,1.31,1.16,4.55,2.07,9.19,3.95,13.51.82,1.89,2.03,3.6,4.57,3.63Z"/>
  <path d="m231.45,71.99c-3.58-.55-6.49-2.31-8.77-4.84-3.56-3.94-3.46-4.11-8.14-1.96-2.41,1.1-4.7,2.45-7.05,3.68-1.33.7-2.71.8-3.52-.6-.79-1.37-.39-2.78.91-3.75,2.64-1.97,5.26-3.97,8.02-5.77,1.57-1.02,1.86-1.96.96-3.6-1.49-2.75-2.71-5.65-3.77-8.61-.41-1.14-1.03-2.36.6-2.93,1.39-.49,2.9-.92,4,.74,1.65,2.48,3.42,4.88,5.01,7.4.92,1.46,1.69,1.58,2.85.29,1.04-1.16,2.13-2.3,3.57-3.02,1.31-.65,2.53-.8,3.62.43,1.12,1.27,1.05,2.62.06,3.85-.98,1.22-2.16,2.27-3.22,3.43-1.87,2.06-1.72,3.41.69,4.91,1.53.95,3.19,1.68,4.79,2.5.92.47,1.87.98,2.4,1.85.77,1.25,1.62,2.56.7,4.13-.86,1.46-2.26,1.82-3.73,1.89Z"/>
  <path d="m87.21,312.85c8.63.62,17.46,1.27,26.3,1.89,5.32.37,10.64.66,15.96,1.01,9.31.6,18.61,1.23,27.92,1.83,7.98.51,15.96.95,23.94,1.48,11.34.74,22.68,1.53,34.02,2.29,5.32.35,10.64.69,15.96,1.02,5.24.33,10.48.64,15.73.95.96.06,1.81.28,1.65,1.46-.14,1.02-.98,1.07-1.82,1.02-14.08-.9-28.16-1.79-42.24-2.7-12.05-.77-24.1-1.53-36.14-2.34-12.98-.88-25.96-1.86-38.94-2.72-8.45-.56-16.91-.96-25.36-1.49-6.65-.42-13.29-.94-19.94-1.4-.88-.06-1.68-.27-1.64-1.25.05-1.05.97-1.05,1.79-1.03.86.01,1.73,0,2.81,0Z"/>
  <path d="m249.38,286.64c-7.59-.46-15.18-.9-22.77-1.39-5.94-.38-11.88-.82-17.82-1.23-11.26-.77-22.52-1.54-33.79-2.29-5.32-.36-10.64-.71-15.96-.99-9.24-.49-18.46-1.12-27.68-1.83-8.13-.62-16.28-.97-24.41-1.49-6.73-.43-13.45-.94-20.17-1.41-.83-.06-1.66-.09-1.57-1.23.09-1.17,1.01-1.04,1.77-1,6.73.36,13.47.72,20.19,1.14,5.87.37,11.73.81,17.6,1.21,8.92.61,17.83,1.21,26.75,1.79,5.55.36,11.11.67,16.66,1.04,11.34.75,22.68,1.54,34.02,2.29,5.55.37,11.11.66,16.67,1.02,8.99.58,17.99,1.2,26.98,1.79,1.17.08,2.35.08,3.53.12.91.03,1.9.2,1.9,1.29,0,1.1-.99,1.25-1.9,1.15Z"/>
  <path d="m249.31,223.2c-8.42-.59-17.34-1.23-26.25-1.83-5.32-.36-10.64-.64-15.96-1-11.58-.76-23.15-1.56-34.73-2.31-7.98-.52-15.97-.95-23.95-1.47-8.92-.57-17.83-1.2-26.75-1.79-5.63-.37-11.27-.68-16.9-1.04-4.07-.26-8.13-.57-12.19-.88-.83-.06-1.93.03-1.86-1.24.07-1.27,1.17-1.08,1.99-1.04,6.34.35,12.68.71,19.02,1.12,5.87.38,11.73.83,17.59,1.23,9.07.62,18.14,1.32,27.22,1.78,5.48.28,10.95.67,16.43,1.05,9.07.63,18.14,1.21,27.21,1.81,5.4.35,10.8.67,16.2,1.03,9.15.6,18.3,1.23,27.46,1.82,2.66.17,5.34-.04,7.98.47.91.18,2.09,0,1.94,1.41-.14,1.32-1.29.8-2.07.87-.62.05-1.26.01-2.38.01Z"/>
  <path d="m90.95,292.58c7.65.61,15.23,1.22,22.81,1.81,4.85.38,9.7.73,14.54,1.09,8.05.6,16.1,1.21,24.16,1.79,7.12.51,14.24.96,21.35,1.5,9.85.74,19.7,1.55,29.55,2.29,7.19.54,14.4.86,21.58,1.54,4.89.47,9.73,1.35,14.66,1.49.8.02,1.61.37,1.49,1.43-.12,1.05-.95,1.14-1.77,1.08-6.88-.51-13.77-1.01-20.65-1.55-4.92-.38-9.84-.95-14.77-1.18-5.78-.27-11.44-1.57-17.25-1.69-5.08-.1-10.16-.78-15.24-1.17-10.16-.79-20.32-1.57-30.49-2.32-7.04-.52-14.08-.95-21.12-1.47-10.48-.77-20.95-1.59-31.42-2.38-.86-.06-1.66-.28-1.58-1.3.07-.9.86-.98,1.61-.97.86.02,1.73,0,2.53,0Z"/>
  <path d="m242.35,242.54c-8.15-.58-16.91-1.22-25.67-1.83-5.4-.37-10.8-.68-16.2-1.03-11.66-.76-23.31-1.54-34.97-2.28-8.29-.53-16.6-.97-24.89-1.51-8.53-.56-17.05-1.22-25.57-1.79-5.71-.38-11.43-.67-17.14-1.01-2.58-.15-5.16-.32-7.75-.51-.84-.06-1.65-.33-1.55-1.36.09-1.01.92-1.16,1.76-1.11,7.59.52,15.17,1.06,22.76,1.58,5.55.37,11.11.71,16.66,1.07,9.15.6,18.3,1.22,27.46,1.82,5.32.35,10.64.7,15.96,1,9.24.52,18.47,1.08,27.69,1.82,7.74.62,15.49.97,23.24,1.47,7.2.46,14.39.96,21.59,1.42.85.05,1.74.19,1.74,1.16,0,1.24-1.06,1.1-1.93,1.09-.86,0-1.73,0-3.2,0Z"/>
  <path d="m93.85,251.58c9.34.74,19.26,1.56,29.18,2.32,7.03.54,14.08.97,21.11,1.49,9.93.74,19.85,1.52,29.78,2.26,6.96.52,13.92.98,20.88,1.5,10.16.76,20.32,1.56,30.48,2.31,5.01.37,10.02.68,15.02,1.01.55.04,1.1,0,1.65.07.86.12,1.89.22,1.83,1.38-.06,1.14-1.06,1.23-1.95,1.17-2.19-.13-4.38-.3-6.57-.47-11.49-.91-22.97-1.85-34.46-2.72-7.35-.55-14.71-.95-22.06-1.49-9.61-.72-19.22-1.54-28.83-2.27-7.04-.53-14.08-.96-21.12-1.49-9.93-.74-19.85-1.53-29.78-2.28-2.42-.18-4.87,0-7.28-.5-.94-.19-2.35.18-2.18-1.39.14-1.34,1.38-.93,2.28-.91.47.01.94,0,2.01,0Z"/>
  <path d="m237.39,203.36c-11.05-.77-21.84-1.55-32.64-2.27-7.9-.53-15.8-.96-23.7-1.47-9.07-.58-18.14-1.22-27.21-1.81-5.48-.36-10.95-.66-16.43-1.02-9.07-.59-18.14-1.22-27.21-1.81-5.4-.35-10.79-.68-16.19-1.01-.55-.03-1.1-.01-1.64-.1-.67-.11-1.24-.48-1.23-1.21.01-.86.69-1.23,1.44-1.24.78-.01,1.55.19,2.33.24,7.98.51,15.96,1,23.94,1.52,8.84.58,17.67,1.21,26.51,1.79,7.9.52,15.81.98,23.71,1.49,9.15.59,18.3,1.22,27.45,1.82,5.24.34,10.48.68,15.72,1,8.37.51,16.74.99,25.11,1.52.95.06,2.37-.06,2.34,1.35-.04,1.67-1.55,1.09-2.28,1.22Z"/>
  <path d="m165.48,164.56c1.62-4.98,3.34-9.94,4.8-14.97.53-1.84,1.62-1.72,2.99-1.73,1.56,0,1.65.98,1.85,2.15.88,5.16,1.84,10.31,2.88,16.09,1.8-5.55,3.49-10.53,5.01-15.56.5-1.67,1.38-2,2.93-1.76,1.02.16,1.15.62.89,1.42-2.16,6.62-4.34,13.24-6.48,19.87-.39,1.22-1.28,1.22-2.26,1.11-1.27-.14-2.42-.28-2.68-1.99-.62-4.18-1.38-8.33-2.09-12.5-.21-1.22-.43-2.43-1.03-3.73-1.61,5.08-3.29,10.15-4.8,15.26-.55,1.85-1.53,2.29-3.29,1.99-1.18-.2-1.81-.73-2.01-1.89-1.14-6.47-2.33-12.93-3.43-19.41-.14-.81-.56-1.98,1.08-2,1.32-.02,2.24.19,2.49,1.77.86,5.32,1.83,10.63,2.76,15.94.12-.03.24-.06.37-.08Z"/>
  <path d="m169.03,115.84c2.08-.08,4.01.59,5.97,1.16,1.52.45,1.69,1.54,1.31,2.77-.51,1.69-1.52.49-2.21.19-2.08-.89-4.21-1.27-6.43-.95-1.65.24-2.74,1.27-2.91,2.94-.16,1.57.87,2.37,2.25,2.89,1.31.49,2.52,1.22,3.84,1.69,4.69,1.69,6.32,3.88,5.7,7.82-.57,3.65-3.14,5.61-7.72,5.67-2.52.03-4.95-.65-7.31-1.55-1.52-.58-1.53-1.7-1.14-2.87.55-1.65,1.49-.42,2.22-.13,2.56,1.01,5.06,2.19,7.93,1.17,1.49-.53,2.32-1.47,2.4-3.11.08-1.56-.62-2.57-2-3.11-1.31-.51-2.65-.96-4-1.34-4.61-1.28-5.98-3.78-5.68-7.41.32-3.82,3.27-5.85,7.78-5.83Z"/>
  <path d="m201.58,126.03c2.15-2.21,4.71-2.63,7.33-1.43,2.34,1.08,3.31,3.41,3.34,5.81.05,3.52-.32,7.04-.52,10.57-.07,1.15-.67,1.62-1.87,1.55-1.41-.08-1.78-.89-1.55-2.05.53-2.72.37-5.48.55-8.22.22-3.31-.7-4.64-3.09-4.8-2.67-.17-4.44,1.44-4.72,4.4-.24,2.5-.42,5-.52,7.51-.06,1.46-.33,2.45-2.13,2.26-1.79-.19-1.29-1.36-1.22-2.43.42-6.42.79-12.84,1.24-19.25.07-1.07-.22-2.55,1.63-2.57,1.38-.02,1.97.61,1.87,2.03-.14,2.17-.75,4.31-.35,6.62Z"/>
  <path d="m222.36,166.56c-.24,2.43-.49,4.28-.59,6.14-.06,1.17-.65,1.44-1.67,1.41-1.02-.03-1.6-.31-1.54-1.51.33-7.04.79-14.08,1.46-21.1.1-1.08.68-1.24,1.57-1.24,1.04,0,1.64.36,1.57,1.51-.17,2.97-.33,5.95-.47,8.92-.04.76,0,1.53,0,2.36,4.15-1.06,6.03-6.92,11.82-4.97-2.59,2.01-4.76,3.91-7.16,5.49-1.93,1.28-1.8,2.2-.26,3.69,1.97,1.91,3.72,4.03,5.56,6.08.3.34.78.67.6,1.19-.25.72-.92.42-1.42.4-1.29-.06-2.37-.48-3.27-1.54-1.87-2.2-3.87-4.29-6.18-6.82Z"/>
  <path d="m231.67,134.38c.02,3-.64,5.64-2.84,7.6-4.14,3.7-10.91,1.76-12.57-3.56-1.67-5.34.52-10.67,5.4-12.84,3.61-1.6,10.74,2.31,10.01,8.81Zm-12.3.76c0,.39-.02.79,0,1.18.12,2.53,1.52,4.28,3.61,4.51,2.43.28,4.08-.89,4.82-3.49.48-1.69.51-3.45.17-5.14-.35-1.78-1.29-3.18-3.35-3.44-2.03-.25-3.49.42-4.46,2.28-.68,1.31-.85,2.67-.79,4.1Z"/>
  <path d="m186.38,163.75c.2-6.97,4.88-10.75,10.86-8.73,3.02,1.02,4.36,3.37,4.97,6.3.88,4.23-1.27,9.21-4.6,10.66-5.83,2.53-11.41-1.56-11.23-8.23Zm12.42.2c0-3.4-.88-5.35-2.51-6.03-1.52-.64-3.07-.62-4.42.5-1.89,1.56-2.64,5.38-1.66,8.32.95,2.83,4.27,3.96,6.44,2.13,1.76-1.49,2.13-3.57,2.15-4.92Z"/>
  <path d="m250.51,135.8c-.06,6.64-4.03,10.23-10.06,9.08-3.06-.58-5.44-3.41-5.79-6.85-.5-4.91,1.32-8.91,4.71-10.38,3.1-1.34,7.1-.47,9.24,2.03,1.5,1.76,1.99,3.85,1.9,6.12Zm-3.6-.03c0-.47.03-.94,0-1.41-.18-2.42-1.62-4.15-3.72-4.49-1.83-.3-3.75,1.04-4.56,3.29-.71,1.97-.69,4.02-.18,6,.44,1.7,1.64,2.82,3.48,3.04,1.85.23,3.15-.63,4.1-2.15.83-1.32.95-2.79.89-4.28Z"/>
  <path d="m269.41,312.24c-.64.04-1.17,0-1.25-.76-.1-.92.26-1.54,1.17-1.75,2.29-.52,4.58-1.02,6.87-1.52,6.95-1.53,14-2.72,20.83-4.69,7.67-2.21,15.53-3.51,23.25-5.45.91-.23,1.91-.36,2.19.67.34,1.23-.75,1.52-1.7,1.76-16.84,4.16-33.76,7.98-50.73,11.58-.23.05-.46.11-.63.16Z"/>
  <path d="m92.06,149.29c8.49.61,16.85,1.25,25.22,1.81,6.1.41,12.21.7,18.32,1.06,1.17.07,2.35.14,3.51.3.79.11,1.65.34,1.46,1.43-.16.91-.93.96-1.66.93-3.84-.19-7.67-.37-11.51-.61-6.1-.39-12.2-.85-18.29-1.25-5.79-.38-11.58-.66-17.37-1.11-1.09-.08-3.1.25-2.92-1.48.21-1.89,2.22-.65,3.24-1.07Z"/>
  <path d="m132.31,118.58c-9-.62-17.99-1.26-26.99-1.86-3.6-.24-7.21-.4-10.81-.59-.63-.03-1.26-.03-1.88-.13-.78-.13-1.7-.31-1.66-1.32.05-1.19,1.06-1.22,1.94-1.17,5.64.34,11.27.7,16.91,1.06,6.42.42,12.83.85,19.25,1.28,2.19.15,4.38.3,6.57.46.77.06,1.48.38,1.46,1.23-.03,1.01-.88,1.21-1.72,1.18-1.02-.04-2.03-.17-3.05-.26,0,.04,0,.08,0,.11Z"/>
  <path d="m188.53,122.86c1.27-.11,2.69.28,4.1.81,1.66.63,1.49,2,1.09,3.13-.49,1.4-1.56.3-2.1-.03-2.44-1.46-4.68-1.4-6.73.62-2.07,2.04-2.13,4.68-1.63,7.25.59,3.03,3.75,4.44,7.32,3.64.74-.17,1.86-1.31,2.31.21.43,1.47-.42,2.31-1.92,2.61-4.49.89-8.55-.6-10.26-3.83-2-3.77-1.19-9.61,1.73-12.48,1.34-1.32,3.23-1.94,6.09-1.93Z"/>
  <path d="m314.2,261.3c-.34,1.3-1.34,1.32-2.25,1.52-9.32,2.04-18.64,4.09-27.96,6.12-3.67.8-7.33,1.61-11.01,2.36-.72.15-1.77,1.04-2.14-.33-.32-1.2.39-1.73,1.64-1.99,7.65-1.63,15.27-3.37,22.91-5.06,5.5-1.22,11-2.41,16.5-3.62,1.08-.24,2.03-.3,2.3,1Z"/>
  <path d="m270.78,291.99c-.67.04-1.19.04-1.27-.75-.13-1.22.55-1.65,1.61-1.87,3.75-.76,7.49-1.56,11.24-2.35,8.11-1.71,16.2-3.45,24.32-5.09,1-.2,2.6-1.11,3.06.5.51,1.78-1.37,1.64-2.35,1.85-11.99,2.58-24,5.08-36.01,7.6-.23.05-.46.07-.6.1Z"/>
  <path d="m258.8,124.11c-.4,6.16-.82,12.8-1.26,19.45-.07,1.08-.04,2.31-1.72,2.21-1.6-.09-1.85-1.01-1.75-2.4.48-6.48.88-12.97,1.37-19.46.07-.98-.32-2.33,1.44-2.45,1.65-.11,2.39.48,1.93,2.65Z"/>
  <path d="m209.92,158.07c1.76-1.54,3.44-2.21,5.42-2.13,1.51.06,1.75.93,1.71,2.2-.05,1.48-.92,1.02-1.78.94-3.38-.33-4.84.69-5.38,4.04-.44,2.78-.65,5.6-.84,8.41-.08,1.17-.4,1.7-1.66,1.67-1.3-.03-1.6-.7-1.52-1.81.33-4.77.67-9.54.96-14.31.07-1.14.8-1.1,1.62-1.18,1.43-.14,1.75.65,1.47,2.17Z"/>
  <path d="m273.31,249.47c-.66.09-1.11-.14-1.09-.85.02-.83.23-1.5,1.25-1.7,2.61-.51,5.23-1,7.79-1.68,5.73-1.52,11.46-3,17.29-4.05.99-.18,2.21-.7,2.44.82.2,1.29-1.02,1.25-1.91,1.54-8.12,2.65-16.57,3.82-24.87,5.66-.31.07-.6.17-.91.26Z"/>
  <path d="m296.75,218.99c1.12,0,1.63.18,1.75.84.16.89-.4,1.29-1.16,1.46-3.05.69-6.1,1.38-9.15,2.05-4.12.91-8.24,1.83-12.37,2.66-.66.13-1.71,1.08-2.04-.43-.28-1.33.57-1.72,1.71-1.96,5.5-1.17,11-2.39,16.49-3.59,1.75-.38,3.51-.76,4.77-1.03Z"/>
  <path d="m276.47,205.73c-.76.02-1.43.16-1.51-.62-.1-.97.34-1.66,1.35-1.88,2.75-.6,5.49-1.19,8.24-1.79,4.27-.93,8.54-1.83,12.81-2.79.87-.2,1.64-.15,1.93.75.28.85-.39,1.36-1.09,1.52-7.31,1.64-14.63,3.24-21.73,4.8Z"/>
  <path d="m93.42,133.81c5.45.32,10.91.65,16.36.98.31.02.63.05.93.14.72.21,1.68.24,1.57,1.35-.1,1.08-.98,1.1-1.77,1.06-2.96-.14-5.95-.12-8.88-.54-3.27-.46-6.57-.13-9.81-.7-.85-.15-2.16.05-2.04-1.35.12-1.37,1.38-.93,2.24-1.02.46-.05.94,0,1.41,0,0,.03,0,.05,0,.08Z"/>
</svg>