<?xml version="1.0" encoding="UTF-8"?>
<svg id="Micro" xmlns="http://www.w3.org/2000/svg" viewBox="0 0 280 180">
  <path d="m99.41,16.86c27.89,0,55.78-.02,83.67.03,2.83,0,5.17.11,5.54-3.76.26-2.68,2.62-3.65,5.18-3.65,17.43-.02,34.86,0,52.28-.03,4.29,0,4.63,2.49,4.38,5.95-.54,7.65-1.84,7.1,6.73,7.15,1.49,0,2.99-.03,4.48.03,5.34.23,7.1,2.2,6.46,7.58-2.97,24.93-6,49.85-9.02,74.77-.46,3.77-.86,7.56-1.48,11.31-.92,5.57-2.09,10.67,4.99,13.88,4.31,1.95,5.3,7.21,5.32,11.71.05,11.05-2.73,21.27-10.35,29.74-3.8,4.23-8.35,5.89-13.86,3.87-4.06-1.49-7.94-1.62-12.06.09-4.11,1.7-8.36,1.26-11.61-1.9-2.3-2.23-4.74-2.54-7.63-2.53-61.09.04-122.18.03-183.28.03-9.1,0-10.64-1.41-11.31-10.42-2.4-32.34-4.79-64.69-7.22-97.03-.93-12.38-2.1-24.73-2.92-37.12-.56-8.54.69-9.67,9.51-9.68,27.39-.02,54.78,0,82.18-.01Zm141.47,98.31c3.51-4.2,7.72-7.34,12.99-7.86,2.5-.25,2.67-.79,2.91-2.88,2.61-22.5,5.28-45,8.09-67.48,1.56-12.52,1.69-12.51-10.88-12.61-5.98-.05-6.71-.85-6.07-6.59.7-6.25.64-6.34-5.79-6.35-14.77-.02-29.55.16-44.31-.1-5.03-.09-7.57,1.67-7.65,6.66-.08,5.08-2.51,6.51-7.56,6.49-44.31-.19-88.63-.12-132.95-.09-2.31,0-4.62.35-6.93.49-3.43.21-4.94,2.29-5.36,5.43-.66,4.92-1.39,9.83-1.96,14.76-4.48,38.43-8.91,76.87-13.39,115.31-.9,7.74-.45,8.35,7.25,8.35,59.92,0,119.84,0,179.75,0,.66,0,1.33-.04,1.99,0,3.09.21,3.35-.98,2.03-3.49-2.41-4.57-3.98-9.48-4.79-14.57-1.01-6.34-.85-12.6,2.8-18.23,4.97-7.67,12.53-10.11,22.68-7.01,3.83,1.17,4.57.05,3.59-3.35-.78-2.7-1.66-5.37-2.47-8.06-.43-1.44-.13-2.64,1.34-3.31,1.76-.81,2.31.55,3.01,1.68.5.82.11,2.05,1.67,2.79Zm-218.16-2.36c.28-.02.57-.03.85-.05.24,1.87.48,3.75.88,6.92,3.51-29.49,6.95-57.66,10.19-85.84,1.15-10.02,2.23-11.29,12.22-11.29,44.8-.01,89.61.01,134.41-.07,1.88,0,5.37,1.37,5.36-1.33,0-2.21-3.59-1.2-5.56-1.21-48.62-.06-97.24-.05-145.86-.05q-6.96,0-7.9,7.43c-.44-2.4-1.14-3.94-3.58-3.45-3.06.62-2.02,3.06-2.02,4.79-.04,32.79-.01,65.58,0,98.37,0,2.63,0,5.25,0,7.88h1.01v-22.11Zm-2.88,41.04l1.26-.06c0-40.74,0-81.48-.01-122.22,0-1.84.05-3.85-2.71-3.75-2.93.1-2.16,2.36-2.29,4.03-.52,7.13.57,14.21.75,21.32.79,30.62,1.53,61.23,2.32,91.85.08,2.95.44,5.89.67,8.83Zm-3.11-39s.09,0,.13,0c-.78-26.63-1.59-53.25-2.33-79.88-.21-7.46,2.26-10.58,9.54-12.51.99-.26,2.1-.35,2.01-1.67-.08-1.29-1.19-1.47-2.2-1.49-2.82-.05-5.64-.1-8.46-.03-5.22.13-6.32,1.46-5.89,6.7,2.41,29.62,4.8,59.25,7.2,88.87Zm226.13,10.66c3.69-1.95,8.14.92,11.39-2.06.71-.65,1.11-9.21.72-11.29-2.82,5.66-6.59,10.26-12.11,13.35Z"/>
  <path d="m99.56,126.3c2.85-5.36,5.12-9.96,7.73-14.36,1.23-2.06,2.9-4.5,5.9-3.42,2.63.94,2.64,3.58,2.67,5.92.05,4.59.02,9.17,1.03,14.02,2.35-4.47,4.7-8.94,7.05-13.42.85-1.61,1.59-3.29,2.56-4.81,1.3-2.03,3.31-3.04,5.54-1.89,2.43,1.25,1.55,3.43.57,5.18-4.86,8.67-9.78,17.29-14.75,25.9-1.12,1.94-2.73,3.53-5.22,3.03-2.88-.57-3.2-3.05-3.43-5.39-.33-3.27-.56-6.56-.93-11.06-2.82,4.28-5.2,7.55-6.43,11.47-.85,2.7-2.35,4.43-5.34,4.09-3.1-.36-3.14-2.75-3.35-5.18-.65-7.41-1.45-14.8-2.85-22.13-.48-2.51-1.14-5.71,2.65-6.41,4.1-.75,4.48,2.71,4.97,5.36.74,4.02,1.04,8.13,1.64,13.1Z"/>
  <path d="m90.99,56.84c-.99,0-2-.11-2.98.02-2.25.31-5.59.3-5.59,2.9,0,2.41,3.22,1.3,5.01,1.45,6.25.55,9.88,2.83,10.76,7.05,1.03,4.97-1.69,9.44-7.57,11.93-4.95,2.1-10.09,3.27-15.51,1.85-2.52-.66-4.6-1.89-5.88-4.2-1.23-2.23-.67-4.18,1.24-5.72,1.78-1.44,3.28-.71,4.84.63,3.57,3.08,8.78,3.37,12.72.87,1.14-.73,2.33-1.5,2.11-3.07-.25-1.84-1.72-2.33-3.29-2.4-2.82-.14-5.64-.07-8.34-1.12-4.64-1.79-5.87-5.14-3.44-9.46,3.37-5.98,12.47-9.58,18.98-7.47,2.01.65,4.68,1.07,4.3,3.89-.38,2.88-2.88,3.27-5.38,3.11-.66-.04-1.32-.1-1.99-.15,0-.04,0-.08,0-.12Z"/>
  <path d="m155.32,81.85c-8.68.9-13.52-2.2-13.89-8.81-.43-7.8,6.46-15.64,14.34-15.32,3.88.16,5.03-1.08,5.35-4.41.11-1.13.58-2.23.96-3.32.74-2.13,2.14-3.47,4.5-2.7,2.13.69,2.45,2.53,2,4.47-2.04,8.85-3.75,17.76-4.82,26.79-.3,2.49-2.07,3.73-4.63,3.3-1.33-.23-2.6-.44-3.81.02Zm-6.55-10.97c.06,3.12,1.14,4.25,3.83,4.29,3.37.05,5.46-2.71,5.39-6.84-.05-2.54-1.31-3.63-3.7-3.45-3.85.28-5.36,2.72-5.52,6Z"/>
  <path d="m184.36,123.38c2.71-2.11,5.03-3.91,7.33-5.72,1.76-1.38,3.66-2.81,5.64-.66,2.27,2.46.13,4.15-1.47,5.83-.11.12-.23.25-.37.33-4.69,2.58-4.35,5.79-1.33,9.51.81.99,1.26,2.31,1.72,3.54.77,2.04-.08,3.51-1.87,4.55-2.01,1.16-3.52.36-4.64-1.34-1.09-1.65-1.99-3.42-3.04-5.1-.59-.94-1.07-2.29-2.53-1.88-1.25.34-1.59,1.59-1.86,2.73-.23.96-.25,1.99-.62,2.89-.8,1.97-2.15,3.55-4.49,2.99-2.4-.57-2.79-2.48-2.4-4.69,1.55-8.77,3.02-17.55,4.62-26.3.42-2.28,1.67-4.18,4.32-3.86,2.61.31,2.8,2.41,2.55,4.53-.48,4.03-.99,8.05-1.56,12.68Z"/>
  <path d="m175.28,74.73c3.33,1.15,5.95.41,8.64-.38,1.54-.45,3.6-1.03,4.43.89.98,2.26-.86,3.69-2.51,4.82-5.58,3.84-15.7,2.31-18.37-2.71-2.86-5.38,1.23-15,7.71-17.96,1.19-.54,2.51-.91,3.8-1.08,5.33-.69,9.93,1.25,10.33,4.67.55,4.77-3.19,6.38-6.68,8.08-2.29,1.12-4.98,1.49-7.34,3.68Z"/>
  <path d="m212.7,63.33c-.46,6.15-.72,10.44-1.13,14.72-.25,2.59-1.57,4.58-4.4,4.37-2.8-.21-3.25-2.62-3.08-4.84.25-3.29.81-6.55,1.29-9.82.12-.83.46-1.71-.46-2.19-.9-.48-1.58.23-2.13.82-2.06,2.22-3.6,4.69-4.18,7.75-.4,2.1-.98,4.19-1.79,6.17-.69,1.67-2.19,2.48-4.06,2.03-1.72-.42-2.58-1.85-2.34-3.37.98-6.36,2.1-12.7,3.34-19.02.35-1.8,2.23-3.31,3.66-2.52,3.32,1.84,6.31.34,9.48.17,3.82-.2,5.85,2.76,5.81,5.74Z"/>
  <path d="m128.45,61.62c-.64,3.29-1.7,6.45-1.6,9.81.05,1.7-.08,3.45,2.28,3.67,2.26.21,3.37-1.08,3.73-3.12.56-3.25.91-6.54,1.59-9.76.57-2.68,2.07-4.72,5.21-3.89,2.91.77,2.28,3.16,1.91,5.3-.85,4.87-1.7,9.75-2.54,14.62-.58,3.38-2.3,4.8-5.92,4.1-2.22-.43-4.59-.06-6.89-.15-3.78-.14-6.47-1.89-6.85-5.8-.52-5.33.49-10.54,2.31-15.56.77-2.14,2.41-3.11,4.71-2.61,1.86.4,2.13,1.83,2.07,3.37Z"/>
  <path d="m152.92,127.21c-.08,8.13-5.98,14.65-13.1,14.46-5.39-.14-8.72-3.66-8.75-9.22-.03-8,6.2-14.65,13.66-14.58,5.53.05,8.24,3.14,8.19,9.34Zm-6.93,1.6c.01-1.9-.04-3.9-2.26-3.87-3.75.06-4.73,3.09-5.36,6.06-.45,2.14.61,3.78,2.85,3.61,3.51-.26,4.23-3.15,4.77-5.8Z"/>
  <path d="m104.23,77.85c.28-2,.69-4.45.95-6.91.31-3.02,1.36-6.09-3.4-7.23-2.58-.62-2.1-4.51.89-5.56,2.68-.94,4.63-1.95,5.32-4.93.37-1.6,1.95-2.06,3.59-2.05,1.91,0,2.84,1.29,2.9,2.79.1,2.42.99,3.54,3.45,3.77,1.34.13,2.53,1.13,2.55,2.64.03,1.81-.95,3.52-2.71,3.68-4.51.41-4.84,3.52-5.27,6.92-.37,2.93-.95,5.86-1.76,8.7-.55,1.92-2.14,2.95-4.26,2.48-2.04-.45-2.37-2.05-2.25-4.29Z"/>
  <path d="m218.76,76.95c.27-1.87.68-4.31.98-6.76.33-2.75.26-4.99-3.18-6.25-2.93-1.07-2.63-4.67.5-5.85,2.59-.98,4.77-1.69,5.26-4.93.24-1.57,2.01-2.02,3.64-1.9,1.53.11,2.6.89,2.6,2.43,0,2.41,1,3.6,3.43,3.92,1.56.21,2.73,1.11,2.7,2.99-.02,1.94-1,3.37-2.8,3.55-4.55.46-4.77,3.77-5.21,7.1-.32,2.45-.61,4.92-1.18,7.32-.54,2.23-1.85,4.08-4.49,3.68-2.78-.43-2.34-2.73-2.25-5.3Z"/>
  <path d="m174.83,123c.06,2.3-.51,4.41-2.78,5.36-2.22.92-3.76.09-4.49-2.36-.51-1.73-1.76-1.04-2.77-.42-1.45.88-2.64,2.02-2.97,3.77-.37,1.94-.59,3.92-1.06,5.84-.71,2.88-.45,7.22-5.06,6.3-4.1-.82-2.2-4.4-1.8-6.99.65-4.24,1.29-8.48,2.16-12.67.62-3.01,2.39-4.95,5.67-3.37,2.56,1.24,4.45-.59,6.65-.89,4.74-.64,6.62.82,6.47,5.44Z"/>
</svg>